<svg width="32" height="32" viewBox="0 0 32 32" fill="none" xmlns="http://www.w3.org/2000/svg">
<rect width="32" height="32" rx="8" fill="#7B00FF" fill-opacity="0.05"/>
<rect x="0.5" y="0.5" width="31" height="31" rx="7.5" stroke="url(#paint0_linear_107_10971)" stroke-opacity="0.5"/>
<path d="M20.6668 22V20.6667C20.6668 19.9594 20.3859 19.2811 19.8858 18.781C19.3857 18.281 18.7074 18 18.0002 18H14.0002C13.2929 18 12.6146 18.281 12.1145 18.781C11.6144 19.2811 11.3335 19.9594 11.3335 20.6667V22M18.6668 12.6667C18.6668 14.1394 17.4729 15.3333 16.0002 15.3333C14.5274 15.3333 13.3335 14.1394 13.3335 12.6667C13.3335 11.1939 14.5274 10 16.0002 10C17.4729 10 18.6668 11.1939 18.6668 12.6667Z" stroke="url(#paint1_linear_107_10971)" stroke-opacity="0.5" stroke-linecap="round" stroke-linejoin="round"/>
<defs>
<linearGradient id="paint0_linear_107_10971" x1="32" y1="0" x2="0" y2="32" gradientUnits="userSpaceOnUse">
<stop stop-color="#00E6FF"/>
<stop offset="1" stop-color="#003CFF"/>
</linearGradient>
<linearGradient id="paint1_linear_107_10971" x1="16.0002" y1="10" x2="16.0002" y2="22" gradientUnits="userSpaceOnUse">
<stop stop-color="#00E6FF"/>
<stop offset="1" stop-color="#003CFF"/>
</linearGradient>
</defs>
</svg>
