<svg width="512" height="512" viewBox="0 0 512 512" fill="none" xmlns="http://www.w3.org/2000/svg">
<rect width="512" height="512" fill="#0A0A0A"/>
<path d="M137.938 350H121V79H137.938V350Z" fill="white"/>
<path d="M188.75 350H154.875V79H188.75V350Z" fill="white" fill-opacity="0.8"/>
<path d="M392 350H290.375V79H392V350Z" fill="white" fill-opacity="0.4"/>
<path d="M273.438 350H205.688V79H273.438V350Z" fill="white" fill-opacity="0.6"/>
<path d="M379.449 408.373C376.802 408.373 374.516 407.823 372.59 406.723C370.676 405.611 369.204 404.041 368.172 402.013C367.141 399.973 366.625 397.572 366.625 394.81C366.625 392.093 367.141 389.71 368.172 387.658C369.215 385.595 370.671 383.991 372.539 382.845C374.407 381.687 376.602 381.108 379.123 381.108C380.75 381.108 382.286 381.372 383.73 381.899C385.186 382.415 386.469 383.217 387.581 384.306C388.704 385.395 389.586 386.781 390.228 388.466C390.87 390.139 391.191 392.134 391.191 394.449V396.357H369.547V392.162H385.226C385.214 390.97 384.956 389.91 384.452 388.982C383.948 388.042 383.243 387.303 382.338 386.764C381.444 386.226 380.401 385.956 379.209 385.956C377.937 385.956 376.819 386.266 375.857 386.885C374.894 387.492 374.143 388.294 373.605 389.291C373.077 390.277 372.808 391.36 372.797 392.54V396.202C372.797 397.738 373.077 399.056 373.639 400.156C374.2 401.245 374.986 402.081 375.994 402.666C377.003 403.239 378.183 403.526 379.535 403.526C380.441 403.526 381.26 403.399 381.994 403.147C382.727 402.884 383.363 402.5 383.902 401.996C384.441 401.491 384.847 400.867 385.123 400.122L390.933 400.775C390.566 402.311 389.867 403.652 388.836 404.798C387.816 405.932 386.509 406.815 384.916 407.445C383.323 408.064 381.501 408.373 379.449 408.373Z" fill="white"/>
<path d="M324.313 407.858V381.452H330.262V385.939H330.571C331.121 384.426 332.032 383.246 333.304 382.398C334.577 381.538 336.095 381.108 337.86 381.108C339.648 381.108 341.155 381.544 342.381 382.415C343.619 383.274 344.49 384.449 344.994 385.939H345.269C345.854 384.472 346.839 383.303 348.226 382.432C349.624 381.55 351.28 381.108 353.194 381.108C355.624 381.108 357.607 381.876 359.142 383.412C360.678 384.948 361.446 387.188 361.446 390.134V407.858H355.206V391.096C355.206 389.458 354.77 388.26 353.899 387.503C353.028 386.736 351.962 386.352 350.702 386.352C349.2 386.352 348.026 386.822 347.177 387.761C346.341 388.69 345.923 389.899 345.923 391.389V407.858H339.82V390.839C339.82 389.475 339.407 388.386 338.582 387.572C337.768 386.759 336.702 386.352 335.384 386.352C334.491 386.352 333.677 386.581 332.943 387.039C332.21 387.486 331.625 388.122 331.19 388.948C330.754 389.761 330.537 390.712 330.537 391.801V407.858H324.313Z" fill="white"/>
<path d="M314.107 408.236C313.065 408.236 312.171 407.869 311.426 407.136C310.681 406.403 310.314 405.509 310.325 404.454C310.314 403.423 310.681 402.54 311.426 401.807C312.171 401.073 313.065 400.707 314.107 400.707C315.116 400.707 315.993 401.073 316.738 401.807C317.494 402.54 317.878 403.423 317.889 404.454C317.878 405.153 317.695 405.789 317.339 406.362C316.996 406.935 316.537 407.394 315.964 407.738C315.403 408.07 314.784 408.236 314.107 408.236Z" fill="white"/>
<path d="M290.073 408.391C288.4 408.391 286.893 408.093 285.552 407.497C284.223 406.889 283.168 405.995 282.389 404.815C281.621 403.634 281.237 402.179 281.237 400.448C281.237 398.958 281.512 397.726 282.062 396.752C282.613 395.778 283.363 394.999 284.314 394.414C285.266 393.83 286.337 393.389 287.529 393.091C288.733 392.781 289.976 392.558 291.26 392.42C292.807 392.26 294.062 392.116 295.024 391.99C295.987 391.853 296.686 391.647 297.122 391.371C297.569 391.085 297.792 390.644 297.792 390.048V389.945C297.792 388.65 297.408 387.647 296.64 386.936C295.873 386.226 294.767 385.87 293.323 385.87C291.798 385.87 290.589 386.203 289.695 386.867C288.813 387.532 288.217 388.317 287.907 389.223L282.097 388.397C282.555 386.793 283.312 385.452 284.366 384.375C285.42 383.286 286.71 382.472 288.234 381.934C289.758 381.383 291.443 381.108 293.288 381.108C294.56 381.108 295.827 381.257 297.087 381.555C298.348 381.853 299.5 382.346 300.543 383.034C301.586 383.71 302.422 384.633 303.053 385.802C303.694 386.971 304.015 388.432 304.015 390.185V407.858H298.033V404.23H297.827C297.448 404.964 296.915 405.651 296.228 406.293C295.552 406.924 294.698 407.434 293.666 407.823C292.646 408.201 291.449 408.391 290.073 408.391ZM291.689 403.818C292.939 403.818 294.022 403.571 294.939 403.079C295.855 402.574 296.56 401.91 297.053 401.084C297.557 400.259 297.809 399.36 297.809 398.385V395.274C297.615 395.434 297.282 395.583 296.812 395.721C296.354 395.858 295.838 395.979 295.265 396.082C294.692 396.185 294.125 396.277 293.563 396.357C293.002 396.437 292.515 396.506 292.102 396.563C291.174 396.689 290.343 396.896 289.609 397.182C288.876 397.469 288.297 397.87 287.873 398.385C287.449 398.89 287.237 399.543 287.237 400.345C287.237 401.491 287.655 402.357 288.492 402.941C289.329 403.526 290.394 403.818 291.689 403.818Z" fill="white"/>
<path d="M263.755 407.858V381.453H269.789V385.854H270.064C270.545 384.33 271.37 383.155 272.539 382.33C273.72 381.493 275.067 381.075 276.579 381.075C276.923 381.075 277.307 381.092 277.731 381.126C278.167 381.149 278.528 381.189 278.814 381.247V386.971C278.551 386.88 278.132 386.799 277.559 386.731C276.998 386.65 276.453 386.61 275.926 386.61C274.791 386.61 273.771 386.857 272.866 387.349C271.972 387.831 271.267 388.501 270.752 389.361C270.236 390.22 269.978 391.212 269.978 392.335V407.858H263.755Z" fill="white"/>
<path d="M258.88 381.452V386.266H243.271V381.452H258.88ZM247.173 407.858V378.959C247.173 377.183 247.54 375.705 248.273 374.524C249.018 373.344 250.015 372.461 251.264 371.877C252.514 371.292 253.9 371 255.425 371C256.502 371 257.459 371.086 258.295 371.258C259.132 371.43 259.751 371.584 260.152 371.722L258.914 376.536C258.651 376.455 258.318 376.375 257.917 376.295C257.516 376.203 257.069 376.157 256.576 376.157C255.419 376.157 254.599 376.438 254.118 377C253.648 377.55 253.413 378.341 253.413 379.372V407.858H247.173Z" fill="white"/>
<path d="M223.618 399.573L223.601 392.06H224.598L234.088 381.453H241.359L229.687 394.45H228.397L223.618 399.573ZM217.945 407.859V372.651H224.168V407.859H217.945ZM234.517 407.859L225.922 395.842L230.117 391.458L241.961 407.859H234.517Z" fill="white"/>
<path d="M198.751 407.858V381.453H204.785V385.854H205.06C205.541 384.33 206.367 383.155 207.536 382.33C208.716 381.493 210.063 381.075 211.575 381.075C211.919 381.075 212.303 381.092 212.727 381.126C213.163 381.149 213.524 381.189 213.81 381.247V386.971C213.547 386.88 213.128 386.799 212.555 386.731C211.994 386.65 211.449 386.61 210.922 386.61C209.788 386.61 208.768 386.857 207.862 387.349C206.968 387.831 206.263 388.501 205.748 389.361C205.232 390.22 204.974 391.212 204.974 392.335V407.858H198.751Z" fill="white"/>
<path d="M180.817 408.373C178.238 408.373 176.003 407.806 174.112 406.671C172.221 405.537 170.754 403.95 169.711 401.91C168.68 399.87 168.164 397.486 168.164 394.758C168.164 392.03 168.68 389.641 169.711 387.589C170.754 385.538 172.221 383.945 174.112 382.81C176.003 381.676 178.238 381.108 180.817 381.108C183.395 381.108 185.63 381.676 187.521 382.81C189.412 383.945 190.873 385.538 191.905 387.589C192.948 389.641 193.469 392.03 193.469 394.758C193.469 397.486 192.948 399.87 191.905 401.91C190.873 403.95 189.412 405.537 187.521 406.671C185.63 407.806 183.395 408.373 180.817 408.373ZM180.851 403.388C182.249 403.388 183.418 403.004 184.358 402.236C185.298 401.457 185.997 400.414 186.455 399.107C186.925 397.801 187.16 396.345 187.16 394.741C187.16 393.125 186.925 391.664 186.455 390.357C185.997 389.039 185.298 387.991 184.358 387.211C183.418 386.432 182.249 386.042 180.851 386.042C179.418 386.042 178.227 386.432 177.275 387.211C176.336 387.991 175.631 389.039 175.161 390.357C174.702 391.664 174.473 393.125 174.473 394.741C174.473 396.345 174.702 397.801 175.161 399.107C175.631 400.414 176.336 401.457 177.275 402.236C178.227 403.004 179.418 403.388 180.851 403.388Z" fill="white"/>
<path d="M130.936 407.859L121 372.651H127.859L134.203 398.524H134.529L141.303 372.651H147.543L154.333 398.541H154.643L160.986 372.651H167.845L157.909 407.859H151.617L144.569 383.155H144.294L137.228 407.859H130.936Z" fill="white"/>
<path d="M387.65 432.569C386.871 432.569 386.201 432.439 385.639 432.18C385.088 431.92 384.661 431.547 384.358 431.061C384.055 430.574 383.899 429.996 383.888 429.326H385.347C385.347 429.92 385.547 430.391 385.947 430.737C386.358 431.082 386.925 431.255 387.65 431.255C388.331 431.255 388.861 431.088 389.239 430.753C389.628 430.418 389.823 429.953 389.823 429.358C389.823 428.882 389.693 428.466 389.434 428.109C389.185 427.753 388.823 427.504 388.347 427.364L386.742 426.861C385.931 426.612 385.304 426.196 384.861 425.612C384.428 425.028 384.212 424.342 384.212 423.553C384.212 422.915 384.353 422.364 384.634 421.899C384.926 421.423 385.331 421.055 385.85 420.796C386.369 420.526 386.98 420.391 387.682 420.391C388.72 420.391 389.553 420.683 390.18 421.266C390.807 421.839 391.125 422.607 391.136 423.569H389.677C389.677 422.985 389.498 422.531 389.142 422.207C388.796 421.872 388.304 421.704 387.666 421.704C387.039 421.704 386.547 421.855 386.19 422.158C385.844 422.461 385.671 422.883 385.671 423.423C385.671 423.91 385.801 424.331 386.061 424.688C386.32 425.045 386.693 425.299 387.18 425.45L388.801 425.969C389.59 426.218 390.201 426.639 390.634 427.234C391.066 427.828 391.282 428.526 391.282 429.326C391.282 429.974 391.131 430.542 390.828 431.028C390.525 431.515 390.098 431.893 389.547 432.164C389.007 432.434 388.374 432.569 387.65 432.569Z" fill="white"/>
<path d="M374.617 432.407V420.569H381.428V421.899H376.06V425.564H380.86V426.877H376.06V431.077H381.428V432.407H374.617Z" fill="white"/>
<path d="M364.732 432.407V420.569H366.678L370.295 430.704C370.273 430.434 370.246 430.104 370.213 429.715C370.192 429.315 370.17 428.899 370.149 428.467C370.138 428.023 370.132 427.607 370.132 427.218V420.569H371.543V432.407H369.597L365.997 422.272C366.019 422.531 366.041 422.861 366.062 423.261C366.084 423.65 366.1 424.067 366.111 424.51C366.132 424.942 366.143 425.358 366.143 425.758V432.407H364.732Z" fill="white"/>
<path d="M355.251 432.407V431.077H357.667V421.899H355.251V420.569H361.575V421.899H359.159V431.077H361.575V432.407H355.251Z" fill="white"/>
<path d="M345.334 432.407V420.569H346.793V425.629H350.588V420.569H352.047V432.407H350.588V426.958H346.793V432.407H345.334Z" fill="white"/>
<path d="M339.032 432.569C338.318 432.569 337.697 432.434 337.167 432.164C336.648 431.894 336.243 431.504 335.951 430.996C335.67 430.477 335.529 429.867 335.529 429.164V423.813C335.529 423.099 335.67 422.488 335.951 421.98C336.243 421.472 336.648 421.083 337.167 420.813C337.697 420.542 338.318 420.407 339.032 420.407C339.745 420.407 340.362 420.548 340.881 420.829C341.4 421.099 341.8 421.488 342.081 421.996C342.362 422.505 342.502 423.11 342.502 423.813H341.043C341.043 423.142 340.864 422.629 340.508 422.272C340.162 421.905 339.67 421.721 339.032 421.721C338.394 421.721 337.891 421.899 337.524 422.256C337.167 422.613 336.989 423.126 336.989 423.796V429.164C336.989 429.834 337.167 430.353 337.524 430.721C337.891 431.077 338.394 431.256 339.032 431.256C339.67 431.256 340.162 431.077 340.508 430.721C340.864 430.353 341.043 429.834 341.043 429.164H342.502C342.502 429.856 342.362 430.461 342.081 430.98C341.8 431.488 341.4 431.883 340.881 432.164C340.362 432.434 339.745 432.569 339.032 432.569Z" fill="white"/>
<path d="M325.19 432.407L328.271 420.569H330.234L333.298 432.407H331.823L331.044 429.261H327.461L326.682 432.407H325.19ZM327.753 428.029H330.736L329.828 424.38C329.655 423.688 329.52 423.11 329.423 422.645C329.326 422.18 329.266 421.877 329.244 421.737C329.223 421.877 329.163 422.18 329.066 422.645C328.969 423.11 328.834 423.683 328.661 424.364L327.753 428.029Z" fill="white"/>
<path d="M315.888 432.407V420.569H317.801L319.034 424.396C319.153 424.742 319.261 425.088 319.358 425.434C319.455 425.769 319.526 426.029 319.569 426.213C319.623 426.029 319.693 425.769 319.78 425.434C319.866 425.088 319.963 424.737 320.071 424.38L321.239 420.569H323.153V432.407H321.725V428.11C321.725 427.634 321.742 427.094 321.774 426.488C321.807 425.883 321.85 425.267 321.904 424.64C321.958 424.002 322.012 423.396 322.066 422.823C322.131 422.24 322.185 421.731 322.228 421.299L320.315 427.218H318.774L316.844 421.299C316.898 421.721 316.953 422.213 317.007 422.775C317.061 423.326 317.109 423.915 317.153 424.542C317.196 425.158 317.234 425.775 317.266 426.391C317.298 427.007 317.315 427.58 317.315 428.11V432.407H315.888Z" fill="white"/>
<path d="M300.14 432.569C299.362 432.569 298.691 432.439 298.129 432.18C297.578 431.92 297.151 431.547 296.848 431.061C296.545 430.574 296.389 429.996 296.378 429.326H297.837C297.837 429.92 298.037 430.391 298.437 430.737C298.848 431.082 299.416 431.255 300.14 431.255C300.821 431.255 301.351 431.088 301.729 430.753C302.118 430.418 302.313 429.953 302.313 429.358C302.313 428.882 302.183 428.466 301.924 428.109C301.675 427.753 301.313 427.504 300.837 427.364L299.232 426.861C298.421 426.612 297.794 426.196 297.351 425.612C296.918 425.028 296.702 424.342 296.702 423.553C296.702 422.915 296.843 422.364 297.124 421.899C297.416 421.423 297.821 421.055 298.34 420.796C298.859 420.526 299.47 420.391 300.172 420.391C301.21 420.391 302.043 420.683 302.67 421.266C303.297 421.839 303.616 422.607 303.627 423.569H302.167C302.167 422.985 301.989 422.531 301.632 422.207C301.286 421.872 300.794 421.704 300.156 421.704C299.529 421.704 299.037 421.855 298.681 422.158C298.335 422.461 298.162 422.883 298.162 423.423C298.162 423.91 298.291 424.331 298.551 424.688C298.81 425.045 299.183 425.299 299.67 425.45L301.291 425.969C302.081 426.218 302.691 426.639 303.124 427.234C303.556 427.828 303.772 428.526 303.772 429.326C303.772 429.974 303.621 430.542 303.318 431.028C303.016 431.515 302.589 431.893 302.037 432.164C301.497 432.434 300.864 432.569 300.14 432.569Z" fill="white"/>
<path d="M290.415 432.569C289.637 432.569 288.967 432.439 288.405 432.18C287.853 431.92 287.426 431.547 287.124 431.061C286.821 430.574 286.664 429.996 286.653 429.326H288.113C288.113 429.92 288.313 430.391 288.713 430.737C289.124 431.082 289.691 431.255 290.415 431.255C291.097 431.255 291.626 431.088 292.005 430.753C292.394 430.418 292.588 429.953 292.588 429.358C292.588 428.882 292.459 428.466 292.199 428.109C291.951 427.753 291.588 427.504 291.113 427.364L289.507 426.861C288.697 426.612 288.07 426.196 287.626 425.612C287.194 425.028 286.978 424.342 286.978 423.553C286.978 422.915 287.118 422.364 287.399 421.899C287.691 421.423 288.097 421.055 288.615 420.796C289.134 420.526 289.745 420.391 290.448 420.391C291.486 420.391 292.318 420.683 292.945 421.266C293.572 421.839 293.891 422.607 293.902 423.569H292.442C292.442 422.985 292.264 422.531 291.907 422.207C291.561 421.872 291.07 421.704 290.432 421.704C289.805 421.704 289.313 421.855 288.956 422.158C288.61 422.461 288.437 422.883 288.437 423.423C288.437 423.91 288.567 424.331 288.826 424.688C289.086 425.045 289.459 425.299 289.945 425.45L291.567 425.969C292.356 426.218 292.967 426.639 293.399 427.234C293.832 427.828 294.048 428.526 294.048 429.326C294.048 429.974 293.897 430.542 293.594 431.028C293.291 431.515 292.864 431.893 292.313 432.164C291.772 432.434 291.14 432.569 290.415 432.569Z" fill="white"/>
<path d="M277.384 432.407V420.569H284.195V421.899H278.827V425.564H283.627V426.877H278.827V431.077H284.195V432.407H277.384Z" fill="white"/>
<path d="M267.499 432.407V420.569H269.445L273.061 430.704C273.04 430.434 273.012 430.104 272.98 429.715C272.958 429.315 272.937 428.899 272.915 428.467C272.904 428.023 272.899 427.607 272.899 427.218V420.569H274.31V432.407H272.364L268.764 422.272C268.785 422.531 268.807 422.861 268.829 423.261C268.85 423.65 268.867 424.067 268.877 424.51C268.899 424.942 268.91 425.358 268.91 425.758V432.407H267.499Z" fill="white"/>
<path d="M258.019 432.407V431.077H260.435V421.899H258.019V420.569H264.343V421.899H261.927V431.077H264.343V432.407H258.019Z" fill="white"/>
<path d="M251.523 432.569C250.745 432.569 250.074 432.439 249.512 432.18C248.961 431.92 248.534 431.547 248.231 431.061C247.928 430.574 247.772 429.996 247.761 429.326H249.22C249.22 429.92 249.42 430.391 249.82 430.737C250.231 431.082 250.799 431.255 251.523 431.255C252.204 431.255 252.734 431.088 253.112 430.753C253.501 430.418 253.696 429.953 253.696 429.358C253.696 428.882 253.566 428.466 253.307 428.109C253.058 427.753 252.696 427.504 252.22 427.364L250.615 426.861C249.804 426.612 249.177 426.196 248.734 425.612C248.301 425.028 248.085 424.342 248.085 423.553C248.085 422.915 248.226 422.364 248.507 421.899C248.799 421.423 249.204 421.055 249.723 420.796C250.242 420.526 250.853 420.391 251.555 420.391C252.593 420.391 253.426 420.683 254.053 421.266C254.68 421.839 254.999 422.607 255.009 423.569H253.55C253.55 422.985 253.372 422.531 253.015 422.207C252.669 421.872 252.177 421.704 251.539 421.704C250.912 421.704 250.42 421.855 250.063 422.158C249.717 422.461 249.545 422.883 249.545 423.423C249.545 423.91 249.674 424.331 249.934 424.688C250.193 425.045 250.566 425.299 251.053 425.45L252.674 425.969C253.463 426.218 254.074 426.639 254.507 427.234C254.939 427.828 255.155 428.526 255.155 429.326C255.155 429.974 255.004 430.542 254.701 431.028C254.399 431.515 253.972 431.893 253.42 432.164C252.88 432.434 252.247 432.569 251.523 432.569Z" fill="white"/>
<path d="M241.734 432.569C240.632 432.569 239.789 432.267 239.205 431.661C238.621 431.045 238.329 430.213 238.329 429.164V420.569H239.789V429.164C239.789 429.813 239.945 430.326 240.259 430.704C240.583 431.083 241.075 431.272 241.734 431.272C242.383 431.272 242.87 431.083 243.194 430.704C243.518 430.326 243.68 429.813 243.68 429.164V420.569H245.14V429.164C245.14 430.223 244.848 431.056 244.264 431.661C243.691 432.267 242.848 432.569 241.734 432.569Z" fill="white"/>
<path d="M228.654 432.407V420.569H232.011C233.092 420.569 233.935 420.84 234.541 421.38C235.157 421.921 235.465 422.672 235.465 423.634C235.465 424.175 235.352 424.645 235.125 425.045C234.897 425.445 234.573 425.753 234.152 425.969C233.741 426.186 233.243 426.288 232.66 426.277V426.034C233.287 426.023 233.827 426.142 234.281 426.391C234.746 426.64 235.103 426.996 235.352 427.461C235.611 427.926 235.741 428.477 235.741 429.115C235.741 429.785 235.6 430.369 235.319 430.867C235.038 431.364 234.638 431.748 234.119 432.018C233.6 432.277 232.979 432.407 232.254 432.407H228.654ZM230.081 431.094H232.092C232.773 431.094 233.308 430.915 233.698 430.558C234.098 430.191 234.298 429.694 234.298 429.067C234.298 428.418 234.098 427.894 233.698 427.494C233.308 427.083 232.773 426.877 232.092 426.877H230.081V431.094ZM230.081 425.613H231.995C232.622 425.613 233.114 425.445 233.47 425.11C233.838 424.775 234.022 424.321 234.022 423.748C234.022 423.175 233.843 422.721 233.487 422.386C233.13 422.05 232.638 421.883 232.011 421.883H230.081V425.613Z" fill="white"/>
<path d="M212.629 432.569C211.851 432.569 211.181 432.439 210.619 432.18C210.067 431.92 209.64 431.547 209.337 431.061C209.035 430.574 208.878 429.996 208.867 429.326H210.327C210.327 429.92 210.527 430.391 210.927 430.737C211.337 431.082 211.905 431.255 212.629 431.255C213.31 431.255 213.84 431.088 214.219 430.753C214.608 430.418 214.802 429.953 214.802 429.358C214.802 428.882 214.673 428.466 214.413 428.109C214.164 427.753 213.802 427.504 213.327 427.364L211.721 426.861C210.91 426.612 210.283 426.196 209.84 425.612C209.408 425.028 209.192 424.342 209.192 423.553C209.192 422.915 209.332 422.364 209.613 421.899C209.905 421.423 210.31 421.055 210.829 420.796C211.348 420.526 211.959 420.391 212.662 420.391C213.7 420.391 214.532 420.683 215.159 421.266C215.786 421.839 216.105 422.607 216.116 423.569H214.656C214.656 422.985 214.478 422.531 214.121 422.207C213.775 421.872 213.283 421.704 212.646 421.704C212.019 421.704 211.527 421.855 211.17 422.158C210.824 422.461 210.651 422.883 210.651 423.423C210.651 423.91 210.781 424.331 211.04 424.688C211.3 425.045 211.673 425.299 212.159 425.45L213.781 425.969C214.57 426.218 215.181 426.639 215.613 427.234C216.046 427.828 216.262 428.526 216.262 429.326C216.262 429.974 216.11 430.542 215.808 431.028C215.505 431.515 215.078 431.893 214.527 432.164C213.986 432.434 213.354 432.569 212.629 432.569Z" fill="white"/>
<path d="M202.84 432.569C201.737 432.569 200.894 432.267 200.31 431.661C199.726 431.045 199.435 430.213 199.435 429.164V420.569H200.894V429.164C200.894 429.813 201.051 430.326 201.364 430.704C201.689 431.083 202.18 431.272 202.84 431.272C203.489 431.272 203.975 431.083 204.299 430.704C204.624 430.326 204.786 429.813 204.786 429.164V420.569H206.245V429.164C206.245 430.223 205.953 431.056 205.37 431.661C204.797 432.267 203.953 432.569 202.84 432.569Z" fill="white"/>
<path d="M193.118 432.569C192.404 432.569 191.788 432.434 191.269 432.164C190.761 431.894 190.366 431.504 190.085 430.996C189.815 430.477 189.68 429.867 189.68 429.164V423.813C189.68 423.099 189.815 422.488 190.085 421.98C190.366 421.472 190.761 421.083 191.269 420.813C191.788 420.542 192.404 420.407 193.118 420.407C193.831 420.407 194.442 420.542 194.95 420.813C195.469 421.083 195.863 421.472 196.134 421.98C196.415 422.488 196.555 423.094 196.555 423.796V429.164C196.555 429.867 196.415 430.477 196.134 430.996C195.863 431.504 195.469 431.894 194.95 432.164C194.442 432.434 193.831 432.569 193.118 432.569ZM193.118 431.256C193.755 431.256 194.242 431.077 194.577 430.721C194.923 430.353 195.096 429.834 195.096 429.164V423.813C195.096 423.142 194.923 422.629 194.577 422.272C194.242 421.905 193.755 421.721 193.118 421.721C192.49 421.721 192.004 421.905 191.658 422.272C191.312 422.629 191.139 423.142 191.139 423.813V429.164C191.139 429.834 191.312 430.353 191.658 430.721C192.004 431.077 192.49 431.256 193.118 431.256Z" fill="white"/>
<path d="M179.762 432.407V420.569H181.675L182.908 424.396C183.027 424.742 183.135 425.088 183.232 425.434C183.329 425.769 183.4 426.029 183.443 426.213C183.497 426.029 183.567 425.769 183.654 425.434C183.74 425.088 183.837 424.737 183.945 424.38L185.113 420.569H187.027V432.407H185.6V428.11C185.6 427.634 185.616 427.094 185.648 426.488C185.681 425.883 185.724 425.267 185.778 424.64C185.832 424.002 185.886 423.396 185.94 422.823C186.005 422.24 186.059 421.731 186.102 421.299L184.189 427.218H182.648L180.718 421.299C180.773 421.721 180.827 422.213 180.881 422.775C180.935 423.326 180.983 423.915 181.027 424.542C181.07 425.158 181.108 425.775 181.14 426.391C181.173 427.007 181.189 427.58 181.189 428.11V432.407H179.762Z" fill="white"/>
<path d="M173.67 432.569C172.957 432.569 172.341 432.434 171.822 432.164C171.313 431.894 170.919 431.504 170.638 430.996C170.368 430.477 170.232 429.867 170.232 429.164V423.813C170.232 423.099 170.368 422.488 170.638 421.98C170.919 421.472 171.313 421.083 171.822 420.813C172.341 420.542 172.957 420.407 173.67 420.407C174.384 420.407 174.995 420.542 175.503 420.813C176.022 421.083 176.416 421.472 176.686 421.98C176.968 422.488 177.108 423.094 177.108 423.796V429.164C177.108 429.867 176.968 430.477 176.686 430.996C176.416 431.504 176.022 431.894 175.503 432.164C174.995 432.434 174.384 432.569 173.67 432.569ZM173.67 431.256C174.308 431.256 174.795 431.077 175.13 430.721C175.476 430.353 175.649 429.834 175.649 429.164V423.813C175.649 423.142 175.476 422.629 175.13 422.272C174.795 421.905 174.308 421.721 173.67 421.721C173.043 421.721 172.557 421.905 172.211 422.272C171.865 422.629 171.692 423.142 171.692 423.813V429.164C171.692 429.834 171.865 430.353 172.211 430.721C172.557 431.077 173.043 431.256 173.67 431.256Z" fill="white"/>
<path d="M160.542 432.407V420.569H162.488L166.104 430.704C166.082 430.434 166.055 430.104 166.023 429.715C166.001 429.315 165.98 428.899 165.958 428.467C165.947 428.023 165.942 427.607 165.942 427.218V420.569H167.353V432.407H165.407L161.807 422.272C161.828 422.531 161.85 422.861 161.872 423.261C161.893 423.65 161.91 424.067 161.92 424.51C161.942 424.942 161.953 425.358 161.953 425.758V432.407H160.542Z" fill="white"/>
<path d="M154.224 432.569C153.51 432.569 152.894 432.434 152.375 432.164C151.867 431.894 151.473 431.504 151.192 430.996C150.921 430.477 150.786 429.867 150.786 429.164V423.813C150.786 423.099 150.921 422.488 151.192 421.98C151.473 421.472 151.867 421.083 152.375 420.813C152.894 420.542 153.51 420.407 154.224 420.407C154.937 420.407 155.548 420.542 156.056 420.813C156.575 421.083 156.97 421.472 157.24 421.98C157.521 422.488 157.662 423.094 157.662 423.796V429.164C157.662 429.867 157.521 430.477 157.24 430.996C156.97 431.504 156.575 431.894 156.056 432.164C155.548 432.434 154.937 432.569 154.224 432.569ZM154.224 431.256C154.862 431.256 155.348 431.077 155.683 430.721C156.029 430.353 156.202 429.834 156.202 429.164V423.813C156.202 423.142 156.029 422.629 155.683 422.272C155.348 421.905 154.862 421.721 154.224 421.721C153.597 421.721 153.11 421.905 152.764 422.272C152.419 422.629 152.246 423.142 152.246 423.813V429.164C152.246 429.834 152.419 430.353 152.764 430.721C153.11 431.077 153.597 431.256 154.224 431.256Z" fill="white"/>
<path d="M143.771 432.407V421.882H140.527V420.553H148.473V421.882H145.23V432.407H143.771Z" fill="white"/>
<path d="M134.777 432.569C133.675 432.569 132.832 432.267 132.248 431.661C131.664 431.045 131.372 430.213 131.372 429.164V420.569H132.832V429.164C132.832 429.813 132.988 430.326 133.302 430.704C133.626 431.083 134.118 431.272 134.777 431.272C135.426 431.272 135.913 431.083 136.237 430.704C136.561 430.326 136.723 429.813 136.723 429.164V420.569H138.183V429.164C138.183 430.223 137.891 431.056 137.307 431.661C136.734 432.267 135.891 432.569 134.777 432.569Z" fill="white"/>
<path d="M121 432.407L124.081 420.569H126.043L129.108 432.407H127.632L126.854 429.261H123.27L122.492 432.407H121ZM123.562 428.029H126.546L125.638 424.38C125.465 423.688 125.33 423.11 125.232 422.645C125.135 422.18 125.076 421.877 125.054 421.737C125.032 421.877 124.973 422.18 124.876 422.645C124.778 423.11 124.643 423.683 124.47 424.364L123.562 428.029Z" fill="white"/>
</svg>
