<svg width="712" height="208" viewBox="0 0 712 208" fill="none" xmlns="http://www.w3.org/2000/svg">
<rect width="712" height="208" fill="#0A0A0A"/>
<path d="M41.875 33H33V175H41.875V33Z" fill="white"/>
<path d="M68.5 33H50.75V175H68.5V33Z" fill="white" fill-opacity="0.8"/>
<path d="M175 33H121.75V175H175V33Z" fill="white" fill-opacity="0.4"/>
<path d="M112.875 33H77.375V175H112.875V33Z" fill="white" fill-opacity="0.6"/>
<path d="M515.852 130.397C512.565 130.397 509.727 129.714 507.336 128.348C504.96 126.968 503.132 125.019 501.851 122.501C500.571 119.968 499.931 116.987 499.931 113.558C499.931 110.186 500.571 107.227 501.851 104.68C503.146 102.119 504.953 100.127 507.272 98.7044C509.591 97.2673 512.316 96.5488 515.446 96.5488C517.466 96.5488 519.373 96.8761 521.166 97.5306C522.973 98.1708 524.566 99.1668 525.946 100.518C527.341 101.87 528.436 103.592 529.233 105.683C530.03 107.76 530.428 110.236 530.428 113.11V115.479H503.559V110.272H523.022C523.008 108.792 522.688 107.476 522.062 106.323C521.436 105.157 520.561 104.239 519.437 103.57C518.327 102.902 517.033 102.567 515.553 102.567C513.974 102.567 512.586 102.951 511.391 103.72C510.196 104.474 509.264 105.47 508.595 106.708C507.941 107.931 507.607 109.276 507.592 110.741V115.287C507.592 117.194 507.941 118.83 508.638 120.196C509.335 121.547 510.31 122.586 511.562 123.312C512.814 124.023 514.279 124.379 515.958 124.379C517.082 124.379 518.1 124.222 519.01 123.909C519.921 123.582 520.71 123.105 521.379 122.479C522.048 121.853 522.553 121.078 522.894 120.153L530.108 120.964C529.653 122.87 528.785 124.535 527.504 125.958C526.238 127.366 524.616 128.462 522.638 129.245C520.661 130.013 518.398 130.397 515.852 130.397Z" fill="white"/>
<path d="M447.404 129.757V96.9757H454.789V102.546H455.173C455.856 100.668 456.987 99.2023 458.566 98.1495C460.145 97.0824 462.031 96.5488 464.222 96.5488C466.441 96.5488 468.312 97.0895 469.834 98.1708C471.371 99.2379 472.452 100.696 473.078 102.546H473.42C474.146 100.725 475.369 99.2735 477.091 98.1922C478.826 97.0966 480.882 96.5488 483.258 96.5488C486.275 96.5488 488.736 97.5021 490.643 99.4086C492.549 101.315 493.502 104.097 493.502 107.753V129.757H485.755V108.948C485.755 106.914 485.215 105.427 484.133 104.488C483.052 103.535 481.729 103.058 480.164 103.058C478.3 103.058 476.842 103.641 475.789 104.808C474.75 105.961 474.231 107.462 474.231 109.311V129.757H466.655V108.628C466.655 106.935 466.142 105.584 465.118 104.573C464.108 103.563 462.785 103.058 461.148 103.058C460.039 103.058 459.028 103.343 458.118 103.912C457.207 104.467 456.482 105.256 455.941 106.281C455.4 107.291 455.13 108.472 455.13 109.823V129.757H447.404Z" fill="white"/>
<path d="M434.733 130.226C433.438 130.226 432.328 129.771 431.403 128.86C430.478 127.95 430.023 126.84 430.037 125.531C430.023 124.25 430.478 123.155 431.403 122.244C432.328 121.334 433.438 120.878 434.733 120.878C435.985 120.878 437.073 121.334 437.998 122.244C438.937 123.155 439.414 124.25 439.428 125.531C439.414 126.399 439.186 127.188 438.745 127.9C438.318 128.611 437.749 129.18 437.038 129.607C436.34 130.02 435.572 130.226 434.733 130.226Z" fill="white"/>
<path d="M404.896 130.418C402.819 130.418 400.948 130.048 399.284 129.309C397.633 128.555 396.324 127.445 395.357 125.979C394.403 124.514 393.927 122.707 393.927 120.558C393.927 118.709 394.268 117.179 394.951 115.97C395.634 114.761 396.566 113.793 397.747 113.067C398.928 112.342 400.258 111.794 401.738 111.424C403.232 111.04 404.775 110.763 406.369 110.592C408.29 110.393 409.848 110.215 411.043 110.058C412.238 109.887 413.106 109.631 413.647 109.29C414.201 108.934 414.479 108.386 414.479 107.647V107.519C414.479 105.911 414.002 104.666 413.049 103.784C412.096 102.902 410.723 102.461 408.93 102.461C407.038 102.461 405.537 102.873 404.427 103.698C403.331 104.524 402.591 105.498 402.207 106.622L394.994 105.598C395.563 103.606 396.502 101.941 397.811 100.604C399.12 99.2521 400.721 98.2419 402.613 97.5732C404.505 96.8903 406.597 96.5488 408.887 96.5488C410.467 96.5488 412.039 96.7338 413.604 97.1037C415.169 97.4736 416.599 98.0854 417.894 98.9391C419.188 99.7786 420.227 100.924 421.009 102.375C421.806 103.826 422.205 105.64 422.205 107.817V129.757H414.778V125.254H414.522C414.052 126.164 413.39 127.018 412.537 127.815C411.697 128.597 410.637 129.23 409.357 129.714C408.091 130.184 406.604 130.418 404.896 130.418ZM406.903 124.741C408.453 124.741 409.798 124.436 410.936 123.824C412.074 123.198 412.949 122.372 413.561 121.348C414.187 120.324 414.5 119.207 414.5 117.997V114.135C414.258 114.334 413.846 114.519 413.262 114.689C412.693 114.86 412.053 115.01 411.342 115.138C410.63 115.266 409.926 115.379 409.229 115.479C408.532 115.579 407.927 115.664 407.415 115.735C406.262 115.892 405.231 116.148 404.32 116.503C403.41 116.859 402.691 117.357 402.165 117.997C401.638 118.623 401.375 119.434 401.375 120.43C401.375 121.853 401.894 122.927 402.933 123.653C403.972 124.379 405.295 124.741 406.903 124.741Z" fill="white"/>
<path d="M372.222 129.757V96.9759H379.713V102.439H380.054C380.652 100.547 381.676 99.0887 383.127 98.0643C384.593 97.0257 386.265 96.5063 388.143 96.5063C388.569 96.5063 389.046 96.5277 389.573 96.5704C390.113 96.5988 390.561 96.6486 390.917 96.7198V103.827C390.59 103.713 390.07 103.613 389.359 103.528C388.662 103.428 387.986 103.378 387.332 103.378C385.923 103.378 384.657 103.684 383.533 104.296C382.423 104.894 381.548 105.726 380.908 106.793C380.268 107.86 379.947 109.091 379.947 110.485V129.757H372.222Z" fill="white"/>
<path d="M366.171 96.9759V102.952H346.793V96.9759H366.171ZM351.638 129.757V93.8813C351.638 91.676 352.093 89.8406 353.003 88.3751C353.928 86.9096 355.166 85.8141 356.717 85.0884C358.268 84.3628 359.989 84 361.882 84C363.219 84 364.407 84.1067 365.446 84.3201C366.484 84.5335 367.253 84.7256 367.751 84.8964L366.214 90.8721C365.887 90.7725 365.474 90.6729 364.976 90.5733C364.478 90.4595 363.923 90.4026 363.311 90.4026C361.874 90.4026 360.857 90.7511 360.26 91.4483C359.676 92.1312 359.385 93.113 359.385 94.3935V129.757H351.638Z" fill="white"/>
<path d="M322.395 119.471L322.374 110.144H323.612L335.392 96.9763H344.42L329.929 113.111H328.328L322.395 119.471ZM315.353 129.757V86.0493H323.078V129.757H315.353ZM335.926 129.757L325.255 114.839L330.462 109.397L345.167 129.757H335.926Z" fill="white"/>
<path d="M291.523 129.757V96.9759H299.014V102.439H299.356C299.953 100.547 300.978 99.0887 302.429 98.0643C303.895 97.0257 305.566 96.5063 307.444 96.5063C307.871 96.5063 308.348 96.5277 308.874 96.5704C309.415 96.5988 309.863 96.6486 310.219 96.7198V103.827C309.892 103.713 309.372 103.613 308.661 103.528C307.964 103.428 307.288 103.378 306.633 103.378C305.225 103.378 303.959 103.684 302.835 104.296C301.725 104.894 300.85 105.726 300.21 106.793C299.569 107.86 299.249 109.091 299.249 110.485V129.757H291.523Z" fill="white"/>
<path d="M269.258 130.397C266.057 130.397 263.283 129.693 260.935 128.284C258.587 126.876 256.766 124.905 255.472 122.372C254.191 119.84 253.551 116.881 253.551 113.494C253.551 110.108 254.191 107.142 255.472 104.595C256.766 102.048 258.587 100.07 260.935 98.6617C263.283 97.2531 266.057 96.5488 269.258 96.5488C272.46 96.5488 275.234 97.2531 277.582 98.6617C279.929 100.07 281.743 102.048 283.024 104.595C284.318 107.142 284.966 110.108 284.966 113.494C284.966 116.881 284.318 119.84 283.024 122.372C281.743 124.905 279.929 126.876 277.582 128.284C275.234 129.693 272.46 130.397 269.258 130.397ZM269.301 124.208C271.037 124.208 272.488 123.731 273.655 122.778C274.821 121.81 275.689 120.516 276.258 118.894C276.842 117.272 277.133 115.465 277.133 113.473C277.133 111.467 276.842 109.653 276.258 108.031C275.689 106.395 274.821 105.093 273.655 104.125C272.488 103.158 271.037 102.674 269.301 102.674C267.523 102.674 266.043 103.158 264.862 104.125C263.695 105.093 262.82 106.395 262.237 108.031C261.668 109.653 261.383 111.467 261.383 113.473C261.383 115.465 261.668 117.272 262.237 118.894C262.82 120.516 263.695 121.81 264.862 122.778C266.043 123.731 267.523 124.208 269.301 124.208Z" fill="white"/>
<path d="M207.336 129.757L195 86.0493H203.515L211.39 118.169H211.796L220.205 86.0493H227.952L236.382 118.19H236.766L244.641 86.0493H253.156L240.821 129.757H233.01L224.26 99.0892H223.918L215.147 129.757H207.336Z" fill="white"/>
<path d="M672.05 175.02C670.657 175.02 669.458 174.788 668.453 174.324C667.466 173.86 666.702 173.192 666.161 172.322C665.619 171.452 665.339 170.417 665.319 169.218H667.93C667.93 170.282 668.288 171.123 669.004 171.742C669.739 172.361 670.754 172.67 672.05 172.67C673.268 172.67 674.216 172.37 674.893 171.771C675.589 171.171 675.938 170.34 675.938 169.276C675.938 168.425 675.705 167.68 675.241 167.042C674.796 166.404 674.149 165.959 673.298 165.707L670.425 164.808C668.975 164.363 667.853 163.619 667.06 162.574C666.286 161.53 665.9 160.302 665.9 158.89C665.9 157.749 666.151 156.762 666.654 155.93C667.176 155.079 667.901 154.422 668.83 153.958C669.758 153.474 670.851 153.232 672.108 153.232C673.965 153.232 675.454 153.755 676.576 154.799C677.698 155.824 678.268 157.197 678.287 158.919H675.676C675.676 157.874 675.357 157.062 674.719 156.482C674.1 155.882 673.22 155.582 672.079 155.582C670.957 155.582 670.077 155.853 669.439 156.395C668.82 156.936 668.511 157.691 668.511 158.658C668.511 159.528 668.743 160.282 669.207 160.92C669.671 161.559 670.338 162.013 671.209 162.284L674.11 163.212C675.522 163.657 676.615 164.412 677.388 165.475C678.162 166.539 678.549 167.787 678.549 169.218C678.549 170.378 678.278 171.394 677.736 172.264C677.195 173.134 676.431 173.811 675.444 174.295C674.477 174.778 673.346 175.02 672.05 175.02Z" fill="white"/>
<path d="M648.735 174.73V153.551H660.92V155.93H651.317V162.487H659.905V164.837H651.317V172.351H660.92V174.73H648.735Z" fill="white"/>
<path d="M631.05 174.73V153.551H634.531L641.001 171.683C640.962 171.2 640.914 170.61 640.856 169.914C640.817 169.198 640.778 168.454 640.74 167.68C640.72 166.887 640.711 166.142 640.711 165.446V153.551H643.235V174.73H639.753L633.313 156.597C633.351 157.062 633.39 157.652 633.429 158.367C633.467 159.063 633.496 159.808 633.516 160.601C633.554 161.375 633.574 162.119 633.574 162.835V174.73H631.05Z" fill="white"/>
<path d="M614.089 174.73V172.351H618.412V155.93H614.089V153.551H625.403V155.93H621.081V172.351H625.403V174.73H614.089Z" fill="white"/>
<path d="M596.347 174.73V153.551H598.958V162.603H605.746V153.551H608.358V174.73H605.746V164.982H598.958V174.73H596.347Z" fill="white"/>
<path d="M585.071 175.02C583.795 175.02 582.683 174.778 581.735 174.295C580.806 173.811 580.081 173.115 579.559 172.206C579.056 171.277 578.805 170.185 578.805 168.927V159.354C578.805 158.077 579.056 156.984 579.559 156.075C580.081 155.166 580.806 154.47 581.735 153.987C582.683 153.503 583.795 153.261 585.071 153.261C586.348 153.261 587.45 153.513 588.378 154.016C589.307 154.499 590.022 155.195 590.525 156.104C591.028 157.013 591.28 158.096 591.28 159.354H588.669C588.669 158.155 588.349 157.236 587.711 156.598C587.092 155.94 586.212 155.611 585.071 155.611C583.93 155.611 583.031 155.93 582.373 156.569C581.735 157.207 581.416 158.125 581.416 159.325V168.927C581.416 170.127 581.735 171.055 582.373 171.713C583.031 172.351 583.93 172.67 585.071 172.67C586.212 172.67 587.092 172.351 587.711 171.713C588.349 171.055 588.669 170.127 588.669 168.927H591.28C591.28 170.165 591.028 171.248 590.525 172.177C590.022 173.086 589.307 173.792 588.378 174.295C587.45 174.778 586.348 175.02 585.071 175.02Z" fill="white"/>
<path d="M560.308 174.73L565.82 153.551H569.33L574.813 174.73H572.173L570.781 169.101H564.369L562.977 174.73H560.308ZM564.891 166.897H570.23L568.605 160.369C568.295 159.131 568.054 158.096 567.88 157.265C567.706 156.433 567.599 155.892 567.561 155.64C567.522 155.892 567.415 156.433 567.241 157.265C567.067 158.096 566.826 159.121 566.516 160.34L564.891 166.897Z" fill="white"/>
<path d="M543.665 174.73V153.551H547.088L549.293 160.398C549.506 161.017 549.699 161.636 549.874 162.255C550.048 162.854 550.173 163.318 550.251 163.647C550.347 163.318 550.473 162.854 550.628 162.255C550.783 161.636 550.957 161.007 551.15 160.369L553.239 153.551H556.662V174.73H554.109V167.042C554.109 166.191 554.138 165.224 554.196 164.14C554.254 163.057 554.332 161.955 554.428 160.833C554.525 159.692 554.622 158.609 554.718 157.584C554.834 156.539 554.931 155.63 555.009 154.857L551.585 165.446H548.829L545.377 154.857C545.473 155.611 545.57 156.491 545.667 157.497C545.764 158.483 545.851 159.537 545.928 160.659C546.005 161.762 546.073 162.864 546.131 163.966C546.189 165.069 546.218 166.094 546.218 167.042V174.73H543.665Z" fill="white"/>
<path d="M515.49 175.02C514.098 175.02 512.899 174.788 511.893 174.324C510.907 173.86 510.143 173.192 509.601 172.322C509.06 171.452 508.779 170.417 508.76 169.218H511.371C511.371 170.282 511.729 171.123 512.444 171.742C513.179 172.361 514.195 172.67 515.49 172.67C516.709 172.67 517.657 172.37 518.334 171.771C519.03 171.171 519.378 170.34 519.378 169.276C519.378 168.425 519.146 167.68 518.682 167.042C518.237 166.404 517.589 165.959 516.738 165.707L513.866 164.808C512.415 164.363 511.293 163.619 510.5 162.574C509.727 161.53 509.34 160.302 509.34 158.89C509.34 157.749 509.591 156.762 510.094 155.93C510.617 155.079 511.342 154.422 512.27 153.958C513.199 153.474 514.291 153.232 515.548 153.232C517.405 153.232 518.894 153.755 520.016 154.799C521.138 155.824 521.709 157.197 521.728 158.919H519.117C519.117 157.874 518.798 157.062 518.159 156.482C517.541 155.882 516.661 155.582 515.519 155.582C514.398 155.582 513.518 155.853 512.879 156.395C512.26 156.936 511.951 157.691 511.951 158.658C511.951 159.528 512.183 160.282 512.647 160.92C513.111 161.559 513.779 162.013 514.649 162.284L517.55 163.212C518.962 163.657 520.055 164.412 520.829 165.475C521.602 166.539 521.989 167.787 521.989 169.218C521.989 170.378 521.718 171.394 521.177 172.264C520.635 173.134 519.871 173.811 518.885 174.295C517.918 174.778 516.786 175.02 515.49 175.02Z" fill="white"/>
<path d="M498.094 175.02C496.701 175.02 495.502 174.788 494.497 174.324C493.51 173.86 492.746 173.192 492.205 172.322C491.663 171.452 491.383 170.417 491.363 169.218H493.974C493.974 170.282 494.332 171.123 495.048 171.742C495.783 172.361 496.798 172.67 498.094 172.67C499.312 172.67 500.26 172.37 500.937 171.771C501.633 171.171 501.981 170.34 501.981 169.276C501.981 168.425 501.749 167.68 501.285 167.042C500.84 166.404 500.192 165.959 499.341 165.707L496.469 164.808C495.019 164.363 493.897 163.619 493.104 162.574C492.33 161.53 491.944 160.302 491.944 158.89C491.944 157.749 492.195 156.762 492.698 155.93C493.22 155.079 493.945 154.422 494.874 153.958C495.802 153.474 496.895 153.232 498.152 153.232C500.009 153.232 501.498 153.755 502.62 154.799C503.742 155.824 504.312 157.197 504.331 158.919H501.72C501.72 157.874 501.401 157.062 500.763 156.482C500.144 155.882 499.264 155.582 498.123 155.582C497.001 155.582 496.121 155.853 495.483 156.395C494.864 156.936 494.555 157.691 494.555 158.658C494.555 159.528 494.787 160.282 495.251 160.92C495.715 161.559 496.382 162.013 497.253 162.284L500.154 163.212C501.566 163.657 502.658 164.412 503.432 165.475C504.206 166.539 504.593 167.787 504.593 169.218C504.593 170.378 504.322 171.394 503.78 172.264C503.239 173.134 502.475 173.811 501.488 174.295C500.521 174.778 499.39 175.02 498.094 175.02Z" fill="white"/>
<path d="M474.78 174.73V153.551H486.965V155.93H477.362V162.487H485.95V164.837H477.362V172.351H486.965V174.73H474.78Z" fill="white"/>
<path d="M457.094 174.73V153.551H460.575L467.045 171.683C467.006 171.2 466.958 170.61 466.9 169.914C466.861 169.198 466.822 168.454 466.784 167.68C466.764 166.887 466.755 166.142 466.755 165.446V153.551H469.279V174.73H465.797L459.357 156.597C459.395 157.062 459.434 157.652 459.473 158.367C459.511 159.063 459.54 159.808 459.56 160.601C459.598 161.375 459.618 162.119 459.618 162.835V174.73H457.094Z" fill="white"/>
<path d="M440.133 174.73V172.351H444.456V155.93H440.133V153.551H451.447V155.93H447.125V172.351H451.447V174.73H440.133Z" fill="white"/>
<path d="M428.512 175.02C427.119 175.02 425.92 174.788 424.915 174.324C423.928 173.86 423.164 173.192 422.623 172.322C422.081 171.452 421.801 170.417 421.781 169.218H424.392C424.392 170.282 424.75 171.123 425.466 171.742C426.201 172.361 427.216 172.67 428.512 172.67C429.73 172.67 430.678 172.37 431.355 171.771C432.051 171.171 432.399 170.34 432.399 169.276C432.399 168.425 432.167 167.68 431.703 167.042C431.258 166.404 430.61 165.959 429.759 165.707L426.887 164.808C425.437 164.363 424.315 163.619 423.522 162.574C422.748 161.53 422.361 160.302 422.361 158.89C422.361 157.749 422.613 156.762 423.116 155.93C423.638 155.079 424.363 154.422 425.292 153.958C426.22 153.474 427.313 153.232 428.57 153.232C430.427 153.232 431.916 153.755 433.038 154.799C434.16 155.824 434.73 157.197 434.749 158.919H432.138C432.138 157.874 431.819 157.062 431.181 156.482C430.562 155.882 429.682 155.582 428.541 155.582C427.419 155.582 426.539 155.853 425.901 156.395C425.282 156.936 424.973 157.691 424.973 158.658C424.973 159.528 425.205 160.282 425.669 160.92C426.133 161.559 426.8 162.013 427.671 162.284L430.572 163.212C431.984 163.657 433.076 164.412 433.85 165.475C434.624 166.539 435.011 167.787 435.011 169.218C435.011 170.378 434.74 171.394 434.198 172.264C433.657 173.134 432.893 173.811 431.906 174.295C430.939 174.778 429.808 175.02 428.512 175.02Z" fill="white"/>
<path d="M411 175.02C409.027 175.02 407.518 174.478 406.474 173.395C405.429 172.293 404.907 170.803 404.907 168.927V153.551H407.518V168.927C407.518 170.088 407.799 171.007 408.36 171.683C408.94 172.36 409.82 172.699 411 172.699C412.16 172.699 413.03 172.36 413.611 171.683C414.191 171.007 414.481 170.088 414.481 168.927V153.551H417.092V168.927C417.092 170.823 416.57 172.312 415.525 173.395C414.5 174.478 412.992 175.02 411 175.02Z" fill="white"/>
<path d="M387.6 174.73V153.551H393.605C395.539 153.551 397.048 154.035 398.131 155.002C399.233 155.969 399.784 157.313 399.784 159.034C399.784 160.002 399.581 160.843 399.175 161.558C398.769 162.274 398.189 162.825 397.435 163.212C396.7 163.599 395.81 163.783 394.765 163.763V163.328C395.887 163.309 396.854 163.522 397.667 163.966C398.498 164.411 399.137 165.05 399.581 165.881C400.046 166.713 400.278 167.699 400.278 168.84C400.278 170.039 400.026 171.084 399.523 171.974C399.02 172.863 398.305 173.55 397.377 174.033C396.448 174.498 395.336 174.73 394.04 174.73H387.6ZM390.153 172.38H393.75C394.969 172.38 395.926 172.061 396.622 171.422C397.338 170.765 397.696 169.875 397.696 168.753C397.696 167.593 397.338 166.655 396.622 165.939C395.926 165.204 394.969 164.837 393.75 164.837H390.153V172.38ZM390.153 162.574H393.576C394.698 162.574 395.578 162.274 396.216 161.675C396.874 161.075 397.202 160.263 397.202 159.238C397.202 158.212 396.883 157.4 396.245 156.801C395.607 156.201 394.727 155.901 393.605 155.901H390.153V162.574Z" fill="white"/>
<path d="M358.93 175.02C357.537 175.02 356.338 174.788 355.332 174.324C354.346 173.86 353.582 173.192 353.041 172.322C352.499 171.452 352.219 170.417 352.199 169.218H354.81C354.81 170.282 355.168 171.123 355.884 171.742C356.619 172.361 357.634 172.67 358.93 172.67C360.148 172.67 361.096 172.37 361.773 171.771C362.469 171.171 362.817 170.34 362.817 169.276C362.817 168.425 362.585 167.68 362.121 167.042C361.676 166.404 361.028 165.959 360.177 165.707L357.305 164.808C355.855 164.363 354.733 163.619 353.94 162.574C353.166 161.53 352.779 160.302 352.779 158.89C352.779 157.749 353.031 156.762 353.534 155.93C354.056 155.079 354.781 154.422 355.71 153.958C356.638 153.474 357.731 153.232 358.988 153.232C360.845 153.232 362.334 153.755 363.456 154.799C364.577 155.824 365.148 157.197 365.167 158.919H362.556C362.556 157.874 362.237 157.062 361.599 156.482C360.98 155.882 360.1 155.582 358.959 155.582C357.837 155.582 356.957 155.853 356.319 156.395C355.7 156.936 355.39 157.691 355.39 158.658C355.39 159.528 355.623 160.282 356.087 160.92C356.551 161.559 357.218 162.013 358.089 162.284L360.99 163.212C362.402 163.657 363.494 164.412 364.268 165.475C365.042 166.539 365.428 167.787 365.428 169.218C365.428 170.378 365.158 171.394 364.616 172.264C364.075 173.134 363.311 173.811 362.324 174.295C361.357 174.778 360.226 175.02 358.93 175.02Z" fill="white"/>
<path d="M341.417 175.02C339.444 175.02 337.935 174.478 336.891 173.395C335.846 172.293 335.324 170.803 335.324 168.927V153.551H337.935V168.927C337.935 170.088 338.216 171.007 338.777 171.683C339.357 172.36 340.237 172.699 341.417 172.699C342.577 172.699 343.447 172.36 344.028 171.683C344.608 171.007 344.898 170.088 344.898 168.927V153.551H347.509V168.927C347.509 170.823 346.987 172.312 345.942 173.395C344.917 174.478 343.409 175.02 341.417 175.02Z" fill="white"/>
<path d="M324.022 175.02C322.745 175.02 321.643 174.778 320.714 174.295C319.805 173.811 319.099 173.115 318.596 172.206C318.113 171.277 317.871 170.185 317.871 168.927V159.354C317.871 158.077 318.113 156.984 318.596 156.075C319.099 155.166 319.805 154.47 320.714 153.987C321.643 153.503 322.745 153.261 324.022 153.261C325.298 153.261 326.391 153.503 327.3 153.987C328.228 154.47 328.934 155.166 329.418 156.075C329.921 156.984 330.172 158.067 330.172 159.325V168.927C330.172 170.185 329.921 171.277 329.418 172.206C328.934 173.115 328.228 173.811 327.3 174.295C326.391 174.778 325.298 175.02 324.022 175.02ZM324.022 172.67C325.163 172.67 326.033 172.351 326.633 171.713C327.251 171.055 327.561 170.127 327.561 168.927V159.354C327.561 158.155 327.251 157.236 326.633 156.598C326.033 155.94 325.163 155.611 324.022 155.611C322.9 155.611 322.029 155.94 321.41 156.598C320.792 157.236 320.482 158.155 320.482 159.354V168.927C320.482 170.127 320.792 171.055 321.41 171.713C322.029 172.351 322.9 172.67 324.022 172.67Z" fill="white"/>
<path d="M300.127 174.73V153.551H303.55L305.755 160.398C305.968 161.017 306.161 161.636 306.335 162.255C306.51 162.854 306.635 163.318 306.713 163.647C306.809 163.318 306.935 162.854 307.09 162.255C307.244 161.636 307.419 161.007 307.612 160.369L309.701 153.551H313.124V174.73H310.571V167.042C310.571 166.191 310.6 165.224 310.658 164.14C310.716 163.057 310.794 161.955 310.89 160.833C310.987 159.692 311.084 158.609 311.18 157.584C311.296 156.539 311.393 155.63 311.47 154.857L308.047 165.446H305.291L301.839 154.857C301.935 155.611 302.032 156.491 302.129 157.497C302.225 158.483 302.312 159.537 302.39 160.659C302.467 161.762 302.535 162.864 302.593 163.966C302.651 165.069 302.68 166.094 302.68 167.042V174.73H300.127Z" fill="white"/>
<path d="M289.231 175.02C287.954 175.02 286.852 174.778 285.923 174.295C285.014 173.811 284.308 173.115 283.805 172.206C283.322 171.277 283.08 170.185 283.08 168.927V159.354C283.08 158.077 283.322 156.984 283.805 156.075C284.308 155.166 285.014 154.47 285.923 153.987C286.852 153.503 287.954 153.261 289.231 153.261C290.507 153.261 291.6 153.503 292.509 153.987C293.437 154.47 294.143 155.166 294.627 156.075C295.13 156.984 295.381 158.067 295.381 159.325V168.927C295.381 170.185 295.13 171.277 294.627 172.206C294.143 173.115 293.437 173.811 292.509 174.295C291.6 174.778 290.507 175.02 289.231 175.02ZM289.231 172.67C290.372 172.67 291.242 172.351 291.842 171.713C292.46 171.055 292.77 170.127 292.77 168.927V159.354C292.77 158.155 292.46 157.236 291.842 156.598C291.242 155.94 290.372 155.611 289.231 155.611C288.109 155.611 287.238 155.94 286.619 156.598C286.001 157.236 285.691 158.155 285.691 159.354V168.927C285.691 170.127 286.001 171.055 286.619 171.713C287.238 172.351 288.109 172.67 289.231 172.67Z" fill="white"/>
<path d="M265.742 174.73V153.551H269.224L275.693 171.683C275.654 171.2 275.606 170.61 275.548 169.914C275.509 169.198 275.471 168.454 275.432 167.68C275.413 166.887 275.403 166.142 275.403 165.446V153.551H277.927V174.73H274.446L268.005 156.597C268.044 157.062 268.082 157.652 268.121 158.367C268.16 159.063 268.189 159.808 268.208 160.601C268.247 161.375 268.266 162.119 268.266 162.835V174.73H265.742Z" fill="white"/>
<path d="M254.44 175.02C253.163 175.02 252.061 174.778 251.132 174.295C250.223 173.811 249.517 173.115 249.014 172.206C248.531 171.277 248.289 170.185 248.289 168.927V159.354C248.289 158.077 248.531 156.984 249.014 156.075C249.517 155.166 250.223 154.47 251.132 153.987C252.061 153.503 253.163 153.261 254.44 153.261C255.716 153.261 256.809 153.503 257.718 153.987C258.646 154.47 259.352 155.166 259.836 156.075C260.339 156.984 260.59 158.067 260.59 159.325V168.927C260.59 170.185 260.339 171.277 259.836 172.206C259.352 173.115 258.646 173.811 257.718 174.295C256.809 174.778 255.716 175.02 254.44 175.02ZM254.44 172.67C255.581 172.67 256.451 172.351 257.051 171.713C257.669 171.055 257.979 170.127 257.979 168.927V159.354C257.979 158.155 257.669 157.236 257.051 156.598C256.451 155.94 255.581 155.611 254.44 155.611C253.318 155.611 252.447 155.94 251.828 156.598C251.21 157.236 250.9 158.155 250.9 159.354V168.927C250.9 170.127 251.21 171.055 251.828 171.713C252.447 172.351 253.318 172.67 254.44 172.67Z" fill="white"/>
<path d="M235.738 174.729V155.901H229.936V153.522H244.151V155.901H238.349V174.729H235.738Z" fill="white"/>
<path d="M219.648 175.02C217.675 175.02 216.167 174.478 215.122 173.395C214.078 172.293 213.556 170.803 213.556 168.927V153.551H216.167V168.927C216.167 170.088 216.447 171.007 217.008 171.683C217.588 172.36 218.468 172.699 219.648 172.699C220.809 172.699 221.679 172.36 222.259 171.683C222.839 171.007 223.129 170.088 223.129 168.927V153.551H225.741V168.927C225.741 170.823 225.218 172.312 224.174 173.395C223.149 174.478 221.64 175.02 219.648 175.02Z" fill="white"/>
<path d="M195 174.73L200.512 153.551H204.023L209.506 174.73H206.866L205.473 169.101H199.062L197.669 174.73H195ZM199.584 166.897H204.922L203.297 160.369C202.988 159.131 202.746 158.096 202.572 157.265C202.398 156.433 202.292 155.892 202.253 155.64C202.214 155.892 202.108 156.433 201.934 157.265C201.76 158.096 201.518 159.121 201.208 160.34L199.584 166.897Z" fill="white"/>
</svg>
