<svg width="484" height="22" viewBox="0 0 484 22" fill="none" xmlns="http://www.w3.org/2000/svg">
<g clip-path="url(#clip0_154_22110)">
<path d="M477.05 21.7877C475.657 21.7877 474.458 21.5556 473.453 21.0914C472.466 20.6272 471.702 19.9599 471.161 19.0896C470.619 18.2193 470.339 17.1845 470.319 15.9854H472.93C472.93 17.0491 473.288 17.8905 474.004 18.5094C474.739 19.1283 475.754 19.4377 477.05 19.4377C478.268 19.4377 479.216 19.1379 479.893 18.5384C480.589 17.9388 480.938 17.1071 480.938 16.0434C480.938 15.1924 480.705 14.4477 480.241 13.8095C479.796 13.1712 479.149 12.7264 478.298 12.475L475.425 11.5756C473.975 11.1308 472.853 10.3861 472.06 9.34172C471.286 8.2973 470.9 7.06915 470.9 5.65725C470.9 4.51613 471.151 3.52974 471.654 2.69808C472.176 1.84707 472.901 1.18947 473.83 0.725289C474.758 0.241763 475.851 0 477.108 0C478.965 0 480.454 0.522208 481.576 1.56662C482.698 2.5917 483.268 3.96491 483.287 5.68626H480.676C480.676 4.64185 480.357 3.82952 479.719 3.24929C479.1 2.64972 478.22 2.34994 477.079 2.34994C475.957 2.34994 475.077 2.62071 474.439 3.16226C473.82 3.70381 473.511 4.45811 473.511 5.42516C473.511 6.29551 473.743 7.04981 474.207 7.68806C474.671 8.32631 475.338 8.78083 476.209 9.0516L479.11 9.97997C480.522 10.4248 481.615 11.1791 482.388 12.2429C483.162 13.3066 483.549 14.5541 483.549 15.9854C483.549 17.1458 483.278 18.1612 482.736 19.0316C482.195 19.9019 481.431 20.5789 480.444 21.0624C479.477 21.5459 478.346 21.7877 477.05 21.7877Z" fill="black"/>
<path d="M453.735 21.4978V0.319336H465.92V2.69828H456.317V9.25489H464.905V11.6048H456.317V19.1188H465.92V21.4978H453.735Z" fill="black"/>
<path d="M436.05 21.4978V0.319336H439.531L446.001 18.4516C445.962 17.968 445.914 17.3781 445.856 16.6819C445.817 15.9662 445.778 15.2216 445.74 14.448C445.72 13.655 445.711 12.9104 445.711 12.2141V0.319336H448.235V21.4978H444.753L438.313 3.36555C438.351 3.82973 438.39 4.41964 438.429 5.13525C438.467 5.83153 438.496 6.57616 438.516 7.36914C438.554 8.14278 438.574 8.88741 438.574 9.60303V21.4978H436.05Z" fill="black"/>
<path d="M419.089 21.4978V19.1188H423.412V2.69828H419.089V0.319336H430.403V2.69828H426.081V19.1188H430.403V21.4978H419.089Z" fill="black"/>
<path d="M401.347 21.4978V0.319336H403.958V9.37094H410.746V0.319336H413.358V21.4978H410.746V11.7499H403.958V21.4978H401.347Z" fill="black"/>
<path d="M390.071 21.788C388.795 21.788 387.683 21.5462 386.735 21.0627C385.806 20.5792 385.081 19.8829 384.559 18.9738C384.056 18.0455 383.805 16.9527 383.805 15.6955V6.12172C383.805 4.84521 384.056 3.75245 384.559 2.84342C385.081 1.93439 385.806 1.23811 386.735 0.754584C387.683 0.271059 388.795 0.0292969 390.071 0.0292969C391.348 0.0292969 392.45 0.28073 393.378 0.783596C394.307 1.26712 395.022 1.9634 395.525 2.87243C396.028 3.78146 396.28 4.86456 396.28 6.12172H393.669C393.669 4.92258 393.349 4.00388 392.711 3.36563C392.092 2.70803 391.212 2.37923 390.071 2.37923C388.93 2.37923 388.031 2.69836 387.373 3.33661C386.735 3.97487 386.416 4.89357 386.416 6.09271V15.6955C386.416 16.8947 386.735 17.8231 387.373 18.4807C388.031 19.1189 388.93 19.438 390.071 19.438C391.212 19.438 392.092 19.1189 392.711 18.4807C393.349 17.8231 393.669 16.8947 393.669 15.6955H396.28C396.28 16.9334 396.028 18.0165 395.525 18.9448C395.022 19.8539 394.307 20.5598 393.378 21.0627C392.45 21.5462 391.348 21.788 390.071 21.788Z" fill="black"/>
<path d="M365.308 21.4978L370.82 0.319336H374.33L379.813 21.4978H377.173L375.781 15.8695H369.369L367.977 21.4978H365.308ZM369.891 13.6647H375.23L373.605 7.13705C373.295 5.89922 373.054 4.86448 372.88 4.03281C372.706 3.20115 372.599 2.6596 372.561 2.40817C372.522 2.6596 372.415 3.20115 372.241 4.03281C372.067 4.86448 371.826 5.88955 371.516 7.10804L369.891 13.6647Z" fill="black"/>
<path d="M348.665 21.4978V0.319336H352.088L354.293 7.16606C354.506 7.78498 354.699 8.40389 354.874 9.0228C355.048 9.62237 355.173 10.0866 355.251 10.4154C355.347 10.0866 355.473 9.62237 355.628 9.0228C355.783 8.40389 355.957 7.7753 356.15 7.13705L358.239 0.319336H361.662V21.4978H359.109V13.8097C359.109 12.9587 359.138 11.9917 359.196 10.9086C359.254 9.82545 359.332 8.72301 359.428 7.60123C359.525 6.46011 359.622 5.37702 359.718 4.35194C359.834 3.30753 359.931 2.3985 360.009 1.62486L356.585 12.2141H353.829L350.377 1.62486C350.473 2.37916 350.57 3.25917 350.667 4.26491C350.764 5.2513 350.851 6.30538 350.928 7.42717C351.005 8.5296 351.073 9.63204 351.131 10.7345C351.189 11.8369 351.218 12.862 351.218 13.8097V21.4978H348.665Z" fill="black"/>
<path d="M320.49 21.7877C319.098 21.7877 317.899 21.5556 316.893 21.0914C315.907 20.6272 315.143 19.9599 314.601 19.0896C314.06 18.2193 313.779 17.1845 313.76 15.9854H316.371C316.371 17.0491 316.729 17.8905 317.444 18.5094C318.179 19.1283 319.195 19.4377 320.49 19.4377C321.709 19.4377 322.657 19.1379 323.334 18.5384C324.03 17.9388 324.378 17.1071 324.378 16.0434C324.378 15.1924 324.146 14.4477 323.682 13.8095C323.237 13.1712 322.589 12.7264 321.738 12.475L318.866 11.5756C317.415 11.1308 316.293 10.3861 315.5 9.34172C314.727 8.2973 314.34 7.06915 314.34 5.65725C314.34 4.51613 314.591 3.52974 315.094 2.69808C315.617 1.84707 316.342 1.18947 317.27 0.725289C318.199 0.241763 319.291 0 320.548 0C322.405 0 323.894 0.522208 325.016 1.56662C326.138 2.5917 326.709 3.96491 326.728 5.68626H324.117C324.117 4.64185 323.798 3.82952 323.159 3.24929C322.541 2.64972 321.661 2.34994 320.519 2.34994C319.398 2.34994 318.518 2.62071 317.879 3.16226C317.26 3.70381 316.951 4.45811 316.951 5.42516C316.951 6.29551 317.183 7.04981 317.647 7.68806C318.111 8.32631 318.779 8.78083 319.649 9.0516L322.55 9.97997C323.962 10.4248 325.055 11.1791 325.829 12.2429C326.602 13.3066 326.989 14.5541 326.989 15.9854C326.989 17.1458 326.718 18.1612 326.177 19.0316C325.635 19.9019 324.871 20.5789 323.885 21.0624C322.918 21.5459 321.786 21.7877 320.49 21.7877Z" fill="black"/>
<path d="M303.094 21.7877C301.701 21.7877 300.502 21.5556 299.497 21.0914C298.51 20.6272 297.746 19.9599 297.205 19.0896C296.663 18.2193 296.383 17.1845 296.363 15.9854H298.974C298.974 17.0491 299.332 17.8905 300.048 18.5094C300.783 19.1283 301.798 19.4377 303.094 19.4377C304.312 19.4377 305.26 19.1379 305.937 18.5384C306.633 17.9388 306.981 17.1071 306.981 16.0434C306.981 15.1924 306.749 14.4477 306.285 13.8095C305.84 13.1712 305.192 12.7264 304.341 12.475L301.469 11.5756C300.019 11.1308 298.897 10.3861 298.104 9.34172C297.33 8.2973 296.944 7.06915 296.944 5.65725C296.944 4.51613 297.195 3.52974 297.698 2.69808C298.22 1.84707 298.945 1.18947 299.874 0.725289C300.802 0.241763 301.895 0 303.152 0C305.009 0 306.498 0.522208 307.62 1.56662C308.742 2.5917 309.312 3.96491 309.331 5.68626H306.72C306.72 4.64185 306.401 3.82952 305.763 3.24929C305.144 2.64972 304.264 2.34994 303.123 2.34994C302.001 2.34994 301.121 2.62071 300.483 3.16226C299.864 3.70381 299.555 4.45811 299.555 5.42516C299.555 6.29551 299.787 7.04981 300.251 7.68806C300.715 8.32631 301.382 8.78083 302.253 9.0516L305.154 9.97997C306.566 10.4248 307.658 11.1791 308.432 12.2429C309.206 13.3066 309.593 14.5541 309.593 15.9854C309.593 17.1458 309.322 18.1612 308.78 19.0316C308.239 19.9019 307.475 20.5789 306.488 21.0624C305.521 21.5459 304.39 21.7877 303.094 21.7877Z" fill="black"/>
<path d="M279.78 21.4978V0.319336H291.965V2.69828H282.362V9.25489H290.95V11.6048H282.362V19.1188H291.965V21.4978H279.78Z" fill="black"/>
<path d="M262.094 21.4978V0.319336H265.575L272.045 18.4516C272.006 17.968 271.958 17.3781 271.9 16.6819C271.861 15.9662 271.822 15.2216 271.784 14.448C271.764 13.655 271.755 12.9104 271.755 12.2141V0.319336H274.279V21.4978H270.797L264.357 3.36555C264.395 3.82973 264.434 4.41964 264.473 5.13525C264.511 5.83153 264.54 6.57616 264.56 7.36914C264.598 8.14278 264.618 8.88741 264.618 9.60303V21.4978H262.094Z" fill="black"/>
<path d="M245.133 21.4978V19.1188H249.456V2.69828H245.133V0.319336H256.447V2.69828H252.125V19.1188H256.447V21.4978H245.133Z" fill="black"/>
<path d="M233.512 21.7877C232.119 21.7877 230.92 21.5556 229.915 21.0914C228.928 20.6272 228.164 19.9599 227.623 19.0896C227.081 18.2193 226.801 17.1845 226.781 15.9854H229.392C229.392 17.0491 229.75 17.8905 230.466 18.5094C231.201 19.1283 232.216 19.4377 233.512 19.4377C234.73 19.4377 235.678 19.1379 236.355 18.5384C237.051 17.9388 237.399 17.1071 237.399 16.0434C237.399 15.1924 237.167 14.4477 236.703 13.8095C236.258 13.1712 235.61 12.7264 234.759 12.475L231.887 11.5756C230.437 11.1308 229.315 10.3861 228.522 9.34172C227.748 8.2973 227.361 7.06915 227.361 5.65725C227.361 4.51613 227.613 3.52974 228.116 2.69808C228.638 1.84707 229.363 1.18947 230.292 0.725289C231.22 0.241763 232.313 0 233.57 0C235.427 0 236.916 0.522208 238.038 1.56662C239.16 2.5917 239.73 3.96491 239.749 5.68626H237.138C237.138 4.64185 236.819 3.82952 236.181 3.24929C235.562 2.64972 234.682 2.34994 233.541 2.34994C232.419 2.34994 231.539 2.62071 230.901 3.16226C230.282 3.70381 229.973 4.45811 229.973 5.42516C229.973 6.29551 230.205 7.04981 230.669 7.68806C231.133 8.32631 231.8 8.78083 232.671 9.0516L235.572 9.97997C236.984 10.4248 238.076 11.1791 238.85 12.2429C239.624 13.3066 240.011 14.5541 240.011 15.9854C240.011 17.1458 239.74 18.1612 239.198 19.0316C238.657 19.9019 237.893 20.5789 236.906 21.0624C235.939 21.5459 234.808 21.7877 233.512 21.7877Z" fill="black"/>
<path d="M216 21.7879C214.027 21.7879 212.518 21.2463 211.474 20.1632C210.429 19.0608 209.907 17.5715 209.907 15.6955V0.319336H212.518V15.6955C212.518 16.8559 212.799 17.7746 213.36 18.4516C213.94 19.1285 214.82 19.467 216 19.467C217.16 19.467 218.03 19.1285 218.611 18.4516C219.191 17.7746 219.481 16.8559 219.481 15.6955V0.319336H222.092V15.6955C222.092 17.5909 221.57 19.0801 220.525 20.1632C219.5 21.2463 217.992 21.7879 216 21.7879Z" fill="black"/>
<path d="M192.6 21.4978V0.319336H198.605C200.539 0.319336 202.048 0.802861 203.131 1.76991C204.233 2.73697 204.784 4.08117 204.784 5.80252C204.784 6.76957 204.581 7.6109 204.175 8.32652C203.769 9.04214 203.189 9.59336 202.435 9.98018C201.7 10.367 200.81 10.5508 199.765 10.5314V10.0962C200.887 10.0769 201.854 10.2896 202.667 10.7345C203.498 11.1793 204.137 11.8176 204.581 12.6493C205.046 13.4809 205.278 14.4673 205.278 15.6084C205.278 16.8076 205.026 17.852 204.523 18.7417C204.02 19.6314 203.305 20.318 202.377 20.8015C201.448 21.2657 200.336 21.4978 199.04 21.4978H192.6ZM195.153 19.1478H198.75C199.969 19.1478 200.926 18.8287 201.622 18.1905C202.338 17.5329 202.696 16.6432 202.696 15.5214C202.696 14.3609 202.338 13.4229 201.622 12.7073C200.926 11.9723 199.969 11.6048 198.75 11.6048H195.153V19.1478ZM195.153 9.34193H198.576C199.698 9.34193 200.578 9.04214 201.216 8.44257C201.874 7.843 202.202 7.03067 202.202 6.0056C202.202 4.98053 201.883 4.1682 201.245 3.56863C200.607 2.96906 199.727 2.66927 198.605 2.66927H195.153V9.34193Z" fill="black"/>
<path d="M163.93 21.7877C162.537 21.7877 161.338 21.5556 160.332 21.0914C159.346 20.6272 158.582 19.9599 158.041 19.0896C157.499 18.2193 157.219 17.1845 157.199 15.9854H159.81C159.81 17.0491 160.168 17.8905 160.884 18.5094C161.619 19.1283 162.634 19.4377 163.93 19.4377C165.148 19.4377 166.096 19.1379 166.773 18.5384C167.469 17.9388 167.817 17.1071 167.817 16.0434C167.817 15.1924 167.585 14.4477 167.121 13.8095C166.676 13.1712 166.028 12.7264 165.177 12.475L162.305 11.5756C160.855 11.1308 159.733 10.3861 158.94 9.34172C158.166 8.2973 157.779 7.06915 157.779 5.65725C157.779 4.51613 158.031 3.52974 158.534 2.69808C159.056 1.84707 159.781 1.18947 160.71 0.725289C161.638 0.241763 162.731 0 163.988 0C165.845 0 167.334 0.522208 168.456 1.56662C169.577 2.5917 170.148 3.96491 170.167 5.68626H167.556C167.556 4.64185 167.237 3.82952 166.599 3.24929C165.98 2.64972 165.1 2.34994 163.959 2.34994C162.837 2.34994 161.957 2.62071 161.319 3.16226C160.7 3.70381 160.39 4.45811 160.39 5.42516C160.39 6.29551 160.623 7.04981 161.087 7.68806C161.551 8.32631 162.218 8.78083 163.089 9.0516L165.99 9.97997C167.402 10.4248 168.494 11.1791 169.268 12.2429C170.042 13.3066 170.428 14.5541 170.428 15.9854C170.428 17.1458 170.158 18.1612 169.616 19.0316C169.075 19.9019 168.311 20.5789 167.324 21.0624C166.357 21.5459 165.226 21.7877 163.93 21.7877Z" fill="black"/>
<path d="M146.417 21.7879C144.444 21.7879 142.935 21.2463 141.891 20.1632C140.846 19.0608 140.324 17.5715 140.324 15.6955V0.319336H142.935V15.6955C142.935 16.8559 143.216 17.7746 143.777 18.4516C144.357 19.1285 145.237 19.467 146.417 19.467C147.577 19.467 148.447 19.1285 149.028 18.4516C149.608 17.7746 149.898 16.8559 149.898 15.6955V0.319336H152.509V15.6955C152.509 17.5909 151.987 19.0801 150.942 20.1632C149.917 21.2463 148.409 21.7879 146.417 21.7879Z" fill="black"/>
<path d="M129.022 21.788C127.745 21.788 126.643 21.5462 125.714 21.0627C124.805 20.5792 124.099 19.8829 123.596 18.9738C123.113 18.0455 122.871 16.9527 122.871 15.6955V6.12172C122.871 4.84521 123.113 3.75245 123.596 2.84342C124.099 1.93439 124.805 1.23811 125.714 0.754584C126.643 0.271059 127.745 0.0292969 129.022 0.0292969C130.298 0.0292969 131.391 0.271059 132.3 0.754584C133.228 1.23811 133.934 1.93439 134.418 2.84342C134.921 3.75245 135.172 4.83554 135.172 6.09271V15.6955C135.172 16.9527 134.921 18.0455 134.418 18.9738C133.934 19.8829 133.228 20.5792 132.3 21.0627C131.391 21.5462 130.298 21.788 129.022 21.788ZM129.022 19.438C130.163 19.438 131.033 19.1189 131.633 18.4807C132.251 17.8231 132.561 16.8947 132.561 15.6955V6.12172C132.561 4.92258 132.251 4.00388 131.633 3.36563C131.033 2.70803 130.163 2.37923 129.022 2.37923C127.9 2.37923 127.029 2.70803 126.41 3.36563C125.792 4.00388 125.482 4.92258 125.482 6.12172V15.6955C125.482 16.8947 125.792 17.8231 126.41 18.4807C127.029 19.1189 127.9 19.438 129.022 19.438Z" fill="black"/>
<path d="M105.127 21.4978V0.319336H108.55L110.755 7.16606C110.968 7.78498 111.161 8.40389 111.335 9.0228C111.51 9.62237 111.635 10.0866 111.713 10.4154C111.809 10.0866 111.935 9.62237 112.09 9.0228C112.244 8.40389 112.419 7.7753 112.612 7.13705L114.701 0.319336H118.124V21.4978H115.571V13.8097C115.571 12.9587 115.6 11.9917 115.658 10.9086C115.716 9.82545 115.794 8.72301 115.89 7.60123C115.987 6.46011 116.084 5.37702 116.18 4.35194C116.296 3.30753 116.393 2.3985 116.47 1.62486L113.047 12.2141H110.291L106.839 1.62486C106.935 2.37916 107.032 3.25917 107.129 4.26491C107.225 5.2513 107.312 6.30538 107.39 7.42717C107.467 8.5296 107.535 9.63204 107.593 10.7345C107.651 11.8369 107.68 12.862 107.68 13.8097V21.4978H105.127Z" fill="black"/>
<path d="M94.2305 21.788C92.954 21.788 91.8516 21.5462 90.9232 21.0627C90.0142 20.5792 89.3082 19.8829 88.8054 18.9738C88.3218 18.0455 88.0801 16.9527 88.0801 15.6955V6.12172C88.0801 4.84521 88.3218 3.75245 88.8054 2.84342C89.3082 1.93439 90.0142 1.23811 90.9232 0.754584C91.8516 0.271059 92.954 0.0292969 94.2305 0.0292969C95.507 0.0292969 96.5998 0.271059 97.5088 0.754584C98.4372 1.23811 99.1432 1.93439 99.6267 2.84342C100.13 3.75245 100.381 4.83554 100.381 6.09271V15.6955C100.381 16.9527 100.13 18.0455 99.6267 18.9738C99.1432 19.8829 98.4372 20.5792 97.5088 21.0627C96.5998 21.5462 95.507 21.788 94.2305 21.788ZM94.2305 19.438C95.3716 19.438 96.242 19.1189 96.8416 18.4807C97.4605 17.8231 97.7699 16.8947 97.7699 15.6955V6.12172C97.7699 4.92258 97.4605 4.00388 96.8416 3.36563C96.242 2.70803 95.3716 2.37923 94.2305 2.37923C93.1087 2.37923 92.2384 2.70803 91.6195 3.36563C91.0006 4.00388 90.6911 4.92258 90.6911 6.12172V15.6955C90.6911 16.8947 91.0006 17.8231 91.6195 18.4807C92.2384 19.1189 93.1087 19.438 94.2305 19.438Z" fill="black"/>
<path d="M70.7422 21.4978V0.319336H74.2236L80.6931 18.4516C80.6545 17.968 80.6061 17.3781 80.5481 16.6819C80.5094 15.9662 80.4707 15.2216 80.432 14.448C80.4127 13.655 80.403 12.9104 80.403 12.2141V0.319336H82.927V21.4978H79.4457L73.0051 3.36555C73.0438 3.82973 73.0825 4.41964 73.1211 5.13525C73.1598 5.83153 73.1888 6.57616 73.2082 7.36914C73.2469 8.14278 73.2662 8.88741 73.2662 9.60303V21.4978H70.7422Z" fill="black"/>
<path d="M59.4395 21.788C58.163 21.788 57.0606 21.5462 56.1322 21.0627C55.2232 20.5792 54.5172 19.8829 54.0144 18.9738C53.5308 18.0455 53.2891 16.9527 53.2891 15.6955V6.12172C53.2891 4.84521 53.5308 3.75245 54.0144 2.84342C54.5172 1.93439 55.2232 1.23811 56.1322 0.754584C57.0606 0.271059 58.163 0.0292969 59.4395 0.0292969C60.716 0.0292969 61.8088 0.271059 62.7178 0.754584C63.6462 1.23811 64.3521 1.93439 64.8357 2.84342C65.3385 3.75245 65.59 4.83554 65.59 6.09271V15.6955C65.59 16.9527 65.3385 18.0455 64.8357 18.9738C64.3521 19.8829 63.6462 20.5792 62.7178 21.0627C61.8088 21.5462 60.716 21.788 59.4395 21.788ZM59.4395 19.438C60.5806 19.438 61.451 19.1189 62.0505 18.4807C62.6695 17.8231 62.9789 16.8947 62.9789 15.6955V6.12172C62.9789 4.92258 62.6695 4.00388 62.0505 3.36563C61.451 2.70803 60.5806 2.37923 59.4395 2.37923C58.3177 2.37923 57.4474 2.70803 56.8285 3.36563C56.2096 4.00388 55.9001 4.92258 55.9001 6.12172V15.6955C55.9001 16.8947 56.2096 17.8231 56.8285 18.4807C57.4474 19.1189 58.3177 19.438 59.4395 19.438Z" fill="black"/>
<path d="M40.7379 21.4975V2.66899H34.9355V0.290039H49.1512V2.66899H43.3489V21.4975H40.7379Z" fill="black"/>
<path d="M24.6481 21.7879C22.6753 21.7879 21.1667 21.2463 20.1223 20.1632C19.0779 19.0608 18.5557 17.5715 18.5557 15.6955V0.319336H21.1667V15.6955C21.1667 16.8559 21.4471 17.7746 22.008 18.4516C22.5883 19.1285 23.4683 19.467 24.6481 19.467C25.8085 19.467 26.6789 19.1285 27.2591 18.4516C27.8394 17.7746 28.1295 16.8559 28.1295 15.6955V0.319336H30.7405V15.6955C30.7405 17.5909 30.2183 19.0801 29.1739 20.1632C28.1488 21.2463 26.6402 21.7879 24.6481 21.7879Z" fill="black"/>
<path d="M0 21.4978L5.51219 0.319336H9.02259L14.5058 21.4978H11.8657L10.4732 15.8695H4.06162L2.66906 21.4978H0ZM4.58382 13.6647H9.92195L8.2973 7.13705C7.98785 5.89922 7.74608 4.86448 7.57201 4.03281C7.39794 3.20115 7.29157 2.6596 7.25289 2.40817C7.2142 2.6596 7.10783 3.20115 6.93376 4.03281C6.75969 4.86448 6.51793 5.88955 6.20847 7.10804L4.58382 13.6647Z" fill="black"/>
</g>
<defs>
<clipPath id="clip0_154_22110">
<rect width="484" height="22" fill="white"/>
</clipPath>
</defs>
</svg>
