<svg width="64" height="64" viewBox="0 0 64 64" fill="none" xmlns="http://www.w3.org/2000/svg">
<rect width="64" height="64" rx="8" fill="white"/>
<mask id="mask0_228_16149" style="mask-type:luminance" maskUnits="userSpaceOnUse" x="13" y="13" width="38" height="37">
<path d="M13.7141 13.7143H50.2855V49.3261H13.7141V13.7143Z" fill="white"/>
</mask>
<g mask="url(#mask0_228_16149)">
<path d="M31.8856 49.3261L47.7714 40.4232L31.8856 31.5202L16 40.4232L31.8856 49.3261Z" fill="url(#paint0_linear_228_16149)"/>
<path d="M47.7715 40.4232V22.6173L31.8857 13.7143V31.5202L47.7715 40.4232Z" fill="url(#paint1_linear_228_16149)"/>
<path d="M31.8856 13.7143L16 22.6173V40.4232L31.8856 31.5202V13.7143Z" fill="url(#paint2_linear_228_16149)"/>
<path d="M47.7715 22.6172L31.8857 49.3261V31.5202L47.7715 22.6172Z" fill="#282828"/>
<path d="M47.7714 22.6172L31.8856 31.5202L16 22.6172H47.7714Z" fill="black"/>
</g>
<defs>
<linearGradient id="paint0_linear_228_16149" x1="31.8856" y1="31.5202" x2="31.8856" y2="49.3261" gradientUnits="userSpaceOnUse">
<stop offset="0.16" stop-opacity="0.39"/>
<stop offset="0.658" stop-opacity="0.8"/>
</linearGradient>
<linearGradient id="paint1_linear_228_16149" x1="47.7715" y1="22.6722" x2="32.1047" y2="32.1063" gradientUnits="userSpaceOnUse">
<stop offset="0.182" stop-opacity="0.31"/>
<stop offset="0.715" stop-opacity="0"/>
</linearGradient>
<linearGradient id="paint2_linear_228_16149" x1="31.8856" y1="13.7143" x2="16.6242" y2="40.7752" gradientUnits="userSpaceOnUse">
<stop stop-opacity="0.6"/>
<stop offset="0.667" stop-opacity="0.22"/>
</linearGradient>
</defs>
</svg>
