<svg width="64" height="64" viewBox="0 0 64 64" fill="none" xmlns="http://www.w3.org/2000/svg">
<rect width="64" height="64" rx="8" fill="white"/>
<path d="M31.1381 14.0713C31.6142 13.5953 32.386 13.5953 32.8621 14.0713L35.2516 16.4608L30.8137 23.6297L24.218 20.9914L31.1381 14.0713Z" fill="black"/>
<path d="M22.3424 22.8671L19.6301 25.5793L25.222 32.6625L29.5108 25.7344L22.3424 22.8671Z" fill="black"/>
<path d="M17.8941 27.3152L14.0713 31.138C14.0144 31.1948 13.9644 31.2558 13.9211 31.3201L22.5086 33.1603L17.8941 27.3152Z" fill="black"/>
<path d="M15.3232 34.114L17.7774 36.5681L20.6442 35.2542L15.3232 34.114Z" fill="black"/>
<path d="M19.6165 38.4073L20.8821 39.6729L22.4772 37.096L19.6165 38.4073Z" fill="black"/>
<path d="M22.6533 41.4439L31.1381 49.9287C31.6142 50.4047 32.386 50.4047 32.8621 49.9287L33.6518 49.139L33.9401 47.6399L25.464 36.9036L22.6533 41.4439Z" fill="black"/>
<path d="M36.7256 46.0651L42.7907 39.9999L38.0858 38.9917L36.7256 46.0651Z" fill="black"/>
<path d="M44.8442 37.9464L49.1862 33.6046L39.8408 29.8664L38.5464 36.5969L44.8442 37.9464Z" fill="black"/>
<path d="M50.0928 31.3413C50.0463 31.2693 49.9917 31.201 49.9288 31.138L45.3866 26.5959L42.0513 28.1247L50.0928 31.3413Z" fill="black"/>
<path d="M43.5475 24.7569L41.2627 22.472L40.5598 26.1261L43.5475 24.7569Z" fill="black"/>
<path d="M39.1805 20.3897L37.0226 18.2319L33.1121 24.549L38.0043 26.5059L39.1805 20.3897Z" fill="black"/>
<path d="M28.3386 34.4096L37.2716 30.3153L36.1618 36.086L28.3386 34.4096Z" fill="black"/>
<path d="M28.6169 36.9626L35.7015 38.4807L34.5486 44.476L28.6169 36.9626Z" fill="black"/>
<path d="M28.7986 31.5168L35.8672 28.277L31.809 26.6537L28.7986 31.5168Z" fill="black"/>
</svg>
