<svg width="64" height="64" viewBox="0 0 64 64" fill="none" xmlns="http://www.w3.org/2000/svg">
<rect width="64" height="64" rx="8" fill="white"/>
<path fill-rule="evenodd" clip-rule="evenodd" d="M29.446 24.265C29.446 22.7466 30.7131 22.1627 32.8116 22.1627C35.8208 22.1627 39.6219 23.0581 42.6312 24.6543V15.5052C39.3448 14.2204 36.098 13.7143 32.8116 13.7143C24.7738 13.7143 19.4285 17.8411 19.4285 24.7322C19.4285 35.4776 34.4746 33.7646 34.4746 38.3975C34.4746 40.1884 32.8908 40.7724 30.6735 40.7724C27.3871 40.7724 23.19 39.4487 19.864 37.6578V46.9237C23.5464 48.481 27.2683 49.1429 30.6735 49.1429C38.9092 49.1429 44.5713 45.1328 44.5713 38.1639C44.5317 26.562 29.446 28.6255 29.446 24.265Z" fill="black"/>
</svg>
