<svg width="64" height="64" viewBox="0 0 64 64" fill="none" xmlns="http://www.w3.org/2000/svg">
<path d="M44.6936 20.1566C42.3263 19.049 39.795 18.2441 37.1486 17.7857C36.8236 18.3733 36.4439 19.1636 36.1821 19.7923C33.369 19.3693 30.5817 19.3693 27.8203 19.7923C27.5585 19.1636 27.1702 18.3733 26.8423 17.7857C24.1931 18.2441 21.6589 19.052 19.2915 20.1625C14.5166 27.3781 13.2222 34.4144 13.8694 41.3508C17.0364 43.7158 20.1056 45.1525 23.123 46.0926C23.868 45.0673 24.5324 43.9773 25.1049 42.8286C24.0147 42.4144 22.9705 41.9032 21.9839 41.3097C22.2457 41.1158 22.5017 40.9131 22.7491 40.7045C28.7666 43.519 35.3048 43.519 41.2505 40.7045C41.5007 40.9131 41.7567 41.1158 42.0156 41.3097C41.0261 41.9061 39.9791 42.4173 38.8889 42.8316C39.4613 43.9773 40.1229 45.0703 40.8708 46.0956C43.8911 45.1554 46.9631 43.7188 50.1301 41.3508C50.8895 33.3097 48.8328 26.338 44.6936 20.1566ZM25.9247 37.085C24.1183 37.085 22.6369 35.3986 22.6369 33.345C22.6369 31.2914 24.0866 29.6021 25.9247 29.6021C27.7628 29.6021 29.2441 31.2884 29.2125 33.345C29.2153 35.3986 27.7628 37.085 25.9247 37.085ZM38.0749 37.085C36.2685 37.085 34.7871 35.3986 34.7871 33.345C34.7871 31.2914 36.2368 29.6021 38.0749 29.6021C39.9129 29.6021 41.3943 31.2884 41.3627 33.345C41.3627 35.3986 39.9129 37.085 38.0749 37.085Z" fill="black"/>
</svg>
