<svg width="64" height="64" viewBox="0 0 64 64" fill="none" xmlns="http://www.w3.org/2000/svg">
<path d="M26.1356 42.1C26.1356 42.2428 25.9714 42.3571 25.7642 42.3571C25.5285 42.3786 25.3642 42.2643 25.3642 42.1C25.3642 41.9571 25.5285 41.8428 25.7356 41.8428C25.9499 41.8214 26.1356 41.9357 26.1356 42.1ZM23.9142 41.7786C23.8642 41.9214 24.0071 42.0857 24.2214 42.1286C24.4071 42.2 24.6214 42.1286 24.6642 41.9857C24.7071 41.8428 24.5714 41.6786 24.3571 41.6143C24.1714 41.5643 23.9642 41.6357 23.9142 41.7786ZM27.0714 41.6571C26.8642 41.7071 26.7214 41.8428 26.7428 42.0071C26.7642 42.15 26.9499 42.2428 27.1642 42.1928C27.3714 42.1428 27.5142 42.0071 27.4928 41.8643C27.4714 41.7286 27.2785 41.6357 27.0714 41.6571ZM31.7714 14.2857C21.8642 14.2857 14.2856 21.8071 14.2856 31.7143C14.2856 39.6357 19.2714 46.4143 26.3928 48.8C27.3071 48.9643 27.6285 48.4 27.6285 47.9357C27.6285 47.4928 27.6071 45.05 27.6071 43.55C27.6071 43.55 22.6071 44.6214 21.5571 41.4214C21.5571 41.4214 20.7428 39.3428 19.5714 38.8071C19.5714 38.8071 17.9356 37.6857 19.6856 37.7071C19.6856 37.7071 21.4642 37.85 22.4428 39.55C24.0071 42.3071 26.6285 41.5143 27.6499 41.0428C27.8142 39.9 28.2785 39.1071 28.7928 38.6357C24.7999 38.1928 20.7714 37.6143 20.7714 30.7428C20.7714 28.7786 21.3142 27.7928 22.4571 26.5357C22.2714 26.0714 21.6642 24.1571 22.6428 21.6857C24.1356 21.2214 27.5714 23.6143 27.5714 23.6143C28.9999 23.2143 30.5356 23.0071 32.0571 23.0071C33.5785 23.0071 35.1142 23.2143 36.5428 23.6143C36.5428 23.6143 39.9785 21.2143 41.4714 21.6857C42.4499 24.1643 41.8428 26.0714 41.6571 26.5357C42.7999 27.8 43.4999 28.7857 43.4999 30.7428C43.4999 37.6357 39.2928 38.1857 35.2999 38.6357C35.9571 39.2 36.5142 40.2714 36.5142 41.95C36.5142 44.3571 36.4928 47.3357 36.4928 47.9214C36.4928 48.3857 36.8214 48.95 37.7285 48.7857C44.8714 46.4143 49.7142 39.6357 49.7142 31.7143C49.7142 21.8071 41.6785 14.2857 31.7714 14.2857ZM21.2285 38.9214C21.1356 38.9928 21.1571 39.1571 21.2785 39.2928C21.3928 39.4071 21.5571 39.4571 21.6499 39.3643C21.7428 39.2928 21.7214 39.1286 21.5999 38.9928C21.4856 38.8786 21.3214 38.8286 21.2285 38.9214ZM20.4571 38.3428C20.4071 38.4357 20.4785 38.55 20.6214 38.6214C20.7356 38.6928 20.8785 38.6714 20.9285 38.5714C20.9785 38.4786 20.9071 38.3643 20.7642 38.2928C20.6214 38.25 20.5071 38.2714 20.4571 38.3428ZM22.7714 40.8857C22.6571 40.9786 22.6999 41.1928 22.8642 41.3286C23.0285 41.4928 23.2356 41.5143 23.3285 41.4C23.4214 41.3071 23.3785 41.0928 23.2356 40.9571C23.0785 40.7928 22.8642 40.7714 22.7714 40.8857ZM21.9571 39.8357C21.8428 39.9071 21.8428 40.0928 21.9571 40.2571C22.0714 40.4214 22.2642 40.4928 22.3571 40.4214C22.4714 40.3286 22.4714 40.1428 22.3571 39.9786C22.2571 39.8143 22.0714 39.7428 21.9571 39.8357Z" fill="black"/>
</svg>
