<svg width="64" height="64" viewBox="0 0 64 64" fill="none" xmlns="http://www.w3.org/2000/svg">
<path fill-rule="evenodd" clip-rule="evenodd" d="M21.8967 33.3917C22.1084 33.3267 22.3717 33.425 22.5184 33.63C22.5651 33.6933 22.5784 33.7833 22.5951 33.8633C22.6001 33.8867 22.5617 33.9183 22.5284 33.9467C22.3217 33.7833 22.1284 33.6233 21.9384 33.4617C21.9201 33.445 21.9117 33.4167 21.8967 33.3917ZM25.9934 27.6867C26.3184 27.6333 26.6434 27.5867 26.9734 27.6033C27.0572 27.6062 27.1403 27.6208 27.2201 27.6467C27.5567 27.765 27.8901 27.8917 28.2217 28.02C28.2684 28.0367 28.3051 28.08 28.3467 28.1117L28.3251 28.1567C28.1799 28.1094 28.0354 28.0599 27.8917 28.0083C27.7001 27.945 27.5367 27.88 27.3667 27.845C26.9501 27.7617 26.9501 27.7683 26.8801 27.8217L27.8367 28.0617C28.2951 28.2933 28.7534 28.5217 29.2084 28.7567C29.2784 28.7933 29.3584 28.8517 29.3867 28.92C29.4301 29.02 29.4917 29.0467 29.5817 29.04C29.6917 29.03 29.8017 29.0117 29.9367 28.995L29.8701 29.1383C29.9551 29.2717 30.1067 29.1717 30.2301 29.245C30.1067 29.4617 29.8184 29.395 29.6734 29.5767L29.7751 29.7L29.5751 29.845C29.5751 30.0217 29.5117 30.125 29.0651 30.25L29.1084 30.3917L28.7817 30.4617L28.8984 30.6683H28.4817L28.4701 30.8967C28.3351 30.88 28.2017 30.8667 28.0634 30.8517L27.9751 31.0567C27.9301 31.0433 27.8884 31.0383 27.8534 31.0183C27.7417 30.955 27.6401 30.925 27.5284 31.0283C27.4967 31.0567 27.4234 31.0517 27.3734 31.0417C27.3301 31.0317 27.2901 30.9933 27.2567 30.9717C27.0734 31.13 27.0734 31.13 26.9101 30.9767C26.8151 31.0533 26.7101 31.1 26.6001 30.995C26.4951 31.04 26.3951 30.9617 26.3034 30.9717C26.1867 30.9833 26.1417 30.9133 26.0817 30.855L25.8651 30.91C25.8434 30.5167 25.5417 30.5933 25.2984 30.5717C25.3067 30.4517 25.3817 30.4183 25.4567 30.415C25.5465 30.4121 25.6361 30.4245 25.7217 30.4517C25.9951 30.535 26.2551 30.6517 26.5484 30.6817C26.8867 30.7167 27.2234 30.73 27.5501 30.6567C27.9917 30.5583 28.4167 30.4083 28.7284 30.0483C28.8101 29.955 28.8667 29.8367 28.9234 29.7233C28.9551 29.66 28.9567 29.5833 28.8901 29.53C28.6982 29.3766 28.4834 29.2546 28.2534 29.1683C28.2934 29.3683 28.2017 29.4717 28.0617 29.5367C28.0617 29.56 28.0551 29.5783 28.0617 29.5867C28.1951 29.7783 28.2017 29.8533 28.0501 30.0317C27.9421 30.1618 27.8203 30.2797 27.6867 30.3833C27.5303 30.5052 27.3341 30.5641 27.1364 30.5487C26.9388 30.5333 26.754 30.4446 26.6184 30.3C26.5383 30.2212 26.4642 30.1365 26.3967 30.0467C26.2667 29.8683 26.2701 29.8667 26.3417 29.6533C26.0667 29.52 26.1284 29.2767 26.1684 29.0467C26.1817 28.9633 26.2151 28.8867 26.2501 28.775C26.1834 28.7983 26.1384 28.8033 26.1051 28.8283C25.879 28.9755 25.6971 29.1811 25.5784 29.4233C25.5667 29.45 25.5617 29.48 25.5451 29.5017C25.5251 29.5267 25.4884 29.565 25.4701 29.56C25.4367 29.55 25.4084 29.515 25.3867 29.485C25.3734 29.465 25.3751 29.4317 25.3667 29.39H25.1567L25.2451 29.1033C25.2235 29.0761 25.2018 29.0489 25.1801 29.0217L25.3634 28.5483C25.2634 28.5917 25.2117 28.6217 25.1567 28.6333C25.1067 28.645 25.0501 28.6333 24.9984 28.6333C24.9984 28.5817 24.9817 28.5167 25.0051 28.48C25.2534 28.1133 25.5134 27.7667 25.9934 27.6867Z" fill="black"/>
<path fill-rule="evenodd" clip-rule="evenodd" d="M25.4333 29.98C25.4283 29.9167 25.4266 29.855 25.4949 29.8767C25.5216 29.8867 25.5516 29.9567 25.5416 29.9883C25.5249 30.055 25.4766 30.0417 25.4333 29.98Z" fill="black"/>
<path fill-rule="evenodd" clip-rule="evenodd" d="M31.9683 12.015C32.345 11.995 32.7233 11.9967 33.1 12.015C33.5116 12.0317 33.925 12.055 34.3333 12.1183C35.0016 12.225 35.6633 12.38 36.3166 12.5733C37.0883 12.8033 37.85 13.0717 38.5766 13.425C40.5882 14.4129 42.2884 15.9366 43.49 17.8283C43.9766 18.61 44.3833 19.4333 44.7216 20.2933C45.0866 21.22 45.465 22.1433 45.76 23.0983C46.1 24.1883 46.3083 25.3083 46.5233 26.4267C46.685 27.2667 46.8266 28.11 47.0066 28.945C47.2666 30.1483 47.555 31.345 47.83 32.545C48.14 33.8983 48.4966 35.2367 48.88 36.57C49.05 37.1617 49.2016 37.7583 49.35 38.3567C49.5333 39.0833 49.6866 39.8167 49.7733 40.5617C49.825 41.025 49.8833 41.49 49.895 41.9567C49.914 42.4457 49.9046 42.9354 49.8666 43.4233C49.805 44.1117 49.7 44.7867 49.49 45.4433C49.1599 46.4476 48.6425 47.3802 47.965 48.1917L47.7483 48.4517L47.7783 48.49C47.85 48.4517 47.925 48.4217 47.99 48.3767C48.3233 48.1467 48.6116 47.865 48.875 47.56C49.5416 46.7933 50.0766 45.9383 50.5 45.0117C50.9143 44.1154 51.1004 43.1306 51.0416 42.145C51.0016 41.4383 50.88 40.755 50.5416 40.1233C50.52 40.0783 50.5166 40.0233 50.4916 39.9217C50.575 39.98 50.6283 40.0017 50.66 40.0417C50.8383 40.2583 51.0266 40.4717 51.185 40.705C51.735 41.5283 51.9516 42.4583 51.995 43.4383C52.0399 44.5839 51.7689 45.7198 51.2116 46.7217C50.6116 47.8133 49.7333 48.6217 48.6683 49.2317C48.3466 49.4167 48.0116 49.5817 47.6766 49.745C47.415 49.875 47.2633 50.0967 47.1466 50.3533C47.0926 50.4567 47.0599 50.5698 47.0504 50.6861C47.041 50.8023 47.055 50.9193 47.0916 51.03C47.1139 51.1051 47.1213 51.1838 47.1133 51.2617C47.105 51.39 46.985 51.52 46.88 51.5317C46.79 51.5417 46.6716 51.46 46.63 51.3383C46.5838 51.2125 46.5503 51.0824 46.53 50.95C46.4633 50.4267 46.2716 49.95 46.0166 49.5C45.6893 48.9364 45.2792 48.4251 44.8 47.9833C44.3814 47.5732 43.8678 47.2732 43.305 47.11C42.9275 47.0042 42.5416 46.9312 42.1516 46.8917C42.0266 46.8783 41.9016 46.825 41.785 46.9083C42.085 47.0083 42.39 47.0917 42.6816 47.2083C43.405 47.4967 44.0483 47.925 44.6483 48.4217C45.1616 48.8467 45.615 49.3267 45.9716 49.895C46.135 50.1533 46.2816 50.42 46.35 50.7217C46.395 50.9267 46.42 51.1383 46.4616 51.3467C46.4833 51.45 46.4583 51.5283 46.3733 51.5867C46.295 51.6417 46.17 51.6433 46.1016 51.57C46.0437 51.5008 45.9985 51.4218 45.9683 51.3367C45.9183 51.215 45.905 51.0717 45.8383 50.9617C45.1914 49.9235 44.3919 48.9885 43.4666 48.1883C43.2 47.96 42.9183 47.755 42.5716 47.65C41.945 47.46 41.3166 47.3117 40.655 47.3933C40.3 47.435 39.9433 47.4467 39.5883 47.4817C39.1472 47.5316 38.7256 47.6909 38.3616 47.945C37.8566 48.294 37.3906 48.6963 36.9716 49.145C36.4233 49.715 35.9016 50.31 35.38 50.9033C35.1533 51.1617 34.94 51.435 34.8566 51.7883C34.8498 51.8166 34.8432 51.845 34.8366 51.8733C34.8293 51.9081 34.8105 51.9394 34.7833 51.9624C34.7562 51.9853 34.7222 51.9985 34.6866 52H34.17C34.0933 52 34.0333 51.92 34.05 51.8433C34.0883 51.6633 34.125 51.4833 34.1666 51.3033C34.2916 50.7617 34.4833 50.245 34.78 49.775C34.82 49.71 34.8466 49.6283 34.9533 49.6417L34.97 49.7233L35.015 49.8517C35.4816 49.1267 35.9666 48.4617 36.675 47.96C37.1466 47.62 37.6483 47.33 38.1583 47.0433C38.105 47.0284 38.0488 47.0273 37.995 47.04C37.725 47.1117 37.4533 47.18 37.1866 47.2633C36.5166 47.47 35.9133 47.8133 35.3366 48.2067C35.0916 48.3733 34.84 48.5283 34.6466 48.7617C33.9159 49.654 33.3154 50.6456 32.8633 51.7067C32.8361 51.7716 32.8138 51.8384 32.7966 51.9067C32.7897 51.9332 32.7741 51.9568 32.7525 51.9737C32.7308 51.9905 32.7041 51.9998 32.6766 52H31.8533C31.7866 52 31.75 51.915 31.7933 51.8633C31.9983 51.63 32.2033 51.3933 32.4216 51.1717C32.88 50.7033 33.3883 50.285 33.7166 49.6983C33.7616 49.6183 33.8216 49.5483 33.875 49.4733C34.2716 48.9183 34.775 48.4617 35.2383 47.97C35.375 47.8267 35.53 47.7033 35.6716 47.57C35.72 47.525 35.76 47.475 35.8033 47.4283L35.7733 47.3867L35.5483 47.455C35.4916 47.4833 35.4316 47.5067 35.3783 47.5383C34.965 47.7783 34.555 48.025 34.14 48.26C33.46 48.6433 32.765 48.9917 32.125 49.445C31.6566 49.7783 31.14 50.0417 30.6433 50.3333C30.61 50.3533 30.57 50.3583 30.51 50.38C30.485 50.155 30.7483 50.045 30.69 49.82C30.635 49.8433 30.5833 49.8533 30.5483 49.8833C30.3633 50.0433 30.17 50.2 30.0016 50.3767C29.755 50.6383 29.5283 50.9183 29.2933 51.19C29.085 51.4283 28.8766 51.6667 28.6716 51.9083C28.6485 51.9361 28.6198 51.9586 28.5873 51.9744C28.5548 51.9902 28.5194 51.9989 28.4833 52H26.6033C26.6138 51.9773 26.6228 51.9539 26.63 51.93C26.6766 51.78 26.7716 51.6433 26.7683 51.4633C26.6166 51.4333 26.4983 51.465 26.415 51.5917C26.336 51.7089 26.2604 51.8284 26.1883 51.95C26.1716 51.9767 26.1483 52 26.1183 52H25.9633C25.9316 52 25.915 51.9633 25.935 51.9383C26.0533 51.7917 26.1683 51.6417 26.2833 51.4917C26.285 51.4883 26.2733 51.4717 26.2633 51.4517C26.24 51.4583 26.2133 51.4617 26.1883 51.4733C25.895 51.6233 25.6016 51.775 25.31 51.93C25.2236 51.9756 25.1276 51.9996 25.03 52H20.67C20.6266 52 20.605 51.94 20.6383 51.9117C20.9883 51.615 21.3083 51.2883 21.5683 50.9033C22.1266 50.0767 22.465 49.1583 22.68 48.1883C22.6866 48.155 22.675 48.1167 22.67 48.0367C22.6083 48.1167 22.5716 48.1567 22.5433 48.2033C22.3904 48.4583 22.2031 48.6911 21.9866 48.895C21.52 49.325 21.0033 49.6417 20.3483 49.6683C19.8533 49.6883 19.3683 49.6683 18.9066 49.4567C18.14 49.1067 17.7033 48.5067 17.5833 47.67C17.5416 47.3867 17.555 47.385 17.28 47.305C16.5585 47.1114 15.8808 46.7816 15.2833 46.3333C14.6499 45.8604 14.1793 45.2023 13.9366 44.45C13.7259 43.7795 13.6356 43.077 13.67 42.375C13.6733 42.3183 13.6966 42.2633 13.71 42.2083C13.7633 42.2467 13.7866 42.28 13.7933 42.3183C13.8483 42.5733 13.8916 42.8317 13.9533 43.085C14.0966 43.6767 14.3816 44.1917 14.8133 44.6183C15.2433 45.045 15.765 45.3167 16.33 45.505C16.9266 45.7017 17.525 45.735 18.1133 45.4783C18.5062 45.3007 18.8585 45.0443 19.1483 44.725C19.695 44.145 20.0366 43.4583 20.2283 42.6867C20.2433 42.63 20.2366 42.5683 20.24 42.5033C20.215 42.5133 20.1966 42.5133 20.19 42.5217C20.1383 42.605 20.0833 42.6883 20.035 42.775C19.5616 43.6117 18.9033 44.2533 18.0416 44.6667C17.4566 44.95 16.845 45.0917 16.1916 44.9317C15.5379 44.7906 14.9607 44.4101 14.5733 43.865C14.2428 43.4113 14.0319 42.8817 13.96 42.325C13.8954 41.834 13.9067 41.3359 13.9933 40.8483C14.0766 40.1167 14.77 38.8983 15.23 38.73C15.1966 38.835 15.1716 38.9167 15.1416 38.9967C15.07 39.19 14.98 39.375 14.925 39.5717C14.7979 40.0157 14.7695 40.4821 14.8416 40.9383C14.8966 41.2917 14.9916 41.6317 15.1816 41.9383C15.4266 42.3317 15.7583 42.6167 16.215 42.7133C16.3983 42.7517 16.59 42.7367 16.7783 42.7433C17.0122 42.7514 17.241 42.6738 17.4216 42.525C17.695 42.3117 17.8916 42.0383 18.0316 41.7233C18.3116 41.0983 18.4316 40.4283 18.5466 39.7583C18.63 39.265 18.7016 38.7683 18.7683 38.27C18.8333 37.8017 18.8866 37.3317 18.9416 36.8617C18.985 36.475 19.0216 36.0883 19.065 35.7017C19.105 35.3217 19.1516 34.9433 19.1916 34.5633C19.2316 34.185 19.27 33.805 19.3066 33.425C19.3283 33.1917 19.3433 32.9583 19.3633 32.725L19.425 32.03C19.4616 31.6133 19.4933 31.1967 19.5333 30.7833C19.5466 30.6467 19.5 30.5633 19.3833 30.4883C19.0806 30.2931 18.8048 30.0589 18.5633 29.7917C18.3966 29.61 18.25 29.4117 18.0933 29.2217C18.035 29.1517 18 29.06 17.9 29.025C17.9992 29.3788 18.1539 29.7147 18.3583 30.02C18.4583 30.1733 18.5766 30.3133 18.685 30.4617C18.79 30.605 18.9883 30.6533 19.075 30.8383C19.0283 30.8433 18.9983 30.855 18.975 30.8483C18.852 30.8196 18.7297 30.7879 18.6083 30.7533C17.7773 30.5131 17.0328 30.0393 16.4633 29.3883C15.7383 28.5767 15.37 27.595 15.28 26.5167C15.2276 25.9285 15.2354 25.3366 15.3033 24.75C15.4233 23.7467 15.67 22.7733 16.0533 21.8417C16.3116 21.215 16.6166 20.6067 16.93 20.005C17.2716 19.35 17.7066 18.755 18.205 18.2117C19.0583 17.28 20.045 16.505 21.0816 15.7983C22.2766 14.9817 23.545 14.3017 24.8766 13.7433C25.74 13.38 26.6116 13.0533 27.5166 12.8233C28.6083 12.5467 29.7 12.2733 30.82 12.1317C31.2016 12.0817 31.5833 12.035 31.9666 12.015H31.9683ZM28.89 50.0483C28.7733 50.1483 28.645 50.2333 28.545 50.3483C28.1483 50.7983 27.7716 51.2633 27.4316 51.7967L27.3583 51.9767C27.4187 51.9621 27.4729 51.9289 27.5133 51.8817C27.8033 51.565 28.0983 51.2517 28.3783 50.925C28.5516 50.7217 28.7033 50.5 28.8583 50.2817C28.8983 50.225 28.9083 50.1483 28.935 50.0817L28.89 50.0483ZM31.64 43.89C31.2514 44.1898 30.8874 44.5203 30.5516 44.8783L29.935 45.5217C29.7616 45.7085 29.5462 45.8513 29.3066 45.9383C29.0579 46.0333 28.7945 46.084 28.5283 46.0883C28.455 46.0883 28.3833 46.0983 28.2766 46.1083C28.3233 46.205 28.3483 46.27 28.3833 46.3267C28.6333 46.73 28.885 47.13 29.1333 47.5333C29.36 47.9 29.5933 48.2633 29.7983 48.6433C29.9116 48.8517 29.9733 49.0883 30.0583 49.3167C30.1866 49.3617 30.2916 49.2867 30.395 49.2367C30.8783 49.0117 31.36 48.78 31.84 48.55C32.195 48.3817 32.5683 48.24 32.9 48.0333C33.4783 47.675 34.0333 47.275 34.5966 46.8917C34.6216 46.875 34.64 46.845 34.6666 46.815C34.6283 46.7833 34.6033 46.7533 34.5733 46.7417C34.095 46.5567 33.695 46.2417 33.29 45.9383C32.9947 45.7226 32.713 45.4888 32.4466 45.2383C32.1411 44.9306 31.9077 44.5589 31.7633 44.15C31.7316 44.0683 31.6883 43.9917 31.6383 43.89H31.64ZM21.895 44.33C21.795 44.49 21.7333 44.6533 21.675 44.8183C21.4653 45.4283 21.1524 45.9976 20.75 46.5017C20.4166 46.9183 19.9916 47.1883 19.48 47.3233C19.0966 47.4233 18.7066 47.45 18.3133 47.44C18.2333 47.4367 18.1516 47.4433 18.05 47.4483C18.0766 47.515 18.085 47.5583 18.1083 47.59C18.275 47.8317 18.4916 48 18.775 48.0817C19.0366 48.1583 19.3016 48.1383 19.605 48.12C19.9066 48.0583 20.1766 47.9283 20.4133 47.73C20.81 47.3983 21.0833 46.9733 21.3066 46.51C21.5983 45.905 21.7466 45.2583 21.8766 44.6033C21.8933 44.515 21.89 44.42 21.895 44.33ZM46.8033 36.6867C46.8166 36.735 46.83 36.7817 46.8483 36.865C46.8883 37.1233 46.9333 37.3817 46.9683 37.6383C47.0183 38.0033 47.08 38.3667 47.0983 38.7333C47.1266 39.3067 47.1433 39.8817 47.075 40.455C47.0133 40.98 46.97 41.51 46.8816 42.0317C46.7363 42.9045 46.4786 43.7549 46.115 44.5617C46.1016 44.5917 46.0983 44.6267 46.0816 44.6983C46.16 44.6483 46.21 44.6283 46.245 44.5917C46.3866 44.4533 46.5283 44.3133 46.6583 44.1667C47.11 43.6583 47.4216 43.0667 47.6516 42.4283C47.9516 41.5983 48.0316 40.7433 47.8933 39.8767C47.7216 38.7933 47.3433 37.7717 46.8983 36.7417C46.8851 36.7111 46.8717 36.6805 46.8583 36.65L46.8033 36.6867ZM21.6616 25.8167C21.6456 25.9027 21.6561 25.9916 21.6916 26.0717C21.8983 26.49 22.1083 26.9067 22.3233 27.3217C22.365 27.4033 22.4333 27.4717 22.3733 27.5933C21.9 27.6933 21.41 27.7917 20.9066 28.0183C21.005 28.0817 21.0683 28.1183 21.1266 28.1633C21.1966 28.2167 21.3133 28.26 21.2766 28.3633C21.26 28.4183 21.1516 28.4433 21.0816 28.4833C21.11 28.5 21.1533 28.5183 21.1933 28.5433C21.47 28.7133 21.7433 28.8883 21.9383 29.1567C22.1683 29.4767 22.32 29.83 22.2516 30.23C22.12 31.0117 21.7416 31.6467 21.1016 32.1167C21.0116 32.1833 20.925 32.255 20.8333 32.32C20.7681 32.364 20.7172 32.4261 20.6867 32.4986C20.6562 32.5711 20.6475 32.6509 20.6616 32.7283C20.6777 32.8402 20.7086 32.9495 20.7533 33.0533C20.8916 33.38 21.12 33.6367 21.3783 33.8733C21.5166 34 21.6433 34.1467 21.7483 34.3017C21.8111 34.393 21.8481 34.4995 21.8554 34.6101C21.8627 34.7207 21.8401 34.8312 21.79 34.93C21.7516 35.0133 21.7066 35.095 21.6633 35.1767C21.6133 35.2767 21.6166 35.3617 21.7 35.4467C21.7683 35.5167 21.8333 35.595 21.8866 35.6767C21.95 35.7733 22.0166 35.8083 22.1316 35.76C22.3097 35.6914 22.5062 35.6879 22.6866 35.75C22.9533 35.8267 23.19 35.96 23.4266 36.1C23.6433 36.2283 23.8666 36.3483 24.0933 36.465C24.205 36.5233 24.3266 36.5483 24.4583 36.5083C24.5766 36.4717 24.665 36.525 24.7 36.635C24.7333 36.7417 24.695 36.815 24.5766 36.8667C24.46 36.9167 24.3483 36.9717 24.2283 37.0133C24.0616 37.0717 23.8933 37.135 23.705 37.1417C23.6833 36.9633 23.8883 36.995 23.9166 36.8767C23.5733 36.6667 22.845 36.635 22.5816 36.82C22.6866 37.0067 22.64 37.17 22.4216 37.3417C22.205 37.175 22.38 37.005 22.425 36.8417C22.379 36.832 22.3316 36.8318 22.2856 36.8409C22.2396 36.8501 22.1959 36.8684 22.1571 36.8949C22.1183 36.9214 22.0853 36.9554 22.06 36.9949C22.0348 37.0345 22.0177 37.0787 22.01 37.125C21.985 37.2933 22.1216 37.485 22.3066 37.4983C22.4866 37.51 22.67 37.49 22.85 37.4783C22.95 37.47 23.05 37.4333 23.1816 37.4783C23.01 37.6833 22.7683 37.69 22.5866 37.795C22.59 37.8783 22.7033 37.9383 22.6183 38.0133C22.53 38.0933 22.46 38.0117 22.3983 37.9633C22.265 37.8583 22.1316 37.7533 22.0133 37.635C21.8634 37.5017 21.7699 37.3164 21.7516 37.1167C21.7443 37.0177 21.7201 36.9207 21.68 36.83C21.6266 36.7067 21.6266 36.6017 21.735 36.5133C21.705 36.4633 21.6883 36.425 21.66 36.3933C21.5166 36.2086 21.4061 36.0006 21.3333 35.7783C21.245 35.55 21.2566 35.3383 21.4133 35.1433C21.4533 35.0933 21.4966 35.0433 21.52 34.985C21.5583 34.8955 21.5846 34.8014 21.5983 34.705C21.6266 34.43 21.4916 34.2267 21.295 34.06C20.985 33.8 20.695 33.5233 20.5283 33.1417C20.52 33.1233 20.4883 33.1133 20.4666 33.0983C20.4483 33.1267 20.4266 33.1433 20.425 33.1617C20.3933 33.47 20.35 33.7783 20.3383 34.09C20.315 34.7183 20.435 35.3283 20.6083 35.93C20.805 36.6133 21.09 37.26 21.4216 37.885C21.8666 38.7217 22.3166 39.555 22.775 40.385C22.8666 40.5483 22.9916 40.7 23.1216 40.835C23.4516 41.1717 23.875 41.2883 24.3283 41.29C24.665 41.29 25.0016 41.28 25.3366 41.2467C25.8283 41.1967 26.32 41.125 26.81 41.0583C27.115 41.0167 27.4183 40.9633 27.7233 40.925C28.0733 40.8817 28.3566 41.0467 28.5933 41.275C28.86 41.535 29.1016 41.82 29.3383 42.1083C29.705 42.55 30 43.0417 30.2616 43.5533C30.345 43.7167 30.3783 43.72 30.5066 43.6033C30.7233 43.4017 30.94 43.2 31.1633 43.0033C31.275 42.905 31.31 42.8033 31.275 42.6483C31.1777 42.2129 31.1301 41.7678 31.1333 41.3217C31.1366 41.06 31.1433 40.7983 31.1633 40.5367C31.1883 40.1633 31.2133 39.7867 31.2633 39.4167C31.4393 38.1362 31.6404 36.8592 31.8666 35.5867C32.0116 34.765 32.17 33.9467 32.3133 33.125C32.4133 32.5467 32.51 31.9683 32.5833 31.3867C32.64 30.9317 32.675 30.47 32.6883 30.0117C32.7066 29.4583 32.6933 28.9033 32.6916 28.3483C32.6916 28.22 32.6983 28.09 32.675 27.965C32.6283 27.7283 32.6583 27.7067 32.405 27.6483C32.0711 27.5711 31.7334 27.5115 31.3933 27.47C31.15 27.44 31.0483 27.3817 31.025 27.1533C31.015 27.0717 30.9833 26.99 30.9566 26.91C30.9416 26.8683 30.9166 26.83 30.88 26.76L30.8383 27.2C30.8233 27.36 30.79 27.3933 30.6266 27.3917C30.535 27.3917 30.4433 27.3783 30.3533 27.3783C29.56 27.3783 28.7666 27.365 27.9766 27.4317C27.8183 27.445 27.6883 27.4067 27.6 27.26C27.5333 27.15 27.4533 27.05 27.3766 26.95C27.2716 26.81 27.2333 26.795 27.0733 26.85C26.7483 26.9633 26.4266 27.08 26.1033 27.2C25.6985 27.3634 25.3196 27.5846 24.9783 27.8567C24.8178 27.9826 24.6352 28.0776 24.44 28.1367C24.385 28.1533 24.3233 28.15 24.2283 28.1583C24.2616 28.0483 24.2683 27.9683 24.3066 27.9083C24.4133 27.7333 24.5316 27.5667 24.6483 27.3983C24.6866 27.3433 24.73 27.2933 24.77 27.24L24.745 27.2017L24.41 27.2633C24.1666 27.33 23.9166 27.38 23.6816 27.4667C23.435 27.555 23.2383 27.505 23.0383 27.3467C22.5682 26.9732 22.1565 26.5316 21.8166 26.0367L21.6616 25.8167ZM35.9816 40.755L35.7366 40.905C35.37 41.1283 35.0033 41.3483 34.6383 41.575C34.4833 41.6717 34.3316 41.775 34.1883 41.8883C34.0466 42.005 33.9816 42.1567 34.0683 42.3417C34.1466 42.5083 34.2233 42.675 34.3133 42.8317C34.3916 42.965 34.52 43.0617 34.6683 43.0767C34.8516 43.0933 35.0483 43.0967 35.2283 43.0567C35.59 42.9733 35.8483 42.715 36.1083 42.4617C36.18 42.3996 36.2319 42.3179 36.2577 42.2267C36.2835 42.1355 36.2819 42.0387 36.2533 41.9483C36.1766 41.6483 36.1216 41.34 36.0566 41.0367C36.0383 40.95 36.0116 40.865 35.9816 40.755ZM35.5533 36.74C35.3533 37.225 35.2116 37.735 35.0116 38.2567C34.76 38.9783 34.5216 39.7067 34.2866 40.4617C34.3466 40.445 34.3766 40.445 34.3983 40.4317C34.8333 40.165 35.2683 39.8917 35.7066 39.625C35.7966 39.57 35.825 39.495 35.815 39.395C35.795 39.1783 35.775 38.9583 35.7583 38.74L35.645 37.2633C35.6316 37.0917 35.6116 36.92 35.5966 36.7467C35.5816 36.7467 35.5683 36.7433 35.5533 36.74ZM40.6883 23.19L40.8533 23.665C40.9866 24.05 41.1183 24.4367 41.2533 24.855L42.22 28.1083C42.5316 29.1583 42.84 30.2117 43.15 31.2633C43.34 31.9 43.5416 32.5333 43.7216 33.1733C43.8416 33.6017 43.9316 34.0383 44.0316 34.505C44.105 34.8483 44.1766 35.1933 44.2433 35.5717C44.3 35.7483 44.2816 35.9483 44.3716 36.1133L44.4133 36.1033L44.3 35.5C44.2366 35.1567 44.1716 34.8133 44.1116 34.4367C44.0866 34.32 44.0633 34.2017 44.035 34.085C43.8766 33.425 43.74 32.7583 43.5516 32.1067C43.225 30.965 42.8633 29.8333 42.5216 28.6967C42.2466 27.7817 41.985 26.8633 41.7083 25.95C41.5933 25.5717 41.4583 25.2 41.3316 24.7917L41.1366 24.2317C41.075 24.0533 41.0116 23.8717 40.945 23.695C40.8783 23.5183 40.805 23.345 40.7333 23.1717C40.7183 23.1772 40.7033 23.1828 40.6883 23.1883V23.19ZM22.375 35.84C22.27 35.8383 22.1833 35.8633 22.1516 35.9783C22.2489 36.0531 22.3674 36.0953 22.4901 36.0989C22.6128 36.1025 22.7334 36.0673 22.835 35.9983C22.6834 35.9406 22.53 35.8878 22.375 35.84ZM20.7166 31.9667C20.6733 31.9217 20.6216 31.8867 20.5916 31.97C20.5716 32.0233 20.58 32.0867 20.575 32.1583C20.7116 32.0967 20.7116 32.0967 20.7166 31.9667ZM20.82 29.985C20.7906 29.99 20.7624 30.0009 20.7373 30.0169C20.7121 30.0329 20.6903 30.0538 20.6733 30.0783C20.6418 30.1341 20.6274 30.1978 20.6316 30.2617C20.64 30.515 20.6483 30.7717 20.675 31.0233C20.6929 31.1493 20.73 31.2718 20.785 31.3867C20.8866 31.6133 21.0466 31.665 21.265 31.555C21.3566 31.51 21.365 31.465 21.3066 31.3717C21.2318 31.2564 21.1601 31.1392 21.0916 31.02C21.0666 30.9067 20.9816 30.8017 21.0366 30.675C21.1033 30.525 20.91 30.4817 20.9133 30.3583V30.1233C20.9083 30.06 20.9033 29.9783 20.82 29.985ZM20.7916 28.3717C20.5174 28.3669 20.2474 28.4403 20.0133 28.5833C19.8866 28.6583 19.8733 28.7 19.93 28.8467C19.9866 28.9917 20.0466 29.135 20.1216 29.27C20.2283 29.465 20.2716 29.4783 20.4716 29.3983C20.6473 29.3202 20.8405 29.2898 21.0316 29.31C21.3683 29.3467 21.6266 29.5367 21.8716 29.75L22.025 29.8783C22.0366 29.8683 22.0483 29.8567 22.0616 29.8483C22.03 29.6733 22.0033 29.4717 21.8133 29.4083C21.5516 29.32 21.2733 29.2833 20.9666 29.2133L20.5666 29.205C20.9666 28.9233 21.32 29.1317 21.7116 29.22C21.6066 29.0283 21.4566 28.975 21.3283 28.8983C21.1916 28.815 21.045 28.745 20.9116 28.6583C20.8116 28.5967 20.7116 28.525 20.7916 28.3717ZM37.8466 28.9133C37.4633 28.8967 37.135 29.0467 36.8333 29.265C36.7766 29.3083 36.7333 29.3733 36.6583 29.46C36.8033 29.5033 36.9083 29.5367 37.045 29.5683C37.1183 29.5433 37.1916 29.5183 37.2616 29.4917C37.7716 29.3017 38.2783 29.3 38.7683 29.5433C38.9783 29.6483 39.1633 29.61 39.3783 29.535C39.345 29.4833 39.3283 29.445 39.3033 29.4167C39.1001 29.2003 38.842 29.0431 38.5566 28.9617C38.3233 28.8883 38.0833 28.9233 37.8466 28.9133ZM25.3166 22.805C25.3016 22.8782 25.3027 22.9539 25.32 23.0267C25.4533 23.5617 25.58 24.0983 25.7233 24.63C25.8966 25.275 26.1733 25.88 26.4833 26.4683C26.5166 26.53 26.585 26.6017 26.6466 26.6133C26.7927 26.6319 26.9408 26.602 27.0683 26.5283L26.2816 25.1283C25.8983 24.3817 25.6066 23.595 25.3166 22.805ZM29.3283 12.8283C28.995 12.815 28.6533 12.835 28.3233 12.885C27.93 12.9433 27.54 13.03 27.1566 13.1383C26.6783 13.2717 26.2083 13.4383 25.7366 13.5933C25.67 13.615 25.6133 13.6567 25.5533 13.69C25.6 13.7133 25.6366 13.72 25.67 13.7133C26.1483 13.6 26.6366 13.5717 27.125 13.5633C27.3483 13.56 27.5733 13.5783 27.795 13.605C28.1116 13.645 28.4316 13.685 28.745 13.755C29.505 13.9283 30.2016 14.255 30.8533 14.6817C31.6266 15.1917 32.3333 15.7817 32.9483 16.4783C33.29 16.865 33.6066 17.27 33.8816 17.71C34.165 18.1667 34.4066 18.645 34.63 19.1367C35.085 20.1383 35.39 21.19 35.63 22.2633C35.6966 22.5517 35.7466 22.8433 35.7966 23.1367C35.825 23.31 35.905 23.415 36.08 23.4533C36.2833 23.5 36.4133 23.6283 36.4466 23.8717C36.4416 24.0417 36.3466 24.1617 36.2316 24.2717C36.0422 24.4367 35.89 24.6401 35.785 24.8683C35.8363 24.8603 35.8843 24.8377 35.9233 24.8033C36.0566 24.66 36.1933 24.5167 36.315 24.3617C36.4459 24.2053 36.522 24.0104 36.5316 23.8067C36.5466 23.7233 36.5683 23.64 36.5716 23.5567C36.5833 23.35 36.5433 23.3067 36.3333 23.2767C36.2916 23.27 36.2516 23.2533 36.2116 23.2517C36.075 23.24 36.0033 23.1467 35.9833 23.0333C35.9283 22.7033 35.9766 22.4417 36.395 22.3533C36.5383 22.3233 36.685 22.3033 36.8283 22.2833C37.0916 22.245 37.3533 22.195 37.6166 22.1717C37.85 22.1517 37.9333 22.2267 37.9933 22.45C38.0066 22.4983 38.0233 22.545 38.0283 22.595C38.06 22.8933 38.015 22.97 37.7933 23.075C37.7483 23.0967 37.7016 23.115 37.6633 23.145C37.6248 23.1732 37.5952 23.212 37.5783 23.2567C37.5133 23.4967 37.7 23.8933 37.9216 23.9983L39.0433 24.5317C39.0816 24.55 39.1266 24.5567 39.1683 24.57L39.1983 24.5267C39.1733 24.5133 39.145 24.505 39.125 24.4867C38.8491 24.2675 38.5439 24.088 38.2183 23.9533C38.123 23.9098 38.0269 23.8681 37.93 23.8283C37.867 23.8025 37.8133 23.7584 37.7758 23.7016C37.7384 23.6448 37.7189 23.578 37.72 23.51C37.715 23.3683 37.795 23.2533 37.9333 23.1983L38.0316 23.1567C38.1966 23.0833 38.2283 23.03 38.2183 22.845C38.2168 22.8097 38.2123 22.7746 38.205 22.74C38.0933 22.25 38 21.7567 37.8633 21.2733C37.5375 20.0927 37.0755 18.9539 36.4866 17.88C35.8729 16.7646 35.0916 15.75 34.17 14.8717C33.5932 14.3126 32.931 13.849 32.2083 13.4983C31.6736 13.2342 31.1031 13.05 30.515 12.9517C30.1221 12.8876 29.7259 12.8464 29.3283 12.8283ZM40.5266 22.7533C40.5433 22.7767 40.5566 22.8 40.59 22.81L40.5533 22.7367L40.5266 22.7533ZM18.8383 18.5283C18.8237 18.5393 18.8064 18.5462 18.7883 18.5483C18.7674 18.5713 18.7452 18.593 18.7216 18.6133C18.705 18.63 18.6883 18.6467 18.6466 18.68L18.0416 19.27C17.895 19.4117 17.7583 19.5667 17.5983 19.6917C17.125 20.0583 16.89 20.575 16.6916 21.1167C16.677 21.1543 16.6729 21.1952 16.68 21.235C16.7016 21.3267 16.735 21.415 16.7666 21.515L16.89 21.5583C16.8616 21.6517 16.84 21.7333 16.8116 21.8117C16.715 22.085 16.615 22.3567 16.52 22.63C16.5116 22.655 16.5333 22.69 16.5516 22.7583C16.685 22.4667 16.815 22.2083 16.9266 21.9433C17.3066 21.0367 17.7333 20.1533 18.2916 19.3417C18.4416 19.12 18.595 18.8983 18.7633 18.6733C18.77 18.6633 18.775 18.6517 18.8 18.6233C18.8016 18.5967 18.805 18.57 18.825 18.5567L18.8383 18.5283ZM40.465 22.5417C40.4698 22.5454 40.4737 22.5502 40.4763 22.5557C40.4789 22.5612 40.4802 22.5672 40.48 22.5733C40.4762 22.5786 40.4729 22.5842 40.47 22.59C40.4732 22.6013 40.4771 22.6124 40.4816 22.6233L40.5116 22.66C40.515 22.6483 40.5233 22.6333 40.52 22.625C40.515 22.6083 40.5 22.595 40.4866 22.5617C40.4794 22.555 40.4721 22.5484 40.465 22.5417ZM18.9983 19.4667C18.9933 19.4733 18.985 19.48 18.9533 19.49C18.945 19.5117 18.935 19.5317 18.9016 19.5683C18.8374 19.6645 18.7684 19.7574 18.695 19.8467C18.615 19.9633 18.5016 19.9383 18.3933 19.915C18.17 19.8683 18.0133 19.9417 17.915 20.1533C17.7666 20.465 17.6033 20.77 17.46 21.0867C17.3783 21.2667 17.2766 21.4467 17.2633 21.6867C17.3983 21.6917 17.52 21.6983 17.6433 21.7H18.0233C17.9873 21.8489 17.9434 21.9958 17.8916 22.14C17.875 22.2267 17.855 22.3117 17.8366 22.3983L17.87 22.405C17.9 22.3283 17.9316 22.2517 17.9816 22.15C18.0916 21.9133 18.1983 21.675 18.315 21.44C18.3483 21.3733 18.3716 21.2733 18.5083 21.2867C18.5083 21.3583 18.515 21.4267 18.5083 21.4933C18.5 21.5683 18.48 21.6433 18.4616 21.7317C18.6966 21.8033 18.605 22.0217 18.6533 22.18C18.8233 22.1433 18.8266 21.855 19.0666 21.94V22.2817L19.095 22.285L19.8266 20.52C19.61 20.52 19.4166 20.4867 19.23 20.575C19.19 20.5933 19.1333 20.5733 19.05 20.5683C19.175 20.3183 19.2816 20.105 19.4016 19.8733C19.412 19.8511 19.4261 19.8308 19.4433 19.8133C19.4433 19.7883 19.4416 19.7633 19.4566 19.75L19.4666 19.7167C19.4583 19.7267 19.45 19.735 19.42 19.745C19.4133 19.765 19.405 19.785 19.3766 19.82C19.3642 19.8429 19.3458 19.8619 19.3233 19.875C19.1183 20.1367 19.1733 20.1483 18.8933 20.0517C18.7616 20.0067 18.7633 20.005 18.815 19.8117C18.8616 19.735 18.9083 19.6567 18.9783 19.5617C18.9783 19.535 18.9766 19.5083 18.99 19.4917L18.9983 19.4667ZM22.4533 18.35C22.4483 18.36 22.4416 18.3683 22.4083 18.3767C22.2516 18.585 22.085 18.7867 21.9416 19.005C21.6833 19.4017 21.44 19.8067 21.19 20.21C20.9566 20.5833 20.615 20.8233 20.2316 21.0117C20.2033 21.025 20.165 21.0217 20.1 21.03C20.12 20.9317 20.1266 20.8483 20.155 20.775C20.2687 20.4814 20.3961 20.1933 20.5366 19.9117L20.525 19.8783C20.5078 19.8952 20.4881 19.9092 20.4666 19.92C20.42 20.0033 20.375 20.0867 20.3116 20.1933C19.8783 20.9 19.5733 21.555 19.575 21.7767C19.615 21.7833 19.655 21.795 19.6966 21.7983C19.9916 21.82 20.01 21.81 20.13 21.5233C20.18 21.4067 20.2583 21.3233 20.375 21.2733L20.6666 21.1567C20.74 21.1267 20.8083 21.0617 20.91 21.1033C20.915 21.1867 20.8933 21.2867 20.9333 21.345C21.0033 21.4483 21.0066 21.5533 21.0116 21.6667C21.015 21.7483 21.04 21.83 21.055 21.9117C21.1033 21.855 21.12 21.8033 21.1383 21.75C21.375 21.1 21.6 20.4467 21.8516 19.8C22.0183 19.3733 22.2183 18.96 22.4016 18.54C22.4233 18.49 22.4233 18.4283 22.4516 18.3867L22.4533 18.35ZM29.0983 17.7833C29.0983 17.8583 29.115 17.9233 29.1333 17.9883C29.2033 18.255 29.29 18.5183 29.34 18.7883C29.38 19.01 29.3783 19.2383 29.3866 19.465C29.3866 19.52 29.355 19.5767 29.3333 19.6483C29.1766 19.5517 29.255 19.385 29.1566 19.29H28.9483C28.9233 19.41 28.9316 19.5433 28.8716 19.6233C28.7616 19.765 28.6133 19.88 28.4783 20.0017C28.4066 20.065 28.3483 20.0317 28.3066 19.96L28.23 19.815C28.1216 19.8733 28.035 19.93 27.9433 19.97C27.75 20.055 27.5516 20.1283 27.36 20.215C27.2183 20.2783 27.21 20.3033 27.2433 20.46C27.2666 20.585 27.3 20.7067 27.3216 20.8317C27.3433 20.9517 27.405 21.0133 27.5266 21.0383C27.915 21.1217 28.2966 21.23 28.6216 21.48C28.7183 21.31 28.7183 21.31 28.9016 21.2283C28.9516 21.205 29.0016 21.1783 29.055 21.1583C29.1883 21.1083 29.2466 21.13 29.305 21.2583C29.3433 21.3383 29.3733 21.4217 29.415 21.5217C29.515 21.2883 29.345 21.0767 29.4433 20.8283C29.705 21.1283 29.8433 21.4783 30.0683 21.7733C30.0922 21.7222 30.1047 21.6664 30.105 21.61C30.1083 21.4033 30.105 21.1983 30.1083 20.9917C30.1083 20.935 30.13 20.88 30.1416 20.825L30.195 20.82C30.3783 21.0783 30.4116 21.41 30.5716 21.6867C30.5802 21.4687 30.5746 21.2505 30.555 21.0333C30.5483 20.9583 30.555 20.91 30.6383 20.8867C30.7716 20.9467 30.8316 21.12 30.9966 21.15C30.9466 20.6917 30.2916 19.255 29.6666 18.425C29.4766 18.2133 29.3333 17.9583 29.1 17.7817L29.0983 17.7833ZM24.6533 18.9433C24.6216 19 24.6033 19.0267 24.5916 19.055C24.49 19.3633 24.3833 19.6717 24.2916 19.9817C24.24 20.1567 24.1466 20.2633 23.9666 20.2983C23.8166 20.33 23.67 20.385 23.52 20.42C23.4566 20.435 23.3716 20.445 23.3233 20.415C23.2833 20.3883 23.2816 20.3 23.2633 20.2383C23.1566 20.365 23.1266 20.3833 22.98 20.3167C22.7583 20.2133 22.5433 20.0917 22.325 19.9817C22.245 19.94 22.17 19.8767 22.0416 19.9317C21.97 20.1317 21.89 20.3483 21.8133 20.5683C21.6483 21.035 21.6683 20.9717 21.9716 21.3233C22.0483 21.4033 22.1416 21.3733 22.2283 21.3617C22.3183 21.3467 22.405 21.3117 22.495 21.3017C22.7116 21.28 22.9283 21.1683 23.1066 21.2767C23.4466 21.17 23.7516 21.0733 24.0583 20.98C24.1416 20.955 24.2066 20.9883 24.2483 21.07C24.285 21.14 24.305 21.225 24.385 21.2717C24.4483 21.1783 24.3633 21.0583 24.49 20.975L24.7233 21.3767L24.6533 18.9433ZM25.1166 19.54C24.9566 19.5233 24.9383 19.5567 24.9333 19.72C24.93 19.7833 24.9283 19.85 24.9366 19.9117C24.9866 20.245 25.1016 20.555 25.2266 20.8617C25.23 20.8717 25.2466 20.8783 25.2633 20.8867L25.3933 20.8033C25.48 20.8633 25.5283 20.95 25.6483 20.95C25.99 20.9467 26.3316 20.9733 26.675 20.97C26.84 20.9683 26.9383 21.04 27.0166 21.17C27.0466 21.22 27.0566 21.2983 27.1633 21.28L27.03 20.6233C26.9466 20.2983 26.8883 19.965 26.7433 19.6417C26.6483 19.7367 26.5533 19.755 26.4433 19.7183C26.37 19.6956 26.2946 19.68 26.2183 19.6717C25.8516 19.625 25.485 19.5733 25.1183 19.5383L25.1166 19.54ZM42.2066 16.6617C42.355 16.9333 42.465 17.1883 42.4383 17.48C42.4116 17.76 42.4816 18.05 42.365 18.34C42.2866 18.285 42.2183 18.2033 42.1783 18.215C41.9833 18.2733 41.905 18.12 41.8 18.0233C41.6343 17.8691 41.4752 17.7078 41.3233 17.54L41.15 17.3517C41.1372 17.3623 41.1244 17.3728 41.1116 17.3833C41.17 17.46 41.2283 17.5383 41.295 17.6433C41.3616 17.75 41.435 17.855 41.4983 17.965C41.555 18.0617 41.6066 18.1617 41.55 18.3067C41.4133 18.29 41.2766 18.275 41.14 18.2533C41.04 18.2367 40.9716 18.2533 40.9333 18.37C40.8816 18.5333 40.8716 18.53 40.6833 18.52C40.7166 18.59 40.7433 18.6533 40.7783 18.7133C40.8466 18.8367 40.8283 18.9433 40.7283 19.04C40.6283 19.14 40.5316 19.2433 40.4316 19.3417C40.3932 19.3829 40.3435 19.4121 40.2888 19.4257C40.2341 19.4393 40.1766 19.4367 40.1233 19.4183C39.7533 19.3167 39.3783 19.23 39.0066 19.1283C38.9533 19.1133 38.9016 19.0617 38.8633 19.015C38.8133 18.9483 38.7766 18.87 38.73 18.7983C38.6566 18.6817 38.58 18.5683 38.5033 18.4533C38.4781 18.508 38.47 18.569 38.48 18.6283C38.5 18.84 38.53 19.05 38.5383 19.2617C38.5466 19.4283 38.4983 19.4617 38.3366 19.435C38.1633 19.4067 37.9933 19.3683 37.82 19.3383C37.7133 19.3183 37.6016 19.2917 37.4833 19.3883L37.6183 19.735C37.7683 19.735 37.895 19.7183 38.0133 19.7383C38.3066 19.7907 38.5747 19.9376 38.7766 20.1567C38.9066 20.295 39.0333 20.4367 39.1783 20.59L39.2083 20.5817C39.2016 20.5717 39.195 20.56 39.1916 20.515C39.215 20.4217 39.0883 20.3183 39.2216 20.2183C39.2733 20.2683 39.3283 20.3133 39.3683 20.3683C39.465 20.4983 39.5533 20.6333 39.65 20.7967L39.7983 21.0317L39.8383 21.01C39.601 20.4912 39.3637 19.9723 39.1266 19.4533C39.2183 19.465 39.265 19.465 39.3066 19.48C39.6283 19.5967 39.9483 19.7167 40.2683 19.84C40.3916 19.8867 40.5133 19.94 40.6333 19.9967C40.7366 20.0433 40.82 20.0267 40.895 19.9417C40.9783 19.8483 41.065 19.755 41.1516 19.6633C41.235 19.5783 41.31 19.5867 41.3716 19.6867C41.3983 19.7283 41.415 19.775 41.4383 19.82C41.5566 20.05 41.6766 20.2817 41.8 20.5417L42.065 21.055L42.1066 21.0367C42.0333 20.86 41.99 20.6733 41.8766 20.48C41.7816 20.1767 41.5966 19.9033 41.5333 19.5717C41.76 19.6283 42.1366 20.115 42.4783 20.7917L42.5733 20.915L42.6033 20.8967C42.5713 20.8274 42.5424 20.7568 42.5166 20.685C42.44 20.4433 42.355 20.2017 42.29 19.9583C42.2533 19.82 42.23 19.67 42.3266 19.525L42.5083 19.6217L42.465 19.2767L42.51 19.25C42.5466 19.2833 42.5933 19.31 42.6183 19.35C42.74 19.53 42.8566 19.7167 42.9766 19.9C42.9933 19.9267 43.025 19.9483 43.0483 19.9717C42.9883 19.61 42.715 19.3383 42.6666 18.9283L42.925 19.115C42.9483 18.8383 42.945 18.5833 42.995 18.34C43.0483 18.0767 42.9566 17.845 42.89 17.5983C42.93 17.605 42.95 17.6083 42.9816 17.64C43.135 17.8467 43.2866 18.055 43.4433 18.2583C43.4766 18.3033 43.5266 18.3367 43.5583 18.4033L43.625 18.5083L43.6566 18.4833C43.6198 18.443 43.5899 18.3968 43.5683 18.3467C43.381 18.0764 43.1965 17.8042 43.015 17.53C42.6466 17.0117 42.41 16.7517 42.2066 16.6617ZM31.2566 17.2067C31.2516 17.475 31.41 17.665 31.3716 17.8983L30.7583 18.0433C30.9083 18.275 30.8116 18.4383 30.6716 18.595C30.5883 18.69 30.5183 18.7983 30.4333 18.8917C30.3716 18.9583 30.3566 19.0217 30.4033 19.1017L30.67 19.56C30.7183 19.64 30.79 19.67 30.8833 19.6667C31.01 19.6617 31.1366 19.6667 31.2633 19.665C31.4566 19.66 31.6233 19.7017 31.7216 19.8933C31.7316 19.9167 31.755 19.9333 31.795 19.98C31.8016 19.8817 31.79 19.8167 31.8116 19.7633C31.8383 19.6967 31.8783 19.5983 31.9316 19.5833C32.0716 19.545 32.22 19.5433 32.365 19.5333C32.3866 19.5317 32.41 19.5633 32.4316 19.5817L32.55 19.69C32.5816 19.5067 32.4133 19.36 32.51 19.1733L32.72 19.24C32.6766 19.035 32.6033 18.8317 32.6016 18.63C32.6016 18.425 32.6866 18.225 32.7933 18.03C32.9716 18.1333 33.06 18.29 33.1833 18.4517C33.4883 18.8933 33.7833 19.34 34.0066 19.8417C34.2816 19.7117 34.4566 19.955 34.685 19.9883C34.68 19.8117 34.4633 19.2533 34.3566 19.1683C34.3081 19.1315 34.2472 19.1147 34.1866 19.1217C34.0866 19.14 33.9883 19.1867 33.8683 19.2267C33.8266 19.1617 33.775 19.0967 33.74 19.0233C33.5288 18.5592 33.2642 18.1212 32.9516 17.7183C32.825 17.5617 32.685 17.415 32.5716 17.285L31.92 17.76C31.8383 17.8183 31.7633 17.81 31.7 17.7317L31.4183 17.3867C31.3766 17.3367 31.33 17.2883 31.2566 17.2067Z" fill="black"/>
</svg>
