<svg width="64" height="64" viewBox="0 0 64 64" fill="none" xmlns="http://www.w3.org/2000/svg">
<path fill-rule="evenodd" clip-rule="evenodd" d="M27.36 26.5496V24.3642C27.5717 24.348 27.7865 24.3375 28.0047 24.3303C33.9836 24.1428 37.9063 29.4681 37.9063 29.4681C37.9063 29.4681 33.6693 35.3516 29.127 35.3516C28.5267 35.354 27.9296 35.2587 27.36 35.0688V28.4404C29.6869 28.7214 30.1555 29.7492 31.5548 32.0826L34.6671 29.4583C34.6671 29.4583 32.3952 26.4786 28.5654 26.4786C28.1494 26.4786 27.7511 26.5076 27.36 26.5496ZM27.36 19.3282V22.5947C27.5741 22.5778 27.789 22.564 28.0047 22.5559C36.3187 22.2764 41.736 29.3752 41.736 29.3752C41.736 29.3752 35.5147 36.9408 29.0324 36.9408C28.4386 36.9408 27.8819 36.8859 27.36 36.793V38.8112C27.8067 38.8678 28.2698 38.9018 28.7529 38.9018C34.7843 38.9018 39.1465 35.8219 43.3705 32.1755C44.0709 32.7363 46.9385 34.1009 47.5274 34.6988C43.5111 38.0599 34.1516 40.7706 28.845 40.7706C28.3489 40.769 27.8536 40.7431 27.36 40.693V43.5289H50.2858V19.3282H27.36ZM27.36 35.0688V36.793C21.781 35.7992 20.2322 29.9989 20.2322 29.9989C20.2322 29.9989 22.9113 27.0304 27.36 26.5496V28.4404L27.3511 28.4395C25.0161 28.1592 23.1925 30.3406 23.1925 30.3406C23.1925 30.3406 24.2146 34.0119 27.36 35.0688ZM17.4511 29.7476C17.4511 29.7476 20.7573 24.8675 27.36 24.3642V22.5932C20.0471 23.1805 13.7144 29.3735 13.7144 29.3735C13.7144 29.3735 17.3009 39.742 27.36 40.6914V38.8112C19.9785 37.883 17.4511 29.7476 17.4511 29.7476Z" fill="black"/>
</svg>
