<svg width="64" height="64" viewBox="0 0 64 64" fill="none" xmlns="http://www.w3.org/2000/svg">
<g clip-path="url(#clip0_228_16150)">
<mask id="mask0_228_16150" style="mask-type:luminance" maskUnits="userSpaceOnUse" x="0" y="0" width="64" height="64">
<path d="M64 0H0V64H64V0Z" fill="white"/>
</mask>
<g mask="url(#mask0_228_16150)">
<mask id="mask1_228_16150" style="mask-type:luminance" maskUnits="userSpaceOnUse" x="0" y="0" width="64" height="64">
<path d="M0 0H64V64H0V0Z" fill="white"/>
</mask>
<g mask="url(#mask1_228_16150)">
<path fill-rule="evenodd" clip-rule="evenodd" d="M39.3202 16.6964L50.3221 22.9517V23.0842L39.2075 29.2723L39.2333 26.0465L37.9823 26.0008C36.3686 25.9581 35.5275 26.0038 34.5263 26.1683C32.905 26.4351 31.4207 27.0477 29.7309 28.2286L26.4303 30.5219C25.9975 30.8191 25.6761 31.0339 25.3941 31.2152L24.6093 31.7059L24.0044 32.0625L24.591 32.4129L25.3987 32.928C26.1241 33.4065 27.1815 34.1409 29.5145 35.7714C31.2059 36.9524 32.6886 37.5649 34.3099 37.8317L34.767 37.9002C35.8246 38.0389 36.8623 38.0434 39.0718 37.9505L39.1053 34.6606L50.1073 40.9158V41.0483L38.9926 47.2381L39.0139 44.4008L38.0463 44.4343C35.9343 44.4983 34.7899 44.4374 33.2646 44.1874C30.6833 43.7608 28.297 42.7764 25.8269 41.0499L22.5385 38.7642C22.1603 38.5033 21.7767 38.2503 21.3881 38.0054L20.6764 37.5786C20.2921 37.3572 19.9061 37.1388 19.5183 36.9234C18.1453 36.16 14.572 35.2243 13.7141 35.2243V28.7817L13.9275 28.7878C14.7869 28.7771 18.3618 27.84 19.7316 27.0751L21.2798 26.1912L21.9473 25.7737C22.5995 25.3471 23.5807 24.6674 26.0402 22.9501C28.5103 21.2237 30.895 20.2377 33.4779 19.8126C35.2333 19.5231 36.4859 19.488 39.2898 19.6023L39.3202 16.6964Z" fill="black"/>
</g>
</g>
</g>
<defs>
<clipPath id="clip0_228_16150">
<rect width="64" height="64" rx="8" fill="white"/>
</clipPath>
</defs>
</svg>
