<svg width="64" height="64" viewBox="0 0 64 64" fill="none" xmlns="http://www.w3.org/2000/svg">
<path fill-rule="evenodd" clip-rule="evenodd" d="M27.741 27.0698V23.6259C27.741 23.3364 27.8507 23.1185 28.1037 22.9737L35.0264 18.9875C35.9695 18.4435 37.0927 18.1905 38.2523 18.1905C42.6012 18.1905 45.3563 21.5611 45.3563 25.1482C45.3563 25.4027 45.3563 25.6922 45.3197 25.9817L38.1426 21.7775C37.9477 21.6535 37.7214 21.5876 37.4903 21.5876C37.2593 21.5876 37.0331 21.6535 36.8382 21.7775L27.741 27.0698ZM43.9071 40.4792V32.2537C43.9071 31.7463 43.6892 31.3852 43.2534 31.1307L34.1563 25.8385L37.1277 24.1349C37.2354 24.0641 37.3615 24.0262 37.4903 24.0262C37.6193 24.0262 37.7454 24.0641 37.853 24.1349L44.7757 28.1226C46.7704 29.2808 48.1113 31.7463 48.1113 34.1386C48.1113 36.8938 46.4809 39.4308 43.9056 40.4823L43.9071 40.4792ZM25.6031 33.2335L22.6317 31.4933C22.3772 31.3486 22.2675 31.1307 22.2675 30.8412V22.8655C22.2675 18.9875 25.2389 16.0511 29.2633 16.0511C30.7871 16.0511 32.1997 16.5585 33.3959 17.4651L26.2553 21.5977C25.821 21.8506 25.6031 22.2134 25.6031 22.7207V33.232V33.2335ZM32.0001 36.9287L27.741 34.5364V29.4621L32.0001 27.0698L36.2592 29.4621V34.5364L32.0001 36.9287ZM34.7368 47.9459C33.2131 47.9459 31.8004 47.4401 30.6042 46.5334L37.7449 42.4008C38.1792 42.1478 38.397 41.7851 38.397 41.2778V30.7665L41.4051 32.5067C41.6595 32.6515 41.7677 32.8693 41.7677 33.1589V41.133C41.7677 45.011 38.7597 47.9459 34.7368 47.9459ZM26.1472 39.8651L19.2229 35.8774C17.2298 34.7178 15.8889 32.2537 15.8889 29.8614C15.8841 28.502 16.2852 27.1722 17.0407 26.0421C17.7962 24.912 18.8717 24.033 20.1296 23.5177V31.7814C20.1296 32.2888 20.3475 32.6515 20.7818 32.9059L29.8438 38.1615L26.8725 39.8651C26.7649 39.9362 26.6388 39.9741 26.5098 39.9741C26.3809 39.9741 26.2548 39.9362 26.1472 39.8651ZM25.7478 45.808C21.6518 45.808 18.6439 42.7284 18.6439 38.9219C18.6439 38.6324 18.6805 38.3429 18.7156 38.0534L25.8561 42.1829C26.2919 42.4374 26.7262 42.4374 27.1605 42.1829L36.2576 36.9287V40.3726C36.2576 40.6621 36.1509 40.88 35.8964 41.0247L28.9738 45.011C28.0306 45.5551 26.9076 45.808 25.7478 45.808ZM34.7368 50.1204C36.8253 50.1206 38.8497 49.3994 40.4677 48.0788C42.0856 46.7582 43.1978 44.9193 43.616 42.8732C47.6755 41.8217 50.2858 38.0137 50.2858 34.1372C50.2858 31.6 49.1993 29.136 47.2413 27.3593C47.4225 26.5973 47.5308 25.8369 47.5308 25.0766C47.5308 19.8941 43.3265 16.0145 38.4701 16.0145C37.4919 16.0145 36.5501 16.1592 35.6054 16.4869C33.9139 14.822 31.6382 13.8851 29.2648 13.8766C27.1761 13.8765 25.1516 14.5979 23.5336 15.9188C21.9156 17.2397 20.8035 19.0789 20.3856 21.1253C16.3247 22.1768 13.7144 25.9832 13.7144 29.8614C13.7144 32.4 14.8008 34.864 16.759 36.6392C16.5776 37.4012 16.4694 38.1631 16.4694 38.9235C16.4694 44.1059 20.6736 47.984 25.53 47.984C26.5082 47.984 27.45 47.8393 28.3947 47.5131C30.0864 49.1787 32.3629 50.1157 34.7368 50.1234V50.1204Z" fill="black"/>
</svg>
