<svg width="64" height="64" viewBox="0 0 64 64" fill="none" xmlns="http://www.w3.org/2000/svg">
<path d="M40.7539 34.8721L41.541 35.5957V46.6104L32.5928 38.6318V27.3672L40.7539 34.8721ZM30.9453 38.6309L21.9971 46.6094V35.5957L30.9453 27.3672V38.6309ZM29.6543 26.3154L25.1406 30.4648L20.3477 34.8721V38.7949H17.6475V26.3154H29.6543ZM45.9551 26.3154V38.7949H43.1875V34.8721L33.8818 26.3154H45.9551ZM29.6777 24.668H21.9971V17.5029L29.6777 24.668ZM41.541 24.668H33.8594L41.541 17.5029V24.668Z" fill="black"/>
<path d="M32.5944 13.7143V25.1429H30.9487V13.7143H32.5944Z" fill="black"/>
<path d="M32.5944 38.6285V50.0571H30.9487V38.6285H32.5944Z" fill="black"/>
</svg>
