<?xml version="1.0" encoding="UTF-8" standalone="no"?>
<!DOCTYPE svg PUBLIC "-//W3C//DTD SVG 1.1//EN"
 "http://www.w3.org/Graphics/SVG/1.1/DTD/svg11.dtd">
<!-- Generated by graphviz version 2.42.4 (0)
 -->
<!-- Title: G Pages: 1 -->
<svg width="893pt" height="217pt"
 viewBox="0.00 0.00 892.80 216.80" xmlns="http://www.w3.org/2000/svg" xmlns:xlink="http://www.w3.org/1999/xlink">
<g id="graph0" class="graph" transform="scale(1 1) rotate(0) translate(14.4 202.4)">
<title>G</title>
<!-- H -->
<g id="node1" class="node">
<title>H</title>
<path fill="#f7f8fb" stroke="#263244" d="M164,-188C164,-188 40,-188 40,-188 34,-188 28,-182 28,-176 28,-176 28,-164 28,-164 28,-158 34,-152 40,-152 40,-152 164,-152 164,-152 170,-152 176,-158 176,-164 176,-164 176,-176 176,-176 176,-182 170,-188 164,-188"/>
<text text-anchor="middle" x="102" y="-173.4" font-family="DejaVu Sans" font-size="12.00">Humans</text>
<text text-anchor="middle" x="102" y="-160.4" font-family="DejaVu Sans" font-size="12.00">judgment, goals, trust</text>
</g>
<!-- C -->
<g id="node4" class="node">
<title>C</title>
<path fill="#eaf0ff" stroke="#2f5fb3" stroke-width="2" d="M361,-112C361,-112 259,-112 259,-112 253,-112 247,-106 247,-100 247,-100 247,-88 247,-88 247,-82 253,-76 259,-76 259,-76 361,-76 361,-76 367,-76 373,-82 373,-88 373,-88 373,-100 373,-100 373,-106 367,-112 361,-112"/>
<text text-anchor="middle" x="310" y="-97.4" font-family="DejaVu Sans" font-size="12.00">Workframe Cell</text>
<text text-anchor="middle" x="310" y="-84.4" font-family="DejaVu Sans" font-size="12.00">social business OS</text>
</g>
<!-- H&#45;&gt;C -->
<g id="edge1" class="edge">
<title>H&#45;&gt;C</title>
<path fill="none" stroke="#516070" d="M151.82,-151.99C181.98,-140.86 220.81,-126.54 252.33,-114.91"/>
<polygon fill="#516070" stroke="#516070" points="253.64,-117.41 260.17,-112.01 251.7,-112.16 253.64,-117.41"/>
</g>
<!-- A -->
<g id="node2" class="node">
<title>A</title>
<path fill="#f7f8fb" stroke="#263244" d="M187,-112C187,-112 17,-112 17,-112 11,-112 5,-106 5,-100 5,-100 5,-88 5,-88 5,-82 11,-76 17,-76 17,-76 187,-76 187,-76 193,-76 199,-82 199,-88 199,-88 199,-100 199,-100 199,-106 193,-112 187,-112"/>
<text text-anchor="middle" x="102" y="-97.4" font-family="DejaVu Sans" font-size="12.00">Persistent Agents</text>
<text text-anchor="middle" x="102" y="-84.4" font-family="DejaVu Sans" font-size="12.00">roles, skills, memory, budgets</text>
</g>
<!-- A&#45;&gt;C -->
<g id="edge2" class="edge">
<title>A&#45;&gt;C</title>
<path fill="none" stroke="#516070" d="M199.06,-94C212.4,-94 225.89,-94 238.64,-94"/>
<polygon fill="#516070" stroke="#516070" points="238.9,-96.8 246.9,-94 238.9,-91.2 238.9,-96.8"/>
</g>
<!-- M -->
<g id="node3" class="node">
<title>M</title>
<path fill="#f7f8fb" stroke="#263244" d="M192,-36C192,-36 12,-36 12,-36 6,-36 0,-30 0,-24 0,-24 0,-12 0,-12 0,-6 6,0 12,0 12,0 192,0 192,0 198,0 204,-6 204,-12 204,-12 204,-24 204,-24 204,-30 198,-36 192,-36"/>
<text text-anchor="middle" x="102" y="-21.4" font-family="DejaVu Sans" font-size="12.00">Computer</text>
<text text-anchor="middle" x="102" y="-8.4" font-family="DejaVu Sans" font-size="12.00">files, tools, runtimes, schedules</text>
</g>
<!-- M&#45;&gt;C -->
<g id="edge3" class="edge">
<title>M&#45;&gt;C</title>
<path fill="none" stroke="#516070" d="M151.82,-36.01C181.98,-47.14 220.81,-61.46 252.33,-73.09"/>
<polygon fill="#516070" stroke="#516070" points="251.7,-75.84 260.17,-75.99 253.64,-70.59 251.7,-75.84"/>
</g>
<!-- R -->
<g id="node5" class="node">
<title>R</title>
<path fill="#f0fff4" stroke="#32935f" d="M527,-112C527,-112 428,-112 428,-112 422,-112 416,-106 416,-100 416,-100 416,-88 416,-88 416,-82 422,-76 428,-76 428,-76 527,-76 527,-76 533,-76 539,-82 539,-88 539,-88 539,-100 539,-100 539,-106 533,-112 527,-112"/>
<text text-anchor="middle" x="477.5" y="-97.4" font-family="DejaVu Sans" font-size="12.00">Scoped Runs</text>
<text text-anchor="middle" x="477.5" y="-84.4" font-family="DejaVu Sans" font-size="12.00">action, cost, audit</text>
</g>
<!-- C&#45;&gt;R -->
<g id="edge4" class="edge">
<title>C&#45;&gt;R</title>
<path fill="none" stroke="#516070" d="M373.1,-94C384.39,-94 396.23,-94 407.7,-94"/>
<polygon fill="#516070" stroke="#516070" points="407.98,-96.8 415.98,-94 407.98,-91.2 407.98,-96.8"/>
</g>
<!-- B -->
<g id="node6" class="node">
<title>B</title>
<path fill="#fff7e6" stroke="#b87514" d="M852,-112C852,-112 594,-112 594,-112 588,-112 582,-106 582,-100 582,-100 582,-88 582,-88 582,-82 588,-76 594,-76 594,-76 852,-76 852,-76 858,-76 864,-82 864,-88 864,-88 864,-100 864,-100 864,-106 858,-112 852,-112"/>
<text text-anchor="middle" x="723" y="-97.4" font-family="DejaVu Sans" font-size="12.00">Autonomous Business</text>
<text text-anchor="middle" x="723" y="-84.4" font-family="DejaVu Sans" font-size="12.00">software, games, reports, assets, operations</text>
</g>
<!-- R&#45;&gt;B -->
<g id="edge5" class="edge">
<title>R&#45;&gt;B</title>
<path fill="none" stroke="#516070" d="M539,-94C549.86,-94 561.6,-94 573.71,-94"/>
<polygon fill="#516070" stroke="#516070" points="573.72,-96.8 581.72,-94 573.72,-91.2 573.72,-96.8"/>
</g>
</g>
</svg>
