<?xml version="1.0" encoding="UTF-8" standalone="no"?>
<!DOCTYPE svg PUBLIC "-//W3C//DTD SVG 1.1//EN"
 "http://www.w3.org/Graphics/SVG/1.1/DTD/svg11.dtd">
<!-- Generated by graphviz version 2.42.4 (0)
 -->
<!-- Title: G Pages: 1 -->
<svg width="478pt" height="397pt"
 viewBox="0.00 0.00 478.30 396.80" xmlns="http://www.w3.org/2000/svg" xmlns:xlink="http://www.w3.org/1999/xlink">
<g id="graph0" class="graph" transform="scale(1 1) rotate(0) translate(14.4 382.4)">
<title>G</title>
<!-- L -->
<g id="node1" class="node">
<title>L</title>
<path fill="#f7f8fb" stroke="#263244" d="M290,-368C290,-368 168,-368 168,-368 162,-368 156,-362 156,-356 156,-356 156,-344 156,-344 156,-338 162,-332 168,-332 168,-332 290,-332 290,-332 296,-332 302,-338 302,-344 302,-344 302,-356 302,-356 302,-362 296,-368 290,-368"/>
<text text-anchor="middle" x="229" y="-353.2" font-family="DejaVu Sans" font-size="11.00">1 Local</text>
<text text-anchor="middle" x="229" y="-341.2" font-family="DejaVu Sans" font-size="11.00">Win/Mac Hermes install</text>
</g>
<!-- D -->
<g id="node2" class="node">
<title>D</title>
<path fill="#f7f8fb" stroke="#263244" d="M286.5,-289C286.5,-289 171.5,-289 171.5,-289 165.5,-289 159.5,-283 159.5,-277 159.5,-277 159.5,-265 159.5,-265 159.5,-259 165.5,-253 171.5,-253 171.5,-253 286.5,-253 286.5,-253 292.5,-253 298.5,-259 298.5,-265 298.5,-265 298.5,-277 298.5,-277 298.5,-283 292.5,-289 286.5,-289"/>
<text text-anchor="middle" x="229" y="-274.2" font-family="DejaVu Sans" font-size="11.00">2 Docker</text>
<text text-anchor="middle" x="229" y="-262.2" font-family="DejaVu Sans" font-size="11.00">self&#45;host trusted team</text>
</g>
<!-- L&#45;&gt;D -->
<g id="edge1" class="edge">
<title>L&#45;&gt;D</title>
<path fill="none" stroke="#516070" d="M229,-331.91C229,-321.74 229,-308.65 229,-297.3"/>
<polygon fill="#516070" stroke="#516070" points="231.8,-297.04 229,-289.04 226.2,-297.04 231.8,-297.04"/>
</g>
<!-- V -->
<g id="node3" class="node">
<title>V</title>
<path fill="#f7f8fb" stroke="#263244" d="M302.5,-210C302.5,-210 155.5,-210 155.5,-210 149.5,-210 143.5,-204 143.5,-198 143.5,-198 143.5,-178 143.5,-178 143.5,-172 149.5,-166 155.5,-166 155.5,-166 302.5,-166 302.5,-166 308.5,-166 314.5,-172 314.5,-178 314.5,-178 314.5,-198 314.5,-198 314.5,-204 308.5,-210 302.5,-210"/>
<text text-anchor="middle" x="229" y="-197.2" font-family="DejaVu Sans" font-size="11.00">3 VPS self&#45;host</text>
<text text-anchor="middle" x="229" y="-185.2" font-family="DejaVu Sans" font-size="11.00">workframe.mybusiness.com</text>
<text text-anchor="middle" x="229" y="-173.2" font-family="DejaVu Sans" font-size="11.00">email&#45;domain allowlist</text>
</g>
<!-- D&#45;&gt;V -->
<g id="edge2" class="edge">
<title>D&#45;&gt;V</title>
<path fill="none" stroke="#516070" d="M229,-252.82C229,-242.81 229,-229.91 229,-218.33"/>
<polygon fill="#516070" stroke="#516070" points="231.8,-218.19 229,-210.19 226.2,-218.19 231.8,-218.19"/>
</g>
<!-- P -->
<g id="node4" class="node">
<title>P</title>
<path fill="#eaf0ff" stroke="#2f5fb3" stroke-width="2" d="M314,-123C314,-123 144,-123 144,-123 138,-123 132,-117 132,-111 132,-111 132,-91 132,-91 132,-85 138,-79 144,-79 144,-79 314,-79 314,-79 320,-79 326,-85 326,-91 326,-91 326,-111 326,-111 326,-117 320,-123 314,-123"/>
<text text-anchor="middle" x="229" y="-110.2" font-family="DejaVu Sans" font-size="11.00">4 Workframe provisioned</text>
<text text-anchor="middle" x="229" y="-98.2" font-family="DejaVu Sans" font-size="11.00">one&#45;click VPS/server cluster</text>
<text text-anchor="middle" x="229" y="-86.2" font-family="DejaVu Sans" font-size="11.00">Hostinger / Hetzner / AWS / GCP</text>
</g>
<!-- V&#45;&gt;P -->
<g id="edge3" class="edge">
<title>V&#45;&gt;P</title>
<path fill="none" stroke="#516070" d="M229,-165.99C229,-155.47 229,-142.56 229,-131.1"/>
<polygon fill="#516070" stroke="#516070" points="231.8,-131.06 229,-123.06 226.2,-131.06 231.8,-131.06"/>
</g>
<!-- E -->
<g id="node5" class="node">
<title>E</title>
<path fill="#f7f8fb" stroke="#263244" d="M206,-36C206,-36 12,-36 12,-36 6,-36 0,-30 0,-24 0,-24 0,-12 0,-12 0,-6 6,0 12,0 12,0 206,0 206,0 212,0 218,-6 218,-12 218,-12 218,-24 218,-24 218,-30 212,-36 206,-36"/>
<text text-anchor="middle" x="109" y="-21.2" font-family="DejaVu Sans" font-size="11.00">5 Enterprise BYOC</text>
<text text-anchor="middle" x="109" y="-9.2" font-family="DejaVu Sans" font-size="11.00">SSO, private network, audit, support</text>
</g>
<!-- P&#45;&gt;E -->
<g id="edge4" class="edge">
<title>P&#45;&gt;E</title>
<path fill="none" stroke="#516070" d="M197.78,-78.93C180.37,-67.18 158.72,-52.56 141.16,-40.71"/>
<polygon fill="#516070" stroke="#516070" points="142.6,-38.3 134.41,-36.15 139.47,-42.95 142.6,-38.3"/>
</g>
<!-- S -->
<g id="node6" class="node">
<title>S</title>
<path fill="#f7f8fb" stroke="#263244" d="M437.5,-36C437.5,-36 262.5,-36 262.5,-36 256.5,-36 250.5,-30 250.5,-24 250.5,-24 250.5,-12 250.5,-12 250.5,-6 256.5,0 262.5,0 262.5,0 437.5,0 437.5,0 443.5,0 449.5,-6 449.5,-12 449.5,-12 449.5,-24 449.5,-24 449.5,-30 443.5,-36 437.5,-36"/>
<text text-anchor="middle" x="350" y="-21.2" font-family="DejaVu Sans" font-size="11.00">Shared hosted SaaS</text>
<text text-anchor="middle" x="350" y="-9.2" font-family="DejaVu Sans" font-size="11.00">pooled cells + strict run isolation</text>
</g>
<!-- P&#45;&gt;S -->
<g id="edge5" class="edge">
<title>P&#45;&gt;S</title>
<path fill="none" stroke="#516070" d="M260.48,-78.93C278.03,-67.18 299.86,-52.56 317.57,-40.71"/>
<polygon fill="#516070" stroke="#516070" points="319.29,-42.93 324.38,-36.15 316.18,-38.27 319.29,-42.93"/>
</g>
</g>
</svg>
