<?xml version="1.0" encoding="UTF-8" standalone="no"?>
<!DOCTYPE svg PUBLIC "-//W3C//DTD SVG 1.1//EN"
 "http://www.w3.org/Graphics/SVG/1.1/DTD/svg11.dtd">
<!-- Generated by graphviz version 2.42.4 (0)
 -->
<!-- Title: G Pages: 1 -->
<svg width="933pt" height="501pt"
 viewBox="0.00 0.00 932.80 501.42" xmlns="http://www.w3.org/2000/svg" xmlns:xlink="http://www.w3.org/1999/xlink">
<g id="graph0" class="graph" transform="scale(1 1) rotate(0) translate(14.4 487.02)">
<title>G</title>
<!-- UI -->
<g id="node1" class="node">
<title>UI</title>
<path fill="#f7f8fb" stroke="#263244" d="M57,-248.62C57,-248.62 12,-248.62 12,-248.62 6,-248.62 0,-242.62 0,-236.62 0,-236.62 0,-224.62 0,-224.62 0,-218.62 6,-212.62 12,-212.62 12,-212.62 57,-212.62 57,-212.62 63,-212.62 69,-218.62 69,-224.62 69,-224.62 69,-236.62 69,-236.62 69,-242.62 63,-248.62 57,-248.62"/>
<text text-anchor="middle" x="34.5" y="-233.82" font-family="DejaVu Sans" font-size="11.00">apps/web</text>
<text text-anchor="middle" x="34.5" y="-221.82" font-family="DejaVu Sans" font-size="11.00">React UI</text>
</g>
<!-- API -->
<g id="node2" class="node">
<title>API</title>
<path fill="#eaf0ff" stroke="#2f5fb3" d="M257,-248.62C257,-248.62 136,-248.62 136,-248.62 130,-248.62 124,-242.62 124,-236.62 124,-236.62 124,-224.62 124,-224.62 124,-218.62 130,-212.62 136,-212.62 136,-212.62 257,-212.62 257,-212.62 263,-212.62 269,-218.62 269,-224.62 269,-224.62 269,-236.62 269,-236.62 269,-242.62 263,-248.62 257,-248.62"/>
<text text-anchor="middle" x="196.5" y="-233.82" font-family="DejaVu Sans" font-size="11.00">services/workframe&#45;api</text>
<text text-anchor="middle" x="196.5" y="-221.82" font-family="DejaVu Sans" font-size="11.00">Python BFF</text>
</g>
<!-- UI&#45;&gt;API -->
<g id="edge1" class="edge">
<title>UI&#45;&gt;API</title>
<path fill="none" stroke="#516070" d="M69.04,-230.62C82.74,-230.62 99.23,-230.62 115.7,-230.62"/>
<polygon fill="#516070" stroke="#516070" points="115.78,-233.42 123.78,-230.62 115.78,-227.82 115.78,-233.42"/>
</g>
<!-- DB -->
<g id="node3" class="node">
<title>DB</title>
<path fill="#f7f8fb" stroke="#263244" d="M476,-468.62C476,-470.83 441.94,-472.62 400,-472.62 358.06,-472.62 324,-470.83 324,-468.62 324,-468.62 324,-432.62 324,-432.62 324,-430.41 358.06,-428.62 400,-428.62 441.94,-428.62 476,-430.41 476,-432.62 476,-432.62 476,-468.62 476,-468.62"/>
<path fill="none" stroke="#263244" d="M476,-468.62C476,-466.41 441.94,-464.62 400,-464.62 358.06,-464.62 324,-466.41 324,-468.62"/>
<text text-anchor="middle" x="400" y="-453.82" font-family="DejaVu Sans" font-size="11.00">SQLite</text>
<text text-anchor="middle" x="400" y="-441.82" font-family="DejaVu Sans" font-size="11.00">workframe.db / board.db</text>
</g>
<!-- API&#45;&gt;DB -->
<g id="edge2" class="edge">
<title>API&#45;&gt;DB</title>
<path fill="none" stroke="#516070" d="M206.54,-248.81C224.69,-283.88 268.64,-361.66 324,-410.62 329.89,-415.83 336.57,-420.6 343.46,-424.89"/>
<polygon fill="#516070" stroke="#516070" points="342.1,-427.33 350.4,-429.02 344.96,-422.52 342.1,-427.33"/>
</g>
<!-- Vault -->
<g id="node4" class="node">
<title>Vault</title>
<path fill="#f0fff4" stroke="#32935f" d="M447.5,-392.62C447.5,-392.62 352.5,-392.62 352.5,-392.62 346.5,-392.62 340.5,-386.62 340.5,-380.62 340.5,-380.62 340.5,-368.62 340.5,-368.62 340.5,-362.62 346.5,-356.62 352.5,-356.62 352.5,-356.62 447.5,-356.62 447.5,-356.62 453.5,-356.62 459.5,-362.62 459.5,-368.62 459.5,-368.62 459.5,-380.62 459.5,-380.62 459.5,-386.62 453.5,-392.62 447.5,-392.62"/>
<text text-anchor="middle" x="400" y="-377.82" font-family="DejaVu Sans" font-size="11.00">Credential Vault</text>
<text text-anchor="middle" x="400" y="-365.82" font-family="DejaVu Sans" font-size="11.00">API&#45;owned secrets</text>
</g>
<!-- API&#45;&gt;Vault -->
<g id="edge3" class="edge">
<title>API&#45;&gt;Vault</title>
<path fill="none" stroke="#516070" d="M215.57,-248.72C239.08,-271.63 282.13,-311.36 324,-338.62 331.85,-343.73 340.53,-348.56 349.13,-352.93"/>
<polygon fill="#516070" stroke="#516070" points="347.89,-355.44 356.3,-356.48 350.38,-350.42 347.89,-355.44"/>
</g>
<!-- Lease -->
<g id="node5" class="node">
<title>Lease</title>
<path fill="#f0fff4" stroke="#32935f" d="M430,-320.62C430,-320.62 370,-320.62 370,-320.62 364,-320.62 358,-314.62 358,-308.62 358,-308.62 358,-296.62 358,-296.62 358,-290.62 364,-284.62 370,-284.62 370,-284.62 430,-284.62 430,-284.62 436,-284.62 442,-290.62 442,-296.62 442,-296.62 442,-308.62 442,-308.62 442,-314.62 436,-320.62 430,-320.62"/>
<text text-anchor="middle" x="400" y="-305.82" font-family="DejaVu Sans" font-size="11.00">Turn Lease</text>
<text text-anchor="middle" x="400" y="-293.82" font-family="DejaVu Sans" font-size="11.00">wf_rt tokens</text>
</g>
<!-- API&#45;&gt;Lease -->
<g id="edge4" class="edge">
<title>API&#45;&gt;Lease</title>
<path fill="none" stroke="#516070" d="M248.09,-248.7C279.36,-259.87 319.29,-274.14 350.22,-285.19"/>
<polygon fill="#516070" stroke="#516070" points="349.41,-287.87 357.88,-287.93 351.29,-282.6 349.41,-287.87"/>
</g>
<!-- Proxy -->
<g id="node6" class="node">
<title>Proxy</title>
<path fill="#f0fff4" stroke="#32935f" d="M447.5,-248.62C447.5,-248.62 352.5,-248.62 352.5,-248.62 346.5,-248.62 340.5,-242.62 340.5,-236.62 340.5,-236.62 340.5,-224.62 340.5,-224.62 340.5,-218.62 346.5,-212.62 352.5,-212.62 352.5,-212.62 447.5,-212.62 447.5,-212.62 453.5,-212.62 459.5,-218.62 459.5,-224.62 459.5,-224.62 459.5,-236.62 459.5,-236.62 459.5,-242.62 453.5,-248.62 447.5,-248.62"/>
<text text-anchor="middle" x="400" y="-227.82" font-family="DejaVu Sans" font-size="11.00">Internal LLM Proxy</text>
</g>
<!-- API&#45;&gt;Proxy -->
<g id="edge5" class="edge">
<title>API&#45;&gt;Proxy</title>
<path fill="none" stroke="#516070" d="M269.11,-230.62C289.59,-230.62 311.83,-230.62 332.02,-230.62"/>
<polygon fill="#516070" stroke="#516070" points="332.24,-233.42 340.24,-230.62 332.24,-227.82 332.24,-233.42"/>
</g>
<!-- Supervisor -->
<g id="node7" class="node">
<title>Supervisor</title>
<path fill="#fff7e6" stroke="#b87514" d="M456.5,-102.62C456.5,-102.62 343.5,-102.62 343.5,-102.62 337.5,-102.62 331.5,-96.62 331.5,-90.62 331.5,-90.62 331.5,-78.62 331.5,-78.62 331.5,-72.62 337.5,-66.62 343.5,-66.62 343.5,-66.62 456.5,-66.62 456.5,-66.62 462.5,-66.62 468.5,-72.62 468.5,-78.62 468.5,-78.62 468.5,-90.62 468.5,-90.62 468.5,-96.62 462.5,-102.62 456.5,-102.62"/>
<text text-anchor="middle" x="400" y="-87.82" font-family="DejaVu Sans" font-size="11.00">workframe&#45;supervisor</text>
<text text-anchor="middle" x="400" y="-75.82" font-family="DejaVu Sans" font-size="11.00">Docker exec holder</text>
</g>
<!-- API&#45;&gt;Supervisor -->
<g id="edge6" class="edge">
<title>API&#45;&gt;Supervisor</title>
<path fill="none" stroke="#516070" d="M211.47,-212.49C229.17,-190.5 261.55,-153.44 296,-129.62 309.26,-120.45 324.68,-112.52 339.5,-105.97"/>
<polygon fill="#516070" stroke="#516070" points="340.93,-108.41 347.18,-102.68 338.72,-103.26 340.93,-108.41"/>
</g>
<!-- Agents -->
<g id="node9" class="node">
<title>Agents</title>
<path fill="#f7f8fb" stroke="#263244" d="M892,-145.62C892,-145.62 815,-145.62 815,-145.62 809,-145.62 803,-139.62 803,-133.62 803,-133.62 803,-121.62 803,-121.62 803,-115.62 809,-109.62 815,-109.62 815,-109.62 892,-109.62 892,-109.62 898,-109.62 904,-115.62 904,-121.62 904,-121.62 904,-133.62 904,-133.62 904,-139.62 898,-145.62 892,-145.62"/>
<text text-anchor="middle" x="853.5" y="-124.82" font-family="DejaVu Sans" font-size="11.00">runtime/Agents</text>
</g>
<!-- API&#45;&gt;Agents -->
<g id="edge10" class="edge">
<title>API&#45;&gt;Agents</title>
<path fill="none" stroke="#516070" stroke-dasharray="5,2" d="M254.04,-212.56C275.74,-206.15 300.85,-199.35 324,-194.62 413.04,-176.42 676.85,-146.67 794.61,-133.84"/>
<polygon fill="#516070" stroke="#516070" points="795.18,-136.59 802.83,-132.95 794.58,-131.03 795.18,-136.59"/>
<text text-anchor="middle" x="549" y="-171.42" font-family="Times,serif" font-size="14.00">broad mount</text>
</g>
<!-- Files -->
<g id="node10" class="node">
<title>Files</title>
<path fill="#f7f8fb" stroke="#263244" d="M885,-66.62C885,-66.62 822,-66.62 822,-66.62 816,-66.62 810,-60.62 810,-54.62 810,-54.62 810,-42.62 810,-42.62 810,-36.62 816,-30.62 822,-30.62 822,-30.62 885,-30.62 885,-30.62 891,-30.62 897,-36.62 897,-42.62 897,-42.62 897,-54.62 897,-54.62 897,-60.62 891,-66.62 885,-66.62"/>
<text text-anchor="middle" x="853.5" y="-45.82" font-family="DejaVu Sans" font-size="11.00">runtime/Files</text>
</g>
<!-- API&#45;&gt;Files -->
<g id="edge11" class="edge">
<title>API&#45;&gt;Files</title>
<path fill="none" stroke="#516070" stroke-dasharray="5,2" d="M203.53,-212.56C217.54,-173.94 256.31,-84.01 324,-48.62 481.59,33.76 703.46,-8.59 801.97,-34.03"/>
<polygon fill="#516070" stroke="#516070" points="801.54,-36.81 809.99,-36.13 802.96,-31.4 801.54,-36.81"/>
<text text-anchor="middle" x="549" y="-6.42" font-family="Times,serif" font-size="14.00">broad mount</text>
</g>
<!-- Gateway -->
<g id="node8" class="node">
<title>Gateway</title>
<path fill="#f7f8fb" stroke="#263244" d="M736,-102.62C736,-102.62 634,-102.62 634,-102.62 628,-102.62 622,-96.62 622,-90.62 622,-90.62 622,-78.62 622,-78.62 622,-72.62 628,-66.62 634,-66.62 634,-66.62 736,-66.62 736,-66.62 742,-66.62 748,-72.62 748,-78.62 748,-78.62 748,-90.62 748,-90.62 748,-96.62 742,-102.62 736,-102.62"/>
<text text-anchor="middle" x="685" y="-87.82" font-family="DejaVu Sans" font-size="11.00">workframe&#45;gateway</text>
<text text-anchor="middle" x="685" y="-75.82" font-family="DejaVu Sans" font-size="11.00">Hermes profiles</text>
</g>
<!-- Supervisor&#45;&gt;Gateway -->
<g id="edge7" class="edge">
<title>Supervisor&#45;&gt;Gateway</title>
<path fill="none" stroke="#516070" d="M468.79,-84.62C512.5,-84.62 569.25,-84.62 613.49,-84.62"/>
<polygon fill="#516070" stroke="#516070" points="613.6,-87.42 621.6,-84.62 613.6,-81.82 613.6,-87.42"/>
</g>
<!-- Gateway&#45;&gt;Agents -->
<g id="edge8" class="edge">
<title>Gateway&#45;&gt;Agents</title>
<path fill="none" stroke="#516070" d="M748.47,-100.75C763.79,-104.71 780.12,-108.93 795.19,-112.82"/>
<polygon fill="#516070" stroke="#516070" points="794.49,-115.53 802.94,-114.82 795.89,-110.11 794.49,-115.53"/>
</g>
<!-- Gateway&#45;&gt;Files -->
<g id="edge9" class="edge">
<title>Gateway&#45;&gt;Files</title>
<path fill="none" stroke="#516070" d="M748.47,-71.11C766.08,-67.31 785.01,-63.21 801.83,-59.58"/>
<polygon fill="#516070" stroke="#516070" points="802.67,-62.26 809.9,-57.83 801.49,-56.79 802.67,-62.26"/>
</g>
</g>
</svg>
