<?xml version="1.0" encoding="UTF-8" standalone="no"?>
<!DOCTYPE svg PUBLIC "-//W3C//DTD SVG 1.1//EN"
 "http://www.w3.org/Graphics/SVG/1.1/DTD/svg11.dtd">
<!-- Generated by graphviz version 2.42.4 (0)
 -->
<!-- Title: G Pages: 1 -->
<svg width="1057pt" height="480pt"
 viewBox="0.00 0.00 1057.30 479.80" xmlns="http://www.w3.org/2000/svg" xmlns:xlink="http://www.w3.org/1999/xlink">
<g id="graph0" class="graph" transform="scale(1 1) rotate(0) translate(14.4 465.4)">
<title>G</title>
<!-- U -->
<g id="node1" class="node">
<title>U</title>
<path fill="#f7f8fb" stroke="#263244" d="M884.5,-451C884.5,-451 846.5,-451 846.5,-451 840.5,-451 834.5,-445 834.5,-439 834.5,-439 834.5,-427 834.5,-427 834.5,-421 840.5,-415 846.5,-415 846.5,-415 884.5,-415 884.5,-415 890.5,-415 896.5,-421 896.5,-427 896.5,-427 896.5,-439 896.5,-439 896.5,-445 890.5,-451 884.5,-451"/>
<text text-anchor="middle" x="865.5" y="-430.2" font-family="DejaVu Sans" font-size="11.00">Humans</text>
</g>
<!-- Cockpit -->
<g id="node3" class="node">
<title>Cockpit</title>
<path fill="#eaf0ff" stroke="#2f5fb3" stroke-width="2" d="M987,-368C987,-368 834,-368 834,-368 828,-368 822,-362 822,-356 822,-356 822,-344 822,-344 822,-338 828,-332 834,-332 834,-332 987,-332 987,-332 993,-332 999,-338 999,-344 999,-344 999,-356 999,-356 999,-362 993,-368 987,-368"/>
<text text-anchor="middle" x="910.5" y="-353.2" font-family="DejaVu Sans" font-size="11.00">Workframe Cockpit</text>
<text text-anchor="middle" x="910.5" y="-341.2" font-family="DejaVu Sans" font-size="11.00">chat, boards, files, approvals</text>
</g>
<!-- U&#45;&gt;Cockpit -->
<g id="edge1" class="edge">
<title>U&#45;&gt;Cockpit</title>
<path fill="none" stroke="#516070" d="M875.04,-414.82C881.43,-403.33 889.92,-388.04 897,-375.31"/>
<polygon fill="#516070" stroke="#516070" points="899.53,-376.51 900.97,-368.15 894.64,-373.79 899.53,-376.51"/>
</g>
<!-- AG -->
<g id="node2" class="node">
<title>AG</title>
<path fill="#f7f8fb" stroke="#263244" d="M972,-451C972,-451 941,-451 941,-451 935,-451 929,-445 929,-439 929,-439 929,-427 929,-427 929,-421 935,-415 941,-415 941,-415 972,-415 972,-415 978,-415 984,-421 984,-427 984,-427 984,-439 984,-439 984,-445 978,-451 972,-451"/>
<text text-anchor="middle" x="956.5" y="-430.2" font-family="DejaVu Sans" font-size="11.00">Agents</text>
</g>
<!-- AG&#45;&gt;Cockpit -->
<g id="edge2" class="edge">
<title>AG&#45;&gt;Cockpit</title>
<path fill="none" stroke="#516070" d="M946.74,-414.82C940.22,-403.33 931.54,-388.04 924.3,-375.31"/>
<polygon fill="#516070" stroke="#516070" points="926.63,-373.73 920.24,-368.15 921.76,-376.49 926.63,-373.73"/>
</g>
<!-- CP -->
<g id="node4" class="node">
<title>CP</title>
<path fill="#f7f8fb" stroke="#263244" d="M906.5,-285C906.5,-285 726.5,-285 726.5,-285 720.5,-285 714.5,-279 714.5,-273 714.5,-273 714.5,-261 714.5,-261 714.5,-255 720.5,-249 726.5,-249 726.5,-249 906.5,-249 906.5,-249 912.5,-249 918.5,-255 918.5,-261 918.5,-261 918.5,-273 918.5,-273 918.5,-279 912.5,-285 906.5,-285"/>
<text text-anchor="middle" x="816.5" y="-270.2" font-family="DejaVu Sans" font-size="11.00">Control Plane</text>
<text text-anchor="middle" x="816.5" y="-258.2" font-family="DejaVu Sans" font-size="11.00">identity, workspace, policy, billing</text>
</g>
<!-- Cockpit&#45;&gt;CP -->
<g id="edge3" class="edge">
<title>Cockpit&#45;&gt;CP</title>
<path fill="none" stroke="#516070" d="M890.57,-331.82C876.61,-319.79 857.82,-303.6 842.66,-290.54"/>
<polygon fill="#516070" stroke="#516070" points="844.29,-288.25 836.41,-285.15 840.64,-292.5 844.29,-288.25"/>
</g>
<!-- Runs -->
<g id="node5" class="node">
<title>Runs</title>
<path fill="#f0fff4" stroke="#32935f" d="M605,-202C605,-202 496,-202 496,-202 490,-202 484,-196 484,-190 484,-190 484,-178 484,-178 484,-172 490,-166 496,-166 496,-166 605,-166 605,-166 611,-166 617,-172 617,-178 617,-178 617,-190 617,-190 617,-196 611,-202 605,-202"/>
<text text-anchor="middle" x="550.5" y="-187.2" font-family="DejaVu Sans" font-size="11.00">Run Ledger</text>
<text text-anchor="middle" x="550.5" y="-175.2" font-family="DejaVu Sans" font-size="11.00">authority, cost, audit</text>
</g>
<!-- CP&#45;&gt;Runs -->
<g id="edge4" class="edge">
<title>CP&#45;&gt;Runs</title>
<path fill="none" stroke="#516070" d="M760.41,-248.92C717.71,-235.92 658.88,-218 614.37,-204.45"/>
<polygon fill="#516070" stroke="#516070" points="614.98,-201.71 606.51,-202.06 613.35,-207.06 614.98,-201.71"/>
</g>
<!-- Brokers -->
<g id="node6" class="node">
<title>Brokers</title>
<path fill="#f0fff4" stroke="#32935f" d="M887.5,-202C887.5,-202 745.5,-202 745.5,-202 739.5,-202 733.5,-196 733.5,-190 733.5,-190 733.5,-178 733.5,-178 733.5,-172 739.5,-166 745.5,-166 745.5,-166 887.5,-166 887.5,-166 893.5,-166 899.5,-172 899.5,-178 899.5,-178 899.5,-190 899.5,-190 899.5,-196 893.5,-202 887.5,-202"/>
<text text-anchor="middle" x="816.5" y="-187.2" font-family="DejaVu Sans" font-size="11.00">Capability Brokers</text>
<text text-anchor="middle" x="816.5" y="-175.2" font-family="DejaVu Sans" font-size="11.00">secrets, tools, egress, files</text>
</g>
<!-- CP&#45;&gt;Brokers -->
<g id="edge5" class="edge">
<title>CP&#45;&gt;Brokers</title>
<path fill="none" stroke="#516070" d="M816.5,-248.82C816.5,-237.65 816.5,-222.9 816.5,-210.38"/>
<polygon fill="#516070" stroke="#516070" points="819.3,-210.15 816.5,-202.15 813.7,-210.15 819.3,-210.15"/>
</g>
<!-- Engine -->
<g id="node7" class="node">
<title>Engine</title>
<path fill="#fff7e6" stroke="#b87514" d="M189.76,-116.54C189.76,-116.54 127.46,-103.46 127.46,-103.46 121.59,-102.23 121.59,-99.77 127.46,-98.54 127.46,-98.54 189.76,-85.46 189.76,-85.46 195.63,-84.23 207.37,-84.23 213.24,-85.46 213.24,-85.46 275.54,-98.54 275.54,-98.54 281.41,-99.77 281.41,-102.23 275.54,-103.46 275.54,-103.46 213.24,-116.54 213.24,-116.54 207.37,-117.77 195.63,-117.77 189.76,-116.54"/>
<text text-anchor="middle" x="201.5" y="-98.2" font-family="DejaVu Sans" font-size="11.00">Engine Adapter</text>
</g>
<!-- Runs&#45;&gt;Engine -->
<g id="edge6" class="edge">
<title>Runs&#45;&gt;Engine</title>
<path fill="none" stroke="#516070" d="M483.62,-167.48C414.48,-151.43 308.36,-126.8 247.91,-112.77"/>
<polygon fill="#516070" stroke="#516070" points="248.47,-110.03 240.05,-110.95 247.21,-115.48 248.47,-110.03"/>
</g>
<!-- Runtime -->
<g id="node8" class="node">
<title>Runtime</title>
<path fill="#fff7e6" stroke="#b87514" d="M538.72,-116.73C538.72,-116.73 468.69,-103.27 468.69,-103.27 462.8,-102.13 462.8,-99.87 468.69,-98.73 468.69,-98.73 538.72,-85.27 538.72,-85.27 544.61,-84.13 556.39,-84.13 562.28,-85.27 562.28,-85.27 632.31,-98.73 632.31,-98.73 638.2,-99.87 638.2,-102.13 632.31,-103.27 632.31,-103.27 562.28,-116.73 562.28,-116.73 556.39,-117.87 544.61,-117.87 538.72,-116.73"/>
<text text-anchor="middle" x="550.5" y="-98.2" font-family="DejaVu Sans" font-size="11.00">Runtime Adapter</text>
</g>
<!-- Runs&#45;&gt;Runtime -->
<g id="edge7" class="edge">
<title>Runs&#45;&gt;Runtime</title>
<path fill="none" stroke="#516070" d="M550.5,-165.82C550.5,-154.65 550.5,-139.9 550.5,-127.38"/>
<polygon fill="#516070" stroke="#516070" points="553.3,-127.15 550.5,-119.15 547.7,-127.15 553.3,-127.15"/>
</g>
<!-- External -->
<g id="node14" class="node">
<title>External</title>
<path fill="#f7f8fb" stroke="#263244" d="M944.5,-119C944.5,-119 688.5,-119 688.5,-119 682.5,-119 676.5,-113 676.5,-107 676.5,-107 676.5,-95 676.5,-95 676.5,-89 682.5,-83 688.5,-83 688.5,-83 944.5,-83 944.5,-83 950.5,-83 956.5,-89 956.5,-95 956.5,-95 956.5,-107 956.5,-107 956.5,-113 950.5,-119 944.5,-119"/>
<text text-anchor="middle" x="816.5" y="-98.2" font-family="DejaVu Sans" font-size="11.00">GitHub, Linear, Slack, Google, MCP, deploy APIs</text>
</g>
<!-- Brokers&#45;&gt;External -->
<g id="edge13" class="edge">
<title>Brokers&#45;&gt;External</title>
<path fill="none" stroke="#516070" d="M816.5,-165.82C816.5,-154.65 816.5,-139.9 816.5,-127.38"/>
<polygon fill="#516070" stroke="#516070" points="819.3,-127.15 816.5,-119.15 813.7,-127.15 819.3,-127.15"/>
</g>
<!-- Hermes -->
<g id="node9" class="node">
<title>Hermes</title>
<path fill="#f7f8fb" stroke="#263244" d="M47,-36C47,-36 12,-36 12,-36 6,-36 0,-30 0,-24 0,-24 0,-12 0,-12 0,-6 6,0 12,0 12,0 47,0 47,0 53,0 59,-6 59,-12 59,-12 59,-24 59,-24 59,-30 53,-36 47,-36"/>
<text text-anchor="middle" x="29.5" y="-15.2" font-family="DejaVu Sans" font-size="11.00">Hermes</text>
</g>
<!-- Engine&#45;&gt;Hermes -->
<g id="edge8" class="edge">
<title>Engine&#45;&gt;Hermes</title>
<path fill="none" stroke="#516070" d="M176.49,-88.22C147.56,-74.6 99.65,-52.04 66.43,-36.39"/>
<polygon fill="#516070" stroke="#516070" points="67.59,-33.84 59.16,-32.97 65.21,-38.91 67.59,-33.84"/>
</g>
<!-- Pi -->
<g id="node10" class="node">
<title>Pi</title>
<path fill="#f7f8fb" stroke="#263244" d="M300,-36C300,-36 103,-36 103,-36 97,-36 91,-30 91,-24 91,-24 91,-12 91,-12 91,-6 97,0 103,0 103,0 300,0 300,0 306,0 312,-6 312,-12 312,-12 312,-24 312,-24 312,-30 306,-36 300,-36"/>
<text text-anchor="middle" x="201.5" y="-15.2" font-family="DejaVu Sans" font-size="11.00">Pi / Claude Code / Codex / OpenCode</text>
</g>
<!-- Engine&#45;&gt;Pi -->
<g id="edge9" class="edge">
<title>Engine&#45;&gt;Pi</title>
<path fill="none" stroke="#516070" d="M201.5,-82.82C201.5,-71.65 201.5,-56.9 201.5,-44.38"/>
<polygon fill="#516070" stroke="#516070" points="204.3,-44.15 201.5,-36.15 198.7,-44.15 204.3,-44.15"/>
</g>
<!-- AgentOS -->
<g id="node11" class="node">
<title>AgentOS</title>
<path fill="#f7f8fb" stroke="#263244" d="M493,-36C493,-36 356,-36 356,-36 350,-36 344,-30 344,-24 344,-24 344,-12 344,-12 344,-6 350,0 356,0 356,0 493,0 493,0 499,0 505,-6 505,-12 505,-12 505,-24 505,-24 505,-30 499,-36 493,-36"/>
<text text-anchor="middle" x="424.5" y="-15.2" font-family="DejaVu Sans" font-size="11.00">Lightweight VM / AgentOS</text>
</g>
<!-- Runtime&#45;&gt;AgentOS -->
<g id="edge10" class="edge">
<title>Runtime&#45;&gt;AgentOS</title>
<path fill="none" stroke="#516070" d="M529.98,-86.81C510.51,-74.29 480.92,-55.27 458.03,-40.56"/>
<polygon fill="#516070" stroke="#516070" points="459.4,-38.11 451.16,-36.14 456.38,-42.82 459.4,-38.11"/>
</g>
<!-- Sandbox -->
<g id="node12" class="node">
<title>Sandbox</title>
<path fill="#f7f8fb" stroke="#263244" d="M611.5,-36C611.5,-36 549.5,-36 549.5,-36 543.5,-36 537.5,-30 537.5,-24 537.5,-24 537.5,-12 537.5,-12 537.5,-6 543.5,0 549.5,0 549.5,0 611.5,0 611.5,0 617.5,0 623.5,-6 623.5,-12 623.5,-12 623.5,-24 623.5,-24 623.5,-30 617.5,-36 611.5,-36"/>
<text text-anchor="middle" x="580.5" y="-15.2" font-family="DejaVu Sans" font-size="11.00">Full Sandbox</text>
</g>
<!-- Runtime&#45;&gt;Sandbox -->
<g id="edge11" class="edge">
<title>Runtime&#45;&gt;Sandbox</title>
<path fill="none" stroke="#516070" d="M556.43,-84C560.67,-72.54 566.46,-56.9 571.3,-43.83"/>
<polygon fill="#516070" stroke="#516070" points="574.02,-44.56 574.17,-36.09 568.77,-42.62 574.02,-44.56"/>
</g>
<!-- BYOC -->
<g id="node13" class="node">
<title>BYOC</title>
<path fill="#f7f8fb" stroke="#263244" d="M821.5,-36C821.5,-36 667.5,-36 667.5,-36 661.5,-36 655.5,-30 655.5,-24 655.5,-24 655.5,-12 655.5,-12 655.5,-6 661.5,0 667.5,0 667.5,0 821.5,0 821.5,0 827.5,0 833.5,-6 833.5,-12 833.5,-12 833.5,-24 833.5,-24 833.5,-30 827.5,-36 821.5,-36"/>
<text text-anchor="middle" x="744.5" y="-15.2" font-family="DejaVu Sans" font-size="11.00">Local Daemon / BYOC Runner</text>
</g>
<!-- Runtime&#45;&gt;BYOC -->
<g id="edge12" class="edge">
<title>Runtime&#45;&gt;BYOC</title>
<path fill="none" stroke="#516070" d="M578.71,-88.22C609.42,-75.4 659.08,-54.67 696.05,-39.23"/>
<polygon fill="#516070" stroke="#516070" points="697.44,-41.68 703.74,-36.02 695.28,-36.52 697.44,-41.68"/>
</g>
<!-- Artifacts -->
<g id="node15" class="node">
<title>Artifacts</title>
<path fill="#f7f8fb" stroke="#263244" d="M1016.5,-36C1016.5,-36 936.5,-36 936.5,-36 930.5,-36 924.5,-30 924.5,-24 924.5,-24 924.5,-12 924.5,-12 924.5,-6 930.5,0 936.5,0 936.5,0 1016.5,0 1016.5,0 1022.5,0 1028.5,-6 1028.5,-12 1028.5,-12 1028.5,-24 1028.5,-24 1028.5,-30 1022.5,-36 1016.5,-36"/>
<text text-anchor="middle" x="976.5" y="-15.2" font-family="DejaVu Sans" font-size="11.00">Artifacts + Files</text>
</g>
<!-- Runtime&#45;&gt;Artifacts -->
<g id="edge14" class="edge">
<title>Runtime&#45;&gt;Artifacts</title>
<path fill="none" stroke="#516070" d="M595.28,-91.48C672.35,-76.83 830.06,-46.84 916.52,-30.4"/>
<polygon fill="#516070" stroke="#516070" points="917.07,-33.15 924.4,-28.91 916.02,-27.65 917.07,-33.15"/>
</g>
<!-- Artifacts&#45;&gt;Cockpit -->
<g id="edge15" class="edge">
<title>Artifacts&#45;&gt;Cockpit</title>
<path fill="none" stroke="#516070" d="M976.77,-36.07C976.87,-56.04 976.36,-90.07 972.5,-119 962.5,-194.02 956.28,-212.52 934.5,-285 930.56,-298.11 925.3,-312.4 920.7,-324.15"/>
<polygon fill="#516070" stroke="#516070" points="918,-323.36 917.65,-331.83 923.21,-325.43 918,-323.36"/>
</g>
</g>
</svg>
