<?xml version="1.0" encoding="UTF-8" standalone="no"?>
<!DOCTYPE svg PUBLIC "-//W3C//DTD SVG 1.1//EN"
 "http://www.w3.org/Graphics/SVG/1.1/DTD/svg11.dtd">
<!-- Generated by graphviz version 2.42.4 (0)
 -->
<!-- Title: G Pages: 1 -->
<svg width="1167pt" height="473pt"
 viewBox="0.00 0.00 1166.80 472.80" xmlns="http://www.w3.org/2000/svg" xmlns:xlink="http://www.w3.org/1999/xlink">
<g id="graph0" class="graph" transform="scale(1 1) rotate(0) translate(14.4 458.4)">
<title>G</title>
<!-- I -->
<g id="node1" class="node">
<title>I</title>
<path fill="#f7f8fb" stroke="#263244" d="M128,-240C128,-240 12,-240 12,-240 6,-240 0,-234 0,-228 0,-228 0,-216 0,-216 0,-210 6,-204 12,-204 12,-204 128,-204 128,-204 134,-204 140,-210 140,-216 140,-216 140,-228 140,-228 140,-234 134,-240 128,-240"/>
<text text-anchor="middle" x="70" y="-225.6" font-family="DejaVu Sans" font-size="10.50">Initiator</text>
<text text-anchor="middle" x="70" y="-213.6" font-family="DejaVu Sans" font-size="10.50">human or parent agent</text>
</g>
<!-- Budget -->
<g id="node2" class="node">
<title>Budget</title>
<path fill="#eaf0ff" stroke="#2f5fb3" d="M387,-240C387,-240 199,-240 199,-240 193,-240 187,-234 187,-228 187,-228 187,-216 187,-216 187,-210 193,-204 199,-204 199,-204 387,-204 387,-204 393,-204 399,-210 399,-216 399,-216 399,-228 399,-228 399,-234 393,-240 387,-240"/>
<text text-anchor="middle" x="293" y="-225.6" font-family="DejaVu Sans" font-size="10.50">Budget / Credits</text>
<text text-anchor="middle" x="293" y="-213.6" font-family="DejaVu Sans" font-size="10.50">Stripe, BYOK, crypto, company wallet</text>
</g>
<!-- I&#45;&gt;Budget -->
<g id="edge1" class="edge">
<title>I&#45;&gt;Budget</title>
<path fill="none" stroke="#516070" d="M140.02,-222C152.29,-222 165.36,-222 178.48,-222"/>
<polygon fill="#516070" stroke="#516070" points="178.66,-224.8 186.66,-222 178.66,-219.2 178.66,-224.8"/>
</g>
<!-- Run -->
<g id="node3" class="node">
<title>Run</title>
<path fill="#f0fff4" stroke="#32935f" d="M508,-240C508,-240 458,-240 458,-240 452,-240 446,-234 446,-228 446,-228 446,-216 446,-216 446,-210 452,-204 458,-204 458,-204 508,-204 508,-204 514,-204 520,-210 520,-216 520,-216 520,-228 520,-228 520,-234 514,-240 508,-240"/>
<text text-anchor="middle" x="483" y="-219.6" font-family="DejaVu Sans" font-size="10.50">Parent Run</text>
</g>
<!-- Budget&#45;&gt;Run -->
<g id="edge2" class="edge">
<title>Budget&#45;&gt;Run</title>
<path fill="none" stroke="#516070" d="M399.27,-222C412.77,-222 425.96,-222 437.7,-222"/>
<polygon fill="#516070" stroke="#516070" points="437.97,-224.8 445.97,-222 437.97,-219.2 437.97,-224.8"/>
</g>
<!-- Text -->
<g id="node4" class="node">
<title>Text</title>
<path fill="#f7f8fb" stroke="#263244" d="M674,-444C674,-444 624,-444 624,-444 618,-444 612,-438 612,-432 612,-432 612,-420 612,-420 612,-414 618,-408 624,-408 624,-408 674,-408 674,-408 680,-408 686,-414 686,-420 686,-420 686,-432 686,-432 686,-438 680,-444 674,-444"/>
<text text-anchor="middle" x="649" y="-429.6" font-family="DejaVu Sans" font-size="10.50">Text model</text>
<text text-anchor="middle" x="649" y="-417.6" font-family="DejaVu Sans" font-size="10.50">tokens</text>
</g>
<!-- Run&#45;&gt;Text -->
<g id="edge3" class="edge">
<title>Run&#45;&gt;Text</title>
<path fill="none" stroke="#516070" d="M488.3,-240.18C497.27,-274.34 521.04,-348.58 567,-392 577.38,-401.81 591,-408.99 604.1,-414.15"/>
<polygon fill="#516070" stroke="#516070" points="603.26,-416.82 611.73,-416.96 605.19,-411.57 603.26,-416.82"/>
</g>
<!-- Img -->
<g id="node5" class="node">
<title>Img</title>
<path fill="#f7f8fb" stroke="#263244" d="M693,-376C693,-376 605,-376 605,-376 599,-376 593,-370 593,-364 593,-364 593,-352 593,-352 593,-346 599,-340 605,-340 605,-340 693,-340 693,-340 699,-340 705,-346 705,-352 705,-352 705,-364 705,-364 705,-370 699,-376 693,-376"/>
<text text-anchor="middle" x="649" y="-361.6" font-family="DejaVu Sans" font-size="10.50">Image model</text>
<text text-anchor="middle" x="649" y="-349.6" font-family="DejaVu Sans" font-size="10.50">request + params</text>
</g>
<!-- Run&#45;&gt;Img -->
<g id="edge4" class="edge">
<title>Run&#45;&gt;Img</title>
<path fill="none" stroke="#516070" d="M494.79,-240.14C508.9,-262.51 535.56,-300.47 567,-324 573.23,-328.66 580.19,-332.81 587.34,-336.48"/>
<polygon fill="#516070" stroke="#516070" points="586.12,-339 594.54,-339.98 588.57,-333.96 586.12,-339"/>
</g>
<!-- Vid -->
<g id="node6" class="node">
<title>Vid</title>
<path fill="#f7f8fb" stroke="#263244" d="M678.5,-308C678.5,-308 619.5,-308 619.5,-308 613.5,-308 607.5,-302 607.5,-296 607.5,-296 607.5,-284 607.5,-284 607.5,-278 613.5,-272 619.5,-272 619.5,-272 678.5,-272 678.5,-272 684.5,-272 690.5,-278 690.5,-284 690.5,-284 690.5,-296 690.5,-296 690.5,-302 684.5,-308 678.5,-308"/>
<text text-anchor="middle" x="649" y="-293.6" font-family="DejaVu Sans" font-size="10.50">Video model</text>
<text text-anchor="middle" x="649" y="-281.6" font-family="DejaVu Sans" font-size="10.50">seconds</text>
</g>
<!-- Run&#45;&gt;Vid -->
<g id="edge5" class="edge">
<title>Run&#45;&gt;Vid</title>
<path fill="none" stroke="#516070" d="M520.4,-237.09C543.74,-246.77 574.32,-259.45 599.69,-269.97"/>
<polygon fill="#516070" stroke="#516070" points="598.92,-272.68 607.38,-273.16 601.07,-267.51 598.92,-272.68"/>
</g>
<!-- Audio -->
<g id="node7" class="node">
<title>Audio</title>
<path fill="#f7f8fb" stroke="#263244" d="M686.5,-240C686.5,-240 611.5,-240 611.5,-240 605.5,-240 599.5,-234 599.5,-228 599.5,-228 599.5,-216 599.5,-216 599.5,-210 605.5,-204 611.5,-204 611.5,-204 686.5,-204 686.5,-204 692.5,-204 698.5,-210 698.5,-216 698.5,-216 698.5,-228 698.5,-228 698.5,-234 692.5,-240 686.5,-240"/>
<text text-anchor="middle" x="649" y="-225.6" font-family="DejaVu Sans" font-size="10.50">Audio model</text>
<text text-anchor="middle" x="649" y="-213.6" font-family="DejaVu Sans" font-size="10.50">seconds / chars</text>
</g>
<!-- Run&#45;&gt;Audio -->
<g id="edge6" class="edge">
<title>Run&#45;&gt;Audio</title>
<path fill="none" stroke="#516070" d="M520.4,-222C541.16,-222 567.65,-222 591.1,-222"/>
<polygon fill="#516070" stroke="#516070" points="591.26,-224.8 599.26,-222 591.26,-219.2 591.26,-224.8"/>
</g>
<!-- Tool -->
<g id="node8" class="node">
<title>Tool</title>
<path fill="#f7f8fb" stroke="#263244" d="M666,-172C666,-172 632,-172 632,-172 626,-172 620,-166 620,-160 620,-160 620,-148 620,-148 620,-142 626,-136 632,-136 632,-136 666,-136 666,-136 672,-136 678,-142 678,-148 678,-148 678,-160 678,-160 678,-166 672,-172 666,-172"/>
<text text-anchor="middle" x="649" y="-157.6" font-family="DejaVu Sans" font-size="10.50">Tool/API</text>
<text text-anchor="middle" x="649" y="-145.6" font-family="DejaVu Sans" font-size="10.50">per call</text>
</g>
<!-- Run&#45;&gt;Tool -->
<g id="edge7" class="edge">
<title>Run&#45;&gt;Tool</title>
<path fill="none" stroke="#516070" d="M520.4,-206.91C547.83,-195.54 585.24,-180.02 612.46,-168.74"/>
<polygon fill="#516070" stroke="#516070" points="613.53,-171.32 619.85,-165.67 611.39,-166.15 613.53,-171.32"/>
</g>
<!-- Sandbox -->
<g id="node9" class="node">
<title>Sandbox</title>
<path fill="#f7f8fb" stroke="#263244" d="M706,-104C706,-104 592,-104 592,-104 586,-104 580,-98 580,-92 580,-92 580,-80 580,-80 580,-74 586,-68 592,-68 592,-68 706,-68 706,-68 712,-68 718,-74 718,-80 718,-80 718,-92 718,-92 718,-98 712,-104 706,-104"/>
<text text-anchor="middle" x="649" y="-89.6" font-family="DejaVu Sans" font-size="10.50">Runtime</text>
<text text-anchor="middle" x="649" y="-77.6" font-family="DejaVu Sans" font-size="10.50">seconds, CPU, memory</text>
</g>
<!-- Run&#45;&gt;Sandbox -->
<g id="edge8" class="edge">
<title>Run&#45;&gt;Sandbox</title>
<path fill="none" stroke="#516070" d="M494.79,-203.86C508.9,-181.49 535.56,-143.53 567,-120 573.23,-115.34 580.19,-111.19 587.34,-107.52"/>
<polygon fill="#516070" stroke="#516070" points="588.57,-110.04 594.54,-104.02 586.12,-105 588.57,-110.04"/>
</g>
<!-- Child -->
<g id="node10" class="node">
<title>Child</title>
<path fill="#f7f8fb" stroke="#263244" d="M719,-36C719,-36 579,-36 579,-36 573,-36 567,-30 567,-24 567,-24 567,-12 567,-12 567,-6 573,0 579,0 579,0 719,0 719,0 725,0 731,-6 731,-12 731,-12 731,-24 731,-24 731,-30 725,-36 719,-36"/>
<text text-anchor="middle" x="649" y="-21.6" font-family="DejaVu Sans" font-size="10.50">Child Agent Run</text>
<text text-anchor="middle" x="649" y="-9.6" font-family="DejaVu Sans" font-size="10.50">inherits payer + cost center</text>
</g>
<!-- Run&#45;&gt;Child -->
<g id="edge9" class="edge">
<title>Run&#45;&gt;Child</title>
<path fill="none" stroke="#516070" d="M488.3,-203.82C497.27,-169.66 521.04,-95.42 567,-52 571.86,-47.41 577.43,-43.39 583.33,-39.89"/>
<polygon fill="#516070" stroke="#516070" points="584.72,-42.32 590.38,-36.01 582.02,-37.41 584.72,-42.32"/>
</g>
<!-- Ledger -->
<g id="node11" class="node">
<title>Ledger</title>
<path fill="#f0fff4" stroke="#32935f" stroke-width="2" d="M876,-240C876,-240 790,-240 790,-240 784,-240 778,-234 778,-228 778,-228 778,-216 778,-216 778,-210 784,-204 790,-204 790,-204 876,-204 876,-204 882,-204 888,-210 888,-216 888,-216 888,-228 888,-228 888,-234 882,-240 876,-240"/>
<text text-anchor="middle" x="833" y="-225.6" font-family="DejaVu Sans" font-size="10.50">Run Ledger</text>
<text text-anchor="middle" x="833" y="-213.6" font-family="DejaVu Sans" font-size="10.50">line items + audit</text>
</g>
<!-- Text&#45;&gt;Ledger -->
<g id="edge10" class="edge">
<title>Text&#45;&gt;Ledger</title>
<path fill="none" stroke="#516070" d="M686.23,-416.33C701.3,-410.98 718.23,-403.11 731,-392 777.35,-351.67 808.25,-284.65 822.66,-247.96"/>
<polygon fill="#516070" stroke="#516070" points="825.39,-248.66 825.64,-240.18 820.16,-246.65 825.39,-248.66"/>
</g>
<!-- Img&#45;&gt;Ledger -->
<g id="edge11" class="edge">
<title>Img&#45;&gt;Ledger</title>
<path fill="none" stroke="#516070" d="M701.7,-339.89C711.8,-335.37 722.03,-330.06 731,-324 763.15,-302.3 793.54,-269.28 812.42,-246.73"/>
<polygon fill="#516070" stroke="#516070" points="814.73,-248.33 817.67,-240.38 810.42,-244.76 814.73,-248.33"/>
</g>
<!-- Vid&#45;&gt;Ledger -->
<g id="edge12" class="edge">
<title>Vid&#45;&gt;Ledger</title>
<path fill="none" stroke="#516070" d="M690.84,-274.74C715.94,-265.36 748.45,-253.22 775.93,-242.95"/>
<polygon fill="#516070" stroke="#516070" points="777.03,-245.53 783.54,-240.1 775.07,-240.28 777.03,-245.53"/>
</g>
<!-- Audio&#45;&gt;Ledger -->
<g id="edge13" class="edge">
<title>Audio&#45;&gt;Ledger</title>
<path fill="none" stroke="#516070" d="M698.77,-222C720.62,-222 746.65,-222 769.88,-222"/>
<polygon fill="#516070" stroke="#516070" points="769.96,-224.8 777.96,-222 769.96,-219.2 769.96,-224.8"/>
</g>
<!-- Tool&#45;&gt;Ledger -->
<g id="edge14" class="edge">
<title>Tool&#45;&gt;Ledger</title>
<path fill="none" stroke="#516070" d="M678.04,-164.48C704.07,-174.2 743.58,-188.97 776.06,-201.1"/>
<polygon fill="#516070" stroke="#516070" points="775.26,-203.79 783.73,-203.96 777.22,-198.54 775.26,-203.79"/>
</g>
<!-- Sandbox&#45;&gt;Ledger -->
<g id="edge15" class="edge">
<title>Sandbox&#45;&gt;Ledger</title>
<path fill="none" stroke="#516070" d="M701.7,-104.11C711.8,-108.63 722.03,-113.94 731,-120 763.15,-141.7 793.54,-174.72 812.42,-197.27"/>
<polygon fill="#516070" stroke="#516070" points="810.42,-199.24 817.67,-203.62 814.73,-195.67 810.42,-199.24"/>
</g>
<!-- Child&#45;&gt;Ledger -->
<g id="edge16" class="edge">
<title>Child&#45;&gt;Ledger</title>
<path fill="none" stroke="#516070" d="M706.34,-36.08C715.17,-40.43 723.75,-45.69 731,-52 777.35,-92.33 808.25,-159.35 822.66,-196.04"/>
<polygon fill="#516070" stroke="#516070" points="820.16,-197.35 825.64,-203.82 825.39,-195.34 820.16,-197.35"/>
</g>
<!-- Invoice -->
<g id="node12" class="node">
<title>Invoice</title>
<path fill="#fff7e6" stroke="#b87514" d="M1126,-240C1126,-240 947,-240 947,-240 941,-240 935,-234 935,-228 935,-228 935,-216 935,-216 935,-210 941,-204 947,-204 947,-204 1126,-204 1126,-204 1132,-204 1138,-210 1138,-216 1138,-216 1138,-228 1138,-228 1138,-234 1132,-240 1126,-240"/>
<text text-anchor="middle" x="1036.5" y="-219.6" font-family="DejaVu Sans" font-size="10.50">Invoice / Charge / Credit Deduction</text>
</g>
<!-- Ledger&#45;&gt;Invoice -->
<g id="edge17" class="edge">
<title>Ledger&#45;&gt;Invoice</title>
<path fill="none" stroke="#516070" d="M888.26,-222C900.23,-222 913.32,-222 926.61,-222"/>
<polygon fill="#516070" stroke="#516070" points="926.89,-224.8 934.89,-222 926.89,-219.2 926.89,-224.8"/>
</g>
</g>
</svg>
