<?xml version="1.0" encoding="UTF-8" standalone="no"?>
<!DOCTYPE svg PUBLIC "-//W3C//DTD SVG 1.1//EN"
 "http://www.w3.org/Graphics/SVG/1.1/DTD/svg11.dtd">
<!-- Generated by graphviz version 2.42.4 (0)
 -->
<!-- Title: G Pages: 1 -->
<svg width="1176pt" height="163pt"
 viewBox="0.00 0.00 1175.80 162.80" xmlns="http://www.w3.org/2000/svg" xmlns:xlink="http://www.w3.org/1999/xlink">
<g id="graph0" class="graph" transform="scale(1 1) rotate(0) translate(14.4 148.4)">
<title>G</title>
<!-- Users -->
<g id="node1" class="node">
<title>Users</title>
<path fill="#f7f8fb" stroke="#263244" d="M116,-68C116,-68 12,-68 12,-68 6,-68 0,-62 0,-56 0,-56 0,-44 0,-44 0,-38 6,-32 12,-32 12,-32 116,-32 116,-32 122,-32 128,-38 128,-44 128,-44 128,-56 128,-56 128,-62 122,-68 116,-68"/>
<text text-anchor="middle" x="64" y="-47.6" font-family="DejaVu Sans" font-size="10.50">Users run businesses</text>
</g>
<!-- Runs -->
<g id="node2" class="node">
<title>Runs</title>
<path fill="#f7f8fb" stroke="#263244" d="M294,-101C294,-101 183,-101 183,-101 177,-101 171,-95 171,-89 171,-89 171,-77 171,-77 171,-71 177,-65 183,-65 183,-65 294,-65 294,-65 300,-65 306,-71 306,-77 306,-77 306,-89 306,-89 306,-95 300,-101 294,-101"/>
<text text-anchor="middle" x="238.5" y="-80.6" font-family="DejaVu Sans" font-size="10.50">Runs produce artifacts</text>
</g>
<!-- Users&#45;&gt;Runs -->
<g id="edge1" class="edge">
<title>Users&#45;&gt;Runs</title>
<path fill="none" stroke="#516070" d="M128.25,-62.1C139.5,-64.25 151.32,-66.51 162.85,-68.72"/>
<polygon fill="#516070" stroke="#516070" points="162.39,-71.48 170.78,-70.24 163.44,-65.98 162.39,-71.48"/>
</g>
<!-- Skills -->
<g id="node3" class="node">
<title>Skills</title>
<path fill="#f7f8fb" stroke="#263244" d="M501,-101C501,-101 361,-101 361,-101 355,-101 349,-95 349,-89 349,-89 349,-77 349,-77 349,-71 355,-65 361,-65 361,-65 501,-65 501,-65 507,-65 513,-71 513,-77 513,-77 513,-89 513,-89 513,-95 507,-101 501,-101"/>
<text text-anchor="middle" x="431" y="-86.6" font-family="DejaVu Sans" font-size="10.50">Repeated success becomes</text>
<text text-anchor="middle" x="431" y="-74.6" font-family="DejaVu Sans" font-size="10.50">skills / playbooks</text>
</g>
<!-- Runs&#45;&gt;Skills -->
<g id="edge2" class="edge">
<title>Runs&#45;&gt;Skills</title>
<path fill="none" stroke="#516070" d="M306.13,-83C317.37,-83 329.21,-83 340.91,-83"/>
<polygon fill="#516070" stroke="#516070" points="340.99,-85.8 348.99,-83 340.99,-80.2 340.99,-85.8"/>
</g>
<!-- Market -->
<g id="node4" class="node">
<title>Market</title>
<path fill="#eaf0ff" stroke="#2f5fb3" stroke-width="2" d="M741,-101C741,-101 568,-101 568,-101 562,-101 556,-95 556,-89 556,-89 556,-77 556,-77 556,-71 562,-65 568,-65 568,-65 741,-65 741,-65 747,-65 753,-71 753,-77 753,-77 753,-89 753,-89 753,-95 747,-101 741,-101"/>
<text text-anchor="middle" x="654.5" y="-86.6" font-family="DejaVu Sans" font-size="10.50">Marketplace</text>
<text text-anchor="middle" x="654.5" y="-74.6" font-family="DejaVu Sans" font-size="10.50">agents, skills, runtimes, CLIs, tools</text>
</g>
<!-- Skills&#45;&gt;Market -->
<g id="edge3" class="edge">
<title>Skills&#45;&gt;Market</title>
<path fill="none" stroke="#516070" d="M513.22,-83C524.46,-83 536.13,-83 547.73,-83"/>
<polygon fill="#516070" stroke="#516070" points="547.74,-85.8 555.74,-83 547.74,-80.2 547.74,-85.8"/>
</g>
<!-- Cells -->
<g id="node5" class="node">
<title>Cells</title>
<path fill="#f7f8fb" stroke="#263244" d="M926,-36C926,-36 816,-36 816,-36 810,-36 804,-30 804,-24 804,-24 804,-12 804,-12 804,-6 810,0 816,0 816,0 926,0 926,0 932,0 938,-6 938,-12 938,-12 938,-24 938,-24 938,-30 932,-36 926,-36"/>
<text text-anchor="middle" x="871" y="-15.6" font-family="DejaVu Sans" font-size="10.50">More Workframe Cells</text>
</g>
<!-- Market&#45;&gt;Cells -->
<g id="edge4" class="edge">
<title>Market&#45;&gt;Cells</title>
<path fill="none" stroke="#516070" d="M714.97,-64.98C742.16,-56.74 774.52,-46.93 802.61,-38.42"/>
<polygon fill="#516070" stroke="#516070" points="803.57,-41.05 810.42,-36.05 801.95,-35.7 803.57,-41.05"/>
</g>
<!-- Revenue -->
<g id="node6" class="node">
<title>Revenue</title>
<path fill="#fff7e6" stroke="#b87514" d="M934,-102C934,-102 808,-102 808,-102 802,-102 796,-96 796,-90 796,-90 796,-78 796,-78 796,-72 802,-66 808,-66 808,-66 934,-66 934,-66 940,-66 946,-72 946,-78 946,-78 946,-90 946,-90 946,-96 940,-102 934,-102"/>
<text text-anchor="middle" x="871" y="-87.6" font-family="DejaVu Sans" font-size="10.50">Take rate + subscriptions</text>
<text text-anchor="middle" x="871" y="-75.6" font-family="DejaVu Sans" font-size="10.50">+ provisioning</text>
</g>
<!-- Market&#45;&gt;Revenue -->
<g id="edge6" class="edge">
<title>Market&#45;&gt;Revenue</title>
<path fill="none" stroke="#516070" d="M753.02,-83.45C764.6,-83.51 776.33,-83.56 787.66,-83.62"/>
<polygon fill="#516070" stroke="#516070" points="787.83,-86.42 795.84,-83.65 787.86,-80.82 787.83,-86.42"/>
</g>
<!-- Cells&#45;&gt;Users -->
<g id="edge5" class="edge">
<title>Cells&#45;&gt;Users</title>
<path fill="none" stroke="#516070" d="M803.76,-20.63C654.04,-26.58 290.61,-41.03 136.25,-47.17"/>
<polygon fill="#516070" stroke="#516070" points="136.05,-44.37 128.17,-47.49 136.27,-49.97 136.05,-44.37"/>
</g>
<!-- Builders -->
<g id="node7" class="node">
<title>Builders</title>
<path fill="#f7f8fb" stroke="#263244" d="M1135,-134C1135,-134 1001,-134 1001,-134 995,-134 989,-128 989,-122 989,-122 989,-110 989,-110 989,-104 995,-98 1001,-98 1001,-98 1135,-98 1135,-98 1141,-98 1147,-104 1147,-110 1147,-110 1147,-122 1147,-122 1147,-128 1141,-134 1135,-134"/>
<text text-anchor="middle" x="1068" y="-113.6" font-family="DejaVu Sans" font-size="10.50">More builders and vendors</text>
</g>
<!-- Revenue&#45;&gt;Builders -->
<g id="edge7" class="edge">
<title>Revenue&#45;&gt;Builders</title>
<path fill="none" stroke="#516070" d="M946.28,-96.19C957.56,-98.04 969.28,-99.96 980.79,-101.85"/>
<polygon fill="#516070" stroke="#516070" points="980.37,-104.62 988.71,-103.15 981.27,-99.09 980.37,-104.62"/>
</g>
<!-- Builders&#45;&gt;Market -->
<g id="edge8" class="edge">
<title>Builders&#45;&gt;Market</title>
<path fill="none" stroke="#516070" d="M988.89,-116.74C974.62,-116.85 959.86,-116.94 946,-117 879.33,-117.28 862.2,-124.9 796,-117 772.26,-114.17 746.73,-108.74 724.03,-103.03"/>
<polygon fill="#516070" stroke="#516070" points="724.58,-100.28 716.13,-101 723.18,-105.7 724.58,-100.28"/>
</g>
</g>
</svg>
