<svg width="336" height="47" viewBox="0 0 336 47" fill="none" xmlns="http://www.w3.org/2000/svg">
<g clip-path="url(#clip0_154_22137)">
<path d="M320.852 46.397C317.565 46.397 314.727 45.7141 312.336 44.3482C309.96 42.9681 308.132 41.0189 306.851 38.5005C305.571 35.968 304.931 32.9872 304.931 29.5583C304.931 26.1863 305.571 23.2269 306.851 20.6801C308.146 18.1191 309.953 16.1271 312.272 14.7044C314.591 13.2673 317.316 12.5488 320.446 12.5488C322.466 12.5488 324.373 12.8761 326.166 13.5306C327.973 14.1708 329.566 15.1668 330.946 16.5184C332.341 17.8701 333.436 19.5916 334.233 21.6831C335.03 23.7604 335.428 26.2361 335.428 29.1101V31.4791H308.559V26.2716H328.022C328.008 24.7919 327.688 23.4759 327.062 22.3234C326.436 21.1567 325.561 20.239 324.437 19.5703C323.327 18.9016 322.033 18.5672 320.553 18.5672C318.974 18.5672 317.586 18.9514 316.391 19.7197C315.196 20.4738 314.264 21.4697 313.595 22.7076C312.941 23.9312 312.607 25.2757 312.592 26.7412V31.287C312.592 33.1935 312.941 34.8297 313.638 36.1956C314.335 37.5473 315.31 38.5859 316.562 39.3115C317.814 40.0229 319.279 40.3786 320.958 40.3786C322.082 40.3786 323.1 40.2221 324.01 39.9091C324.921 39.5818 325.71 39.1052 326.379 38.4792C327.048 37.8532 327.553 37.0777 327.894 36.1529L335.108 36.9639C334.653 38.8705 333.785 40.5351 332.504 41.9579C331.238 43.3665 329.616 44.462 327.638 45.2446C325.661 46.0129 323.398 46.397 320.852 46.397Z" fill="black"/>
<path d="M252.403 45.7568V12.9757H259.788V18.5459H260.172C260.855 16.6678 261.986 15.2023 263.565 14.1495C265.144 13.0824 267.03 12.5488 269.221 12.5488C271.44 12.5488 273.311 13.0895 274.834 14.1708C276.37 15.2379 277.451 16.6963 278.077 18.5459H278.419C279.145 16.7247 280.368 15.2735 282.09 14.1922C283.825 13.0966 285.881 12.5488 288.257 12.5488C291.274 12.5488 293.735 13.5021 295.642 15.4086C297.548 17.3152 298.501 20.0967 298.501 23.7533V45.7568H290.754V24.9484C290.754 22.9139 290.214 21.427 289.132 20.488C288.051 19.5347 286.728 19.0581 285.163 19.0581C283.299 19.0581 281.841 19.6414 280.788 20.8081C279.749 21.9606 279.23 23.4616 279.23 25.3113V45.7568H271.654V24.6283C271.654 22.9352 271.141 21.5835 270.117 20.5734C269.107 19.5632 267.784 19.0581 266.147 19.0581C265.038 19.0581 264.027 19.3427 263.117 19.9118C262.206 20.4667 261.481 21.2563 260.94 22.2807C260.399 23.2909 260.129 24.4718 260.129 25.8235V45.7568H252.403Z" fill="black"/>
<path d="M239.732 46.2257C238.437 46.2257 237.327 45.7704 236.402 44.8598C235.478 43.9492 235.022 42.8394 235.036 41.5304C235.022 40.2499 235.478 39.1544 236.402 38.2438C237.327 37.3332 238.437 36.8779 239.732 36.8779C240.984 36.8779 242.072 37.3332 242.997 38.2438C243.936 39.1544 244.413 40.2499 244.427 41.5304C244.413 42.3983 244.185 43.188 243.744 43.8994C243.317 44.6108 242.748 45.1799 242.037 45.6067C241.339 46.0193 240.571 46.2257 239.732 46.2257Z" fill="black"/>
<path d="M209.896 46.4184C207.819 46.4184 205.948 46.0484 204.284 45.3086C202.633 44.5545 201.324 43.4447 200.357 41.9792C199.403 40.5138 198.927 38.7068 198.927 36.5584C198.927 34.7088 199.268 33.1793 199.951 31.9699C200.634 30.7605 201.566 29.793 202.747 29.0674C203.928 28.3418 205.258 27.794 206.738 27.4241C208.232 27.0399 209.775 26.7625 211.369 26.5918C213.29 26.3926 214.848 26.2147 216.043 26.0582C217.238 25.8875 218.106 25.6314 218.647 25.2899C219.201 24.9342 219.479 24.3864 219.479 23.6466V23.5185C219.479 21.9108 219.002 20.6658 218.049 19.7837C217.096 18.9016 215.723 18.4605 213.93 18.4605C212.038 18.4605 210.537 18.8731 209.427 19.6984C208.331 20.5236 207.591 21.4982 207.207 22.6222L199.994 21.5978C200.563 19.6059 201.502 17.9412 202.811 16.6038C204.12 15.2521 205.721 14.2419 207.613 13.5732C209.505 12.8903 211.597 12.5488 213.887 12.5488C215.467 12.5488 217.039 12.7338 218.604 13.1037C220.169 13.4736 221.599 14.0854 222.894 14.9391C224.188 15.7786 225.227 16.9239 226.009 18.3752C226.806 19.8264 227.205 21.6405 227.205 23.8173V45.7568H219.778V41.2536H219.522C219.052 42.1642 218.39 43.0179 217.537 43.8146C216.697 44.5972 215.637 45.2303 214.357 45.7141C213.091 46.1836 211.604 46.4184 209.896 46.4184ZM211.903 40.7414C213.453 40.7414 214.798 40.4355 215.936 39.8237C217.074 39.1977 217.949 38.3725 218.561 37.3481C219.187 36.3237 219.5 35.2068 219.5 33.9974V30.1345C219.258 30.3337 218.846 30.5187 218.262 30.6894C217.693 30.8601 217.053 31.0095 216.342 31.1376C215.63 31.2656 214.926 31.3795 214.229 31.4791C213.532 31.5787 212.927 31.664 212.415 31.7352C211.262 31.8917 210.231 32.1478 209.32 32.5035C208.41 32.8592 207.691 33.3571 207.165 33.9974C206.638 34.6234 206.375 35.4344 206.375 36.4304C206.375 37.8532 206.894 38.9274 207.933 39.653C208.972 40.3786 210.295 40.7414 211.903 40.7414Z" fill="black"/>
<path d="M177.222 45.7566V12.9755H184.713V18.439H185.054C185.652 16.5467 186.676 15.0883 188.127 14.0639C189.593 13.0253 191.265 12.5059 193.143 12.5059C193.569 12.5059 194.046 12.5273 194.573 12.57C195.113 12.5984 195.561 12.6482 195.917 12.7194V19.8262C195.59 19.7124 195.07 19.6128 194.359 19.5274C193.662 19.4278 192.986 19.378 192.332 19.378C190.923 19.378 189.657 19.6839 188.533 20.2957C187.423 20.8933 186.548 21.7256 185.908 22.7927C185.268 23.8598 184.947 25.0905 184.947 26.4849V45.7566H177.222Z" fill="black"/>
<path d="M171.171 12.9759V18.9516H151.793V12.9759H171.171ZM156.638 45.7569V9.88128C156.638 7.67595 157.093 5.84056 158.003 4.37508C158.928 2.90961 160.166 1.81406 161.717 1.08844C163.268 0.362812 164.989 0 166.882 0C168.219 0 169.407 0.10671 170.446 0.32013C171.484 0.533548 172.253 0.725625 172.751 0.89636L171.214 6.87208C170.887 6.77248 170.474 6.67289 169.976 6.57329C169.478 6.45947 168.923 6.40256 168.311 6.40256C166.874 6.40256 165.857 6.75114 165.26 7.44831C164.676 8.13125 164.385 9.11297 164.385 10.3935V45.7569H156.638Z" fill="black"/>
<path d="M127.394 35.4712L127.373 26.1448H128.611L140.391 12.9768H149.419L134.928 29.1113H133.327L127.394 35.4712ZM120.352 45.7579V2.0498H128.077V45.7579H120.352ZM140.925 45.7579L130.254 30.84L135.462 25.3978L150.166 45.7579H140.925Z" fill="black"/>
<path d="M96.5234 45.7566V12.9755H104.014V18.439H104.356C104.953 16.5467 105.978 15.0883 107.429 14.0639C108.895 13.0253 110.566 12.5059 112.444 12.5059C112.871 12.5059 113.348 12.5273 113.874 12.57C114.415 12.5984 114.863 12.6482 115.219 12.7194V19.8262C114.892 19.7124 114.372 19.6128 113.661 19.5274C112.964 19.4278 112.288 19.378 111.633 19.378C110.225 19.378 108.959 19.6839 107.835 20.2957C106.725 20.8933 105.85 21.7256 105.21 22.7927C104.569 23.8598 104.249 25.0905 104.249 26.4849V45.7566H96.5234Z" fill="black"/>
<path d="M74.2583 46.397C71.057 46.397 68.2826 45.6927 65.935 44.2842C63.5874 42.8756 61.7663 40.905 60.4715 38.3725C59.191 35.8399 58.5508 32.8805 58.5508 29.4943C58.5508 26.108 59.191 23.1415 60.4715 20.5947C61.7663 18.0479 63.5874 16.0702 65.935 14.6617C68.2826 13.2531 71.057 12.5488 74.2583 12.5488C77.4596 12.5488 80.234 13.2531 82.5816 14.6617C84.9292 16.0702 86.7432 18.0479 88.0237 20.5947C89.3185 23.1415 89.9658 26.108 89.9658 29.4943C89.9658 32.8805 89.3185 35.8399 88.0237 38.3725C86.7432 40.905 84.9292 42.8756 82.5816 44.2842C80.234 45.6927 77.4596 46.397 74.2583 46.397ZM74.301 40.2079C76.0368 40.2079 77.488 39.7312 78.6547 38.778C79.8214 37.8105 80.6893 36.5157 81.2584 34.8938C81.8417 33.2718 82.1334 31.4648 82.1334 29.4729C82.1334 27.4668 81.8417 25.6527 81.2584 24.0307C80.6893 22.3945 79.8214 21.0927 78.6547 20.1252C77.488 19.1577 76.0368 18.6739 74.301 18.6739C72.5225 18.6739 71.0428 19.1577 69.8619 20.1252C68.6952 21.0927 67.8202 22.3945 67.2369 24.0307C66.6678 25.6527 66.3832 27.4668 66.3832 29.4729C66.3832 31.4648 66.6678 33.2718 67.2369 34.8938C67.8202 36.5157 68.6952 37.8105 69.8619 38.778C71.0428 39.7312 72.5225 40.2079 74.301 40.2079Z" fill="black"/>
<path d="M12.3355 45.7579L0 2.0498H8.51536L16.3905 34.1693H16.796L25.2046 2.0498H32.9517L41.3816 34.1907H41.7658L49.6409 2.0498H58.1563L45.8207 45.7579H38.0097L29.2595 15.0897H28.9181L20.1466 45.7579H12.3355Z" fill="black"/>
</g>
<defs>
<clipPath id="clip0_154_22137">
<rect width="336" height="47" fill="white"/>
</clipPath>
</defs>
</svg>
