<svg width="64" height="64" viewBox="0 0 64 64" fill="none" xmlns="http://www.w3.org/2000/svg">
<rect width="64" height="64" rx="8" fill="white"/>
<g clip-path="url(#clip0_228_15892)">
<path d="M37.0605 13.7446L40.3184 17.2739L40.9033 17.0678C41.5188 16.8523 42.1831 16.8159 42.8184 16.9633C43.4534 17.1108 44.0337 17.4354 44.4912 17.8998L46.626 20.0561C46.711 20.1426 46.7684 20.2531 46.79 20.3725C46.8116 20.4916 46.797 20.6144 46.748 20.725L45.9619 22.4828L47.0898 25.5453L46.3457 28.3149L43.0547 40.8969C42.6792 42.3474 41.8025 43.6184 40.5801 44.4848L32.6064 49.8989C32.2934 50.1492 31.9048 50.2865 31.5039 50.2866C31.1029 50.2866 30.7136 50.1493 30.4004 49.8989L22.4229 44.4926C21.2026 43.6233 20.3257 42.3536 19.9443 40.9047L15.9102 25.5668L17.0342 22.5063L16.2148 20.6801C16.1755 20.5918 16.1634 20.494 16.1807 20.3989C16.198 20.3037 16.2436 20.2157 16.3115 20.1469L18.4951 17.9506C18.9548 17.4817 19.5391 17.1531 20.1787 17.0043C20.8182 16.8556 21.4871 16.8919 22.1064 17.1098L22.6855 17.3149L25.9395 13.7582L31.5 13.7143L37.0605 13.7446ZM31.2686 36.1459C31.0462 36.2085 30.829 36.2879 30.6182 36.3823L29.6318 36.7924L28.5176 37.3051L26.7031 38.2504C26.6366 38.2712 26.5774 38.312 26.5342 38.3666C26.4911 38.4212 26.4657 38.4877 26.4609 38.5571C26.4562 38.6266 26.4725 38.6962 26.5078 38.7563C26.5431 38.8161 26.5954 38.8644 26.6582 38.894L28.2344 40.0004C28.5677 40.2385 28.8903 40.4947 29.2021 40.769L29.6455 41.1508L30.5742 41.9633L30.9951 42.3344C31.1252 42.4421 31.2891 42.5014 31.458 42.5014C31.6267 42.5013 31.79 42.442 31.9199 42.3344L33.7344 40.7504L34.7051 39.9809L36.2812 38.853C36.3438 38.8232 36.396 38.7752 36.4307 38.7153C36.4654 38.6554 36.4808 38.586 36.4756 38.517C36.4703 38.4482 36.4446 38.3824 36.4014 38.3286C36.358 38.2746 36.2987 38.2352 36.2324 38.2153L34.4209 37.3002L33.3008 36.7875L32.3115 36.3823C32.1008 36.2878 31.8835 36.2084 31.6611 36.1459H31.2686ZM31.9775 19.3188C31.6292 19.2824 31.278 19.2824 30.9297 19.3188L29.7402 19.6508L28.082 20.1889C27.7933 20.2891 27.488 20.3341 27.1826 20.3207L24.167 19.7485L23.5566 19.6362H23.5283C23.3822 19.7857 23.246 19.9451 23.1211 20.1127L21.75 21.8266C21.4962 22.148 21.2545 22.4792 21.0254 22.8188L19.9971 24.3227L19.5127 25.1303C19.4245 25.4406 19.3788 25.7618 19.375 26.0844L19.4316 26.2485C19.456 26.3538 19.4874 26.4578 19.5254 26.559L20.335 27.4868L23.9229 31.3012C24.042 31.44 24.1223 31.6084 24.1543 31.7885C24.1863 31.9686 24.1686 32.1543 24.1045 32.3256L23.5029 33.7153C23.3699 34.0831 23.3596 34.4849 23.4746 34.8588L23.5918 35.1811C23.7846 35.7055 24.1155 36.1682 24.5488 36.5209L25.1123 36.9809C25.2588 37.0858 25.4295 37.1518 25.6084 37.1733C25.7874 37.1947 25.9695 37.1713 26.1367 37.1039L28.1416 36.144C28.5104 35.9612 28.8556 35.7341 29.1689 35.4672L30.7734 34.019C30.8377 33.9616 30.89 33.8918 30.9268 33.8139C30.9636 33.7359 30.9839 33.6511 30.9873 33.5649C30.9901 33.479 30.9759 33.3933 30.9453 33.3129C30.9147 33.2325 30.868 33.1585 30.8086 33.0961L27.1826 30.6567C27.0456 30.5595 26.9478 30.4164 26.9072 30.2534C26.8667 30.0902 26.8861 29.9171 26.9619 29.767L28.3662 27.1284C28.4463 26.9669 28.4946 26.7906 28.5068 26.6108C28.519 26.4312 28.4949 26.2511 28.4375 26.0805C28.2627 25.7545 27.9807 25.4988 27.6387 25.3578L23.2354 23.7006C22.9185 23.5864 22.9355 23.4434 23.2715 23.4233L25.8574 23.1674C26.2629 23.1415 26.6708 23.1769 27.0654 23.2739L29.3154 23.9028C29.475 23.9509 29.6117 24.0554 29.7002 24.1967C29.7887 24.338 29.8233 24.5067 29.7969 24.6713L28.9131 29.5014C28.8537 29.7686 28.8386 30.0438 28.8691 30.3159C28.9049 30.4309 29.2074 30.573 29.5381 30.6537L30.9092 30.9399C31.3071 31.0134 31.7153 31.0134 32.1133 30.9399L33.3457 30.6537C33.6772 30.5823 33.9758 30.4228 34.0137 30.3071C34.0434 30.0351 34.0283 29.7597 33.9688 29.4926L33.0801 24.6645C33.0541 24.5 33.0884 24.332 33.1768 24.1909C33.2653 24.0496 33.402 23.9443 33.5615 23.8959L35.8115 23.2661C36.2061 23.1691 36.6131 23.1327 37.0186 23.1586L39.6045 23.3989C39.9429 23.4303 39.9611 23.5562 39.6426 23.6762L35.2402 25.3432C34.8981 25.4833 34.6161 25.739 34.4434 26.0659C34.328 26.4109 34.3535 26.7875 34.5146 27.1137L35.9209 29.7534C35.997 29.9036 36.0169 30.0762 35.9766 30.2397C35.9361 30.403 35.8384 30.5465 35.7012 30.644L32.082 33.0893C32.0234 33.1505 31.9779 33.2232 31.9473 33.3022C31.9166 33.3813 31.9012 33.4655 31.9033 33.5502C31.9054 33.6351 31.9244 33.7188 31.959 33.7963C31.9936 33.8739 32.0437 33.9441 32.1055 34.0024L32.1162 34.0121L33.7227 35.4594C34.0359 35.7253 34.3804 35.9528 34.748 36.1362L36.752 37.0903C36.9193 37.1579 37.1011 37.1816 37.2803 37.1596C37.4595 37.1376 37.6303 37.0705 37.7764 36.9643L38.3408 36.5034C38.7743 36.1499 39.1049 35.686 39.2969 35.1606L39.4141 34.8373C39.5288 34.4635 39.5195 34.0626 39.3867 33.6948L38.7969 32.3022C38.7333 32.1306 38.716 31.9452 38.748 31.7651C38.7801 31.585 38.8598 31.4169 38.9785 31.2778L42.5664 27.4594L43.374 26.5307C43.417 26.4323 43.4532 26.331 43.4834 26.228V26.2289L43.541 26.0649C43.5439 25.8457 43.53 25.6267 43.5 25.4096C43.3495 25.02 43.1532 24.6492 42.915 24.3061L41.8906 22.8022L41.1602 21.81L39.7861 20.0961C39.6606 19.929 39.5245 19.7696 39.3789 19.6196H39.3506L38.7402 19.7328L35.7217 20.3139C35.4163 20.328 35.1108 20.2829 34.8223 20.1821L33.1641 19.6469L31.9775 19.3188Z" fill="black"/>
</g>
<defs>
<clipPath id="clip0_228_15892">
<rect width="31.1797" height="36.5714" fill="white" transform="translate(15.9102 13.7143)"/>
</clipPath>
</defs>
</svg>
