<svg width="64" height="64" viewBox="0 0 64 64" fill="none" xmlns="http://www.w3.org/2000/svg">
<path d="M27.3538 36.9356L39.7746 28.1324C40.3835 27.7008 41.2539 27.8691 41.5441 28.5395C43.0711 32.0749 42.3888 36.3235 39.3505 39.2406C36.3124 42.1575 32.0849 42.7973 28.221 41.3403L24 43.2167C30.0542 47.1897 37.4059 46.2072 41.9999 41.7934C45.6439 38.2947 46.7725 33.5257 45.7172 29.2252L45.7268 29.2343C44.1965 22.9166 46.103 20.3913 50.0084 15.2275C50.1008 15.1051 50.1932 14.9826 50.2857 14.8571L45.1465 19.7913V19.776L27.3507 36.9387" fill="black"/>
<path d="M25.1211 39.1858C20.9439 35.2867 21.6641 29.2525 25.2283 25.7728C27.8639 23.1974 32.1821 22.1463 35.9516 23.6915L40.0001 21.8648C39.2707 21.3497 38.3359 20.7957 37.2633 20.4064C32.415 18.4569 26.6105 19.4272 22.6693 23.2753C18.8783 26.9796 17.6862 32.6754 19.7334 37.5357C21.2627 41.1682 18.7557 43.7375 16.2305 46.3309C15.3356 47.2502 14.4376 48.1696 13.7144 49.1429L25.118 39.1887" fill="black"/>
</svg>
