<svg width="32" height="32" viewBox="0 0 32 32" fill="none" xmlns="http://www.w3.org/2000/svg">
<g clip-path="url(#clip0_133_28880)">
<path d="M15.2457 0.31242C15.6623 -0.10414 16.3377 -0.10414 16.7542 0.31242L18.845 2.40322L14.9619 8.67595L9.19067 6.36747L15.2457 0.31242Z" fill="black"/>
<path d="M7.54952 8.00867L5.17627 10.3819L10.0692 16.5796L13.8219 10.5176L7.54952 8.00867Z" fill="black"/>
<path d="M3.65745 11.9008L0.312503 15.2458C0.262785 15.2955 0.219001 15.3489 0.181152 15.4051L7.69515 17.0153L3.65745 11.9008Z" fill="black"/>
<path d="M1.40796 17.8497L3.55533 19.9971L6.06377 18.8474L1.40796 17.8497Z" fill="black"/>
<path d="M5.16455 21.6064L6.27196 22.7138L7.66772 20.459L5.16455 21.6064Z" fill="black"/>
<path d="M7.82153 24.2635L15.2457 31.6877C15.6623 32.1041 16.3377 32.1041 16.7542 31.6877L17.4452 30.9967L17.6974 29.6849L10.2809 20.2906L7.82153 24.2635Z" fill="black"/>
<path d="M20.135 28.307L25.442 22.9999L21.3252 22.1177L20.135 28.307Z" fill="black"/>
<path d="M27.2386 21.2032L31.0379 17.404L22.8606 14.1331L21.728 20.0223L27.2386 21.2032Z" fill="black"/>
<path d="M31.8313 15.4236C31.7905 15.3606 31.7428 15.3009 31.6877 15.2457L27.7133 11.2714L24.7949 12.6091L31.8313 15.4236Z" fill="black"/>
<path d="M26.1042 9.66224L24.105 7.66302L23.49 10.8604L26.1042 9.66224Z" fill="black"/>
<path d="M22.2828 5.84103L20.3946 3.95294L16.9729 9.48039L21.2536 11.1927L22.2828 5.84103Z" fill="black"/>
<path d="M12.7964 18.1083L20.6127 14.5259L19.6417 19.5752L12.7964 18.1083Z" fill="black"/>
<path d="M13.0398 20.3423L19.2388 21.6706L18.23 26.9165L13.0398 20.3423Z" fill="black"/>
<path d="M13.1987 15.5772L19.3838 12.7424L15.8329 11.322L13.1987 15.5772Z" fill="black"/>
</g>
<defs>
<clipPath id="clip0_133_28880">
<rect width="32" height="32" fill="white"/>
</clipPath>
</defs>
</svg>
