<svg width="512" height="512" viewBox="0 0 512 512" fill="none" xmlns="http://www.w3.org/2000/svg">
<g clip-path="url(#clip0_151_21616)">
<path d="M384 0H128C57.3075 0 0 57.3075 0 128V384C0 454.692 57.3075 512 128 512H384C454.692 512 512 454.692 512 384V128C512 57.3075 454.692 0 384 0Z" fill="black"/>
<path fill-rule="evenodd" clip-rule="evenodd" d="M213.778 212.303V192.639C215.683 192.493 217.616 192.399 219.579 192.334C273.375 190.647 308.67 238.562 308.67 238.562C308.67 238.562 270.547 291.5 229.677 291.5C224.276 291.521 218.903 290.664 213.778 288.955V229.315C234.715 231.844 238.931 241.091 251.522 262.086L279.525 238.474C279.525 238.474 259.083 211.664 224.624 211.664C220.881 211.664 217.297 211.925 213.778 212.303ZM213.778 147.327V176.718C215.705 176.566 217.638 176.442 219.579 176.369C294.385 173.854 343.128 237.726 343.128 237.726C343.128 237.726 287.151 305.799 228.826 305.799C223.483 305.799 218.474 305.305 213.778 304.469V322.628C217.798 323.137 221.964 323.443 226.311 323.443C280.579 323.443 319.829 295.731 357.835 262.922C364.137 267.968 389.938 280.246 395.237 285.626C359.1 315.868 274.887 340.258 227.14 340.258C222.676 340.243 218.22 340.01 213.778 339.56V365.076H420.056V147.327H213.778ZM213.778 288.955V304.469C163.581 295.527 149.645 243.338 149.645 243.338C149.645 243.338 173.751 216.629 213.778 212.303V229.315L213.698 229.307C192.689 226.785 176.281 246.413 176.281 246.413C176.281 246.413 185.477 279.446 213.778 288.955ZM124.622 241.077C124.622 241.077 154.37 197.168 213.778 192.639V176.704C147.98 181.989 91 237.711 91 237.711C91 237.711 123.27 331.003 213.778 339.545V322.628C147.362 314.276 124.622 241.077 124.622 241.077Z" fill="white"/>
</g>
<defs>
<clipPath id="clip0_151_21616">
<rect width="512" height="512" fill="white"/>
</clipPath>
</defs>
</svg>
