<svg width="512" height="512" viewBox="84 84 344 344" fill="none" xmlns="http://www.w3.org/2000/svg">
<path fill-rule="evenodd" clip-rule="evenodd" d="M324.857 112.05L428.344 170.889V172.136L323.797 230.343L324.04 200L312.273 199.57C297.094 199.168 289.182 199.598 279.765 201.146C264.514 203.655 250.553 209.417 234.658 220.525L203.612 242.097C199.541 244.892 196.517 246.913 193.865 248.618L186.483 253.234L180.793 256.588L186.311 259.884L193.908 264.729C200.731 269.23 210.678 276.138 232.622 291.475C248.532 302.583 262.479 308.345 277.729 310.854L282.029 311.499C291.977 312.803 301.738 312.846 322.521 311.972L322.836 281.026L426.323 339.864V341.111L321.776 399.333L321.976 372.645L312.875 372.96C293.009 373.562 282.244 372.989 267.897 370.638C243.616 366.625 221.17 357.365 197.936 341.126L167.004 319.626C163.447 317.172 159.839 314.792 156.183 312.488L149.489 308.474C145.874 306.391 142.243 304.337 138.596 302.311C125.681 295.13 92.0692 286.329 84 286.329V225.728L86.0069 225.785C94.0909 225.685 127.717 216.87 140.602 209.675L155.165 201.361L161.443 197.434C167.578 193.421 176.808 187.028 199.942 170.874C223.177 154.635 245.608 145.361 269.903 141.362C286.415 138.639 298.197 138.309 324.571 139.384L324.857 112.05Z" fill="black"/>
</svg>
