<svg width="512" height="512" viewBox="0 0 512 512" fill="none" xmlns="http://www.w3.org/2000/svg">
<path fill-rule="evenodd" clip-rule="evenodd" d="M215.705 207.82V175.238C215.705 172.499 216.743 170.437 219.137 169.067L284.632 131.354C293.555 126.207 304.181 123.814 315.152 123.814C356.297 123.814 382.362 155.703 382.362 189.64C382.362 192.048 382.362 194.787 382.016 197.526L314.114 157.75C312.27 156.577 310.129 155.953 307.943 155.953C305.757 155.953 303.617 156.577 301.773 157.75L215.705 207.82ZM368.652 334.686V256.865C368.652 252.064 366.59 248.648 362.467 246.24L276.4 196.171L304.512 180.053C305.531 179.383 306.724 179.025 307.943 179.025C309.163 179.025 310.356 179.383 311.374 180.053L376.869 217.781C395.741 228.738 408.427 252.064 408.427 274.698C408.427 300.764 393.002 324.767 368.637 334.715L368.652 334.686ZM195.479 266.135L167.366 249.671C164.959 248.302 163.921 246.24 163.921 243.501V168.044C163.921 131.354 192.033 103.573 230.108 103.573C244.524 103.573 257.889 108.373 269.206 116.951L201.649 156.049C197.54 158.442 195.479 161.874 195.479 166.674V266.12V266.135ZM256 301.095L215.705 278.461V230.454L256 207.82L296.295 230.454V278.461L256 301.095ZM281.892 405.328C267.476 405.328 254.111 400.542 242.794 391.964L310.351 352.866C314.46 350.472 316.521 347.041 316.521 342.241V242.794L344.98 259.258C347.387 260.628 348.411 262.689 348.411 265.429V340.871C348.411 377.561 319.952 405.328 281.892 405.328ZM200.626 328.876L135.116 291.148C116.259 280.177 103.573 256.865 103.573 234.231C103.528 221.37 107.323 208.789 114.47 198.097C121.618 187.405 131.793 179.089 143.694 174.214V252.396C143.694 257.197 145.756 260.628 149.865 263.035L235.6 312.758L207.488 328.876C206.47 329.548 205.277 329.907 204.057 329.907C202.837 329.907 201.644 329.548 200.626 328.876ZM196.848 385.101C158.096 385.101 129.638 355.965 129.638 319.952C129.638 317.213 129.984 314.474 130.316 311.735L197.872 350.804C201.995 353.212 206.104 353.212 210.213 350.804L296.28 301.095V333.677C296.28 336.416 295.271 338.478 292.863 339.847L227.369 377.561C218.445 382.708 207.82 385.101 196.848 385.101ZM281.892 425.9C301.651 425.902 320.804 419.079 336.112 406.585C351.419 394.091 361.941 376.693 365.898 357.335C404.304 347.387 429 311.36 429 274.684C429 250.68 418.721 227.368 400.196 210.559C401.911 203.35 402.935 196.156 402.935 188.963C402.935 139.931 363.159 103.227 317.213 103.227C307.958 103.227 299.048 104.596 290.11 107.696C274.107 91.9442 252.576 83.0803 230.122 83C210.361 82.9991 191.207 89.8244 175.899 102.321C160.591 114.818 150.07 132.219 146.116 151.58C107.696 161.528 83 197.54 83 234.231C83 258.249 93.2791 281.561 111.805 298.356C110.089 305.565 109.065 312.773 109.065 319.967C109.065 368.998 148.841 405.688 194.787 405.688C204.042 405.688 212.952 404.319 221.89 401.233C237.895 416.991 259.433 425.856 281.892 425.929V425.9Z" fill="black"/>
</svg>
