<svg width="512" height="512" viewBox="0 0 512 512" fill="none" xmlns="http://www.w3.org/2000/svg">
<rect width="512" height="512" rx="128" fill="black"/>
<rect width="382" height="382" transform="translate(65 65)" fill="white"/>
<path d="M39 39V473H473V39H39ZM364.5 79.9418V180.05H407.9V331.95H364.5V433.414L266.85 346.614V418.75H245.15V345.258L147.5 432.058V331.95H104.1V180.05H147.5V81.298L245.15 168.098V83.7563H266.85V166.742L364.5 79.9418ZM342.8 128.258L284.545 180.05H342.8V128.258ZM169.2 129.614V180.05H225.929L169.2 129.614ZM125.8 201.75V310.25H147.5V272.826L227.455 201.75H125.8ZM283.019 201.75L364.5 274.182V310.25H386.2V201.75H283.019ZM245.15 215.058L169.2 282.574V383.742L245.15 316.247V215.058ZM266.85 216.414V317.603L342.8 385.098V283.93L266.85 216.414Z" fill="black"/>
</svg>
